<svg viewBox="0 0 66 21" xmlns="http://www.w3.org/2000/svg" xmlns:xlink="http://www.w3.org/1999/xlink">
    <defs>
        <linearGradient x1="0%" y1="44.953%" x2="102%" y2="55.148%" id="gradient">
            <stop stop-color="#3023AE" offset="0%">
                <animate attributeName="stop-color"
                         values="#3023AE; #7A5FFF; #01FF89; #7A5FFF; #3023AE; #C86DD7; #3023AE;"
                         dur="10s"
                         repeatCount="indefinite"
                />
            </stop>
            <stop stop-color="#C86DD7" offset="100%">
                <animate attributeName="stop-color"
                         values="#C86DD7; #01FF89; #3023AE; #01FF89; #C86DD7"
                         dur="5s"
                         repeatCount="indefinite"
                />
            </stop>
        </linearGradient>
        <path d="M0 20.44V.84h8.008c2.3147 0 4.144.6253 5.488 1.876 1.344 1.2507 2.016 2.9027 2.016 4.956 0 2.184-.7467 3.878-2.24 5.082-1.4933 1.204-3.388 1.806-5.684 1.806H4.312v5.88H0zm4.312-9.716h3.416c1.064 0 1.8993-.28 2.506-.84.6067-.56.91-1.288.91-2.184 0-.952-.308-1.6847-.924-2.198-.616-.5133-1.4747-.77-2.576-.77H4.312v5.992zm13.063 9.716V0h4.256v20.44h-4.256zm11.4392.28c-1.4747 0-2.702-.4107-3.682-1.232-.98-.8213-1.47-1.96-1.47-3.416 0-1.5867.546-2.7813 1.638-3.584 1.092-.8027 2.562-1.204 4.41-1.204 1.2506 0 2.4733.2053 3.668.616v-.252c0-1.8293-1.0734-2.744-3.22-2.744-1.288 0-2.6694.2707-4.144.812l-1.064-3.248c1.8293-.8027 3.7706-1.204 5.824-1.204 2.2586 0 3.948.56 5.068 1.68 1.0826 1.0827 1.624 2.6787 1.624 4.788v8.708h-4.116v-1.624c-1.1387 1.2693-2.6507 1.904-4.536 1.904zm1.288-2.94c.9893 0 1.792-.2473 2.408-.742.616-.4947.924-1.1247.924-1.89v-.756c-.8027-.3733-1.708-.56-2.716-.56-.9334 0-1.6567.182-2.17.546-.5134.364-.77.8913-.77 1.582 0 .56.2146 1.0033.644 1.33.4293.3267.9893.49 1.68.49zm9.955 2.66V5.432h4.256v3.024c.9707-2.296 2.5667-3.3973 4.788-3.304v4.452h-.224c-1.456 0-2.5806.4433-3.374 1.33-.7933.8867-1.19 2.2073-1.19 3.962v5.544h-4.256zm10.6271 0V0h4.256v10.892l4.984-5.46h5.096l-5.712 5.908 5.908 9.1h-4.872l-3.92-6.132-1.484 1.568v4.564h-4.256z" id="logo"/>
    </defs>
    <g fill-rule="nonzero" fill="none">
        <use fill="url(#gradient)" xlink:href="#logo"/>
    </g>
</svg>