<svg width="89" height="26" viewBox="0 0 89 26" xmlns="http://www.w3.org/2000/svg">
    <g fill="none" fill-rule="nonzero">
        <path d="M0 16.1V4c0-.5.3-.7.8-.4L9.6 9v13.7l-8.3-5c-1.1-.6-1.3-1-1.3-1.6z" fill="#CD2526"/>
        <path d="M67.5 3v15c0 .5.1.8.3 1.1l.9.3.9-.3.3-1.2V3h3.5v15c0 1.7-.4 3-1.2 3.8-.8.8-2 1.2-3.5 1.2-3.2 0-4.8-1.7-4.8-5V3h3.6zM29.3 3v3.6h-5.1v4.2h4.5v3.8h-4.5v8.1h-3.6V3h8.7zM34 3v16.1h5.1v3.6h-8.7V3H34zm14 0l3.6 19.7h-3.8l-.6-3.9h-2.7l-.6 3.9H40L43.6 3H48zm9.3 0a6.6 6.6 0 013.9 1.2L62.4 6c.1.8.3 1.8.3 3s-.2 2.3-.6 3.3c-.3.7-.8 1.3-1.5 1.7l2.7 8.7h-3.9l-2-7.8h-1v7.8h-3.6V3h4.5zm21.5 0l1.8 5.4 1.2 3.9h.3L83.3 8 85 3h3.6v19.7H85v-9.3h-.3l-1 3-.5 2.4h-2.7l-.6-2.4-.9-3h-.3v9.3h-3.6V3h3.6zm-62 0v13.4H2c-2 0-.8 1.3-.8 1.3C0 17 0 16.6 0 16.1V4c0-.5.4-.9.9-.9h15.8zM46 8l-.6 4-.3 3.2h1.8l-.3-3.2-.6-4zm11-1.4h-.6v4.8H58c0-.2.3-.3.5-.6.2-.1.3-.4.3-.6l.3-1.2c0-1-.2-1.5-.6-1.8-.3-.4-.8-.6-1.5-.6z" fill="#E7662F"/>
    </g>
</svg>
