<svg width="112" height="26" viewBox="0 0 112 26" xmlns="http://www.w3.org/2000/svg">
    <path d="M13 0a13 13 0 110 26 13 13 0 010-26zm1.7 6.5H8.4v13h2.7v-3.9h3.6a4.5 4.5 0 00.2-9.1h-.2zm24 2.2c1.8 0 2.8 1.2 2.8 2.7 0 1.5-1 2.7-2.9 2.7h-2.1v3.2h-1.8V8.7h4zm7.5 2.2v1.5a2 2 0 00-.5 0c-.5 0-1.2.3-1.5.7v4.2h-1.6V11h1.6v.8c.5-.5 1.2-1 2-1zm3.9 0c2 0 3.2 1.4 3.2 3.2 0 1.7-1.2 3.2-3.2 3.2s-3.3-1.5-3.3-3.2c0-1.8 1.2-3.2 3.3-3.2zm10.3-2.2v8.6h-1.6v-1c-.5.7-1.2 1-2 1-1.5 0-2.6-1.1-2.6-3.2 0-2 1.1-3.2 2.7-3.2.7 0 1.4.3 1.9 1V8.6h1.6zm3.3 2.3v3.8c0 .8.4 1 1 1 .7 0 1.2-.3 1.5-.6V11h1.6v6.3h-1.6v-.9a3 3 0 01-2.2 1c-1.3 0-2-.8-2-2V11h1.7zm8.6-.1c1.3 0 2 .5 2.4 1l-1 1c-.3-.4-.8-.6-1.3-.6-1 0-1.7.7-1.7 1.8 0 1 .7 1.8 1.7 1.8.5 0 1-.3 1.3-.7l1 1c-.4.6-1.1 1.1-2.4 1.1a3.1 3.1 0 01-3.3-3.2c0-1.9 1.4-3.2 3.3-3.2zm37.3-1.6V11h1.2v1.4h-1.2v2.8c0 .4.2.7.6.7l.5-.2.4 1.2c-.3.3-.7.4-1.4.4-1.1 0-1.7-.6-1.7-1.7v-3.2h-1V11h1V9.3h1.6zm-31.8 0V11H79v1.4h-1.2v2.8c0 .4.2.7.5.7l.6-.2.3 1.2c-.2.3-.7.4-1.3.4-1.2 0-1.8-.6-1.8-1.7v-3.2h-1V11h1V9.3h1.7zm7.6-.6V12h4V8.7h1.8v8.6h-1.8v-3.7h-4v3.7h-1.8V8.7h1.8zm9 2.3v3.8c0 .8.5 1 1.2 1 .6 0 1.1-.3 1.4-.6V11h1.6v6.3H97v-.9a3 3 0 01-2.2 1c-1.3 0-2-.8-2-2V11h1.7zm9.6-.1c1.4 0 2 .7 2 2v4.4h-1.6v-3.8c0-.9-.4-1.2-1.1-1.2-.7 0-1.2.4-1.4.7v4.3h-1.7V11h1.7v.8c.4-.5 1.1-1 2.1-1zm-54 1.4c-1 0-1.5.8-1.5 1.8s.6 1.8 1.6 1.8 1.5-.8 1.5-1.8-.5-1.8-1.5-1.8zm7.4 0c-1 0-1.6.7-1.6 1.8 0 1 .7 1.8 1.6 1.8.5 0 1.1-.3 1.4-.7V13c-.3-.4-.9-.7-1.4-.7zM14.7 9.1a2 2 0 010 3.9h-3.6V9.1h3.6zm23.7 1.2h-2v2.2h2c.7 0 1.3-.4 1.3-1 0-.8-.6-1.2-1.3-1.2z" fill="#D44C1B" fill-rule="evenodd"/>
</svg>
