<svg width="76" height="26" viewBox="0 0 76 26" xmlns="http://www.w3.org/2000/svg">
    <g fill="none" fill-rule="nonzero">
        <path d="M13 0a13 13 0 110 26 13 13 0 010-26zm5.4 5.2c-.5 0-1 .3-1.2.7l-3.1-.7h-.3l-.1.3-1 4.5c-2 .1-3.8.7-5.1 1.7a1.9 1.9 0 10-2 3c-.2.2-.2.4-.2.6 0 3 3.4 5.3 7.6 5.3 4.2 0 7.6-2.4 7.6-5.3v-.6a2 2 0 001-1.7 1.9 1.9 0 00-3.1-1.4c-1.3-.9-3.1-1.5-5.1-1.6l.9-4 2.8.6a1.3 1.3 0 101.3-1.4zm-8.1 12.2c.6.6 1.8.8 2.7.8.9 0 2.2-.2 2.7-.8h.5c.2.2.2.4 0 .5-.9 1-2.7 1-3.2 1s-2.3 0-3.2-1a.3.3 0 010-.5h.5zM16 13a1.4 1.4 0 110 2.7 1.4 1.4 0 010-2.7zm-6 0a1.4 1.4 0 110 2.7 1.4 1.4 0 010-2.7z" fill="#FF4500"/>
        <circle fill="#FF4500" cx="68.2" cy="9" r="1.6"/>
        <path d="M54.3 6.3h.1c.5 0 .9.4.9.9v12a1 1 0 01-1.9.1c-.6.7-1.4 1-2.4 1-2.4 0-4.4-2.2-4.4-5 0-2.7 2-5 4.4-5 1 0 1.8.4 2.4 1V7.2c0-.5.4-1 1-1zm9.7 0h.1c.5 0 .9.4.9.9v12a1 1 0 01-1.9.1c-.6.7-1.4 1-2.4 1-2.4 0-4.4-2.2-4.4-5 0-2.7 2-5 4.4-5 1 0 1.8.4 2.4 1V7.2c0-.5.4-1 1-1zm-22.5 4c2.1 0 3.8 1.7 4.3 3.8l.1.7c0 .6-.4 1.2-1.2 1.2H39c.2 1.3 1.3 2.4 2.5 2.4 1.1 0 1.8-.6 2-.9.4-.3 1-.4 1.3 0 .5.2.6.9.2 1.3-.8 1-2 1.5-3.5 1.5-2.4 0-4.4-2.2-4.4-5 0-2.7 2-5 4.4-5zm31.3-2h.1c.5 0 1 .5 1 1v1.3h.8c.4 0 .8.4.8.9 0 .4-.4.8-.9.8h-.8v6.9c0 .5-.4.9-1 1a1 1 0 01-.9-1v-7h-.8a.8.8 0 01-.8-.8c0-.5.4-.8.9-.8h.7V9.3c0-.6.5-1 1-1zm-39.7 3.4c.7-1 2-1.5 3.3-1.3.5.1.8.5.8 1 0 .4-.4.8-.8.9h-.2c-1.8-.2-3.1 1.2-3.1 3v3.9c0 .5-.5 1-1 .9a1 1 0 01-.9-1v-7.6c0-.5.4-.9 1-.9.4 0 .9.4.9 1zm35-.3c.6 0 1 .4 1 1v6.8c0 .5-.4.9-1 .9a1 1 0 01-.9-1v-6.8c0-.5.5-.9 1-.9zm-17 .8c-1.5 0-2.6 1.4-2.6 3.1 0 1.8 1.1 3.1 2.5 3.1s2.6-1.3 2.6-3c0-1.8-1.1-3.2-2.6-3.2zm9.6 0c-1.4 0-2.5 1.4-2.5 3.1 0 1.8 1.1 3.1 2.5 3.1 1.5 0 2.6-1.3 2.6-3 0-1.8-1.1-3.2-2.6-3.2zm-19.2 0c-1 0-2 1-2.4 2.1H44c-.4-1.2-1.4-2-2.5-2z" fill="#000"/>
    </g>
</svg>
