<svg width="128" height="41" viewBox="0 0 128 41" xmlns="http://www.w3.org/2000/svg">
    <g fill="none" fill-rule="evenodd">
        <rect fill="#111" width="128" height="41" rx="5"/>
        <g fill="#FFF">
            <path d="M25.83 21a5.36 5.36 0 012.56-4.5 5.49 5.49 0 00-4.33-2.34c-1.82-.2-3.58 1.09-4.5 1.09-.95 0-2.38-1.07-3.92-1.04a5.76 5.76 0 00-4.84 2.95c-2.1 3.63-.53 8.96 1.47 11.9 1 1.43 2.18 3.03 3.72 2.98 1.5-.07 2.06-.96 3.87-.96 1.8 0 2.33.96 3.9.92 1.6-.03 2.62-1.44 3.6-2.9A11.88 11.88 0 0029 25.77a5.18 5.18 0 01-3.17-4.77zM22.87 12.23a5.28 5.28 0 001.21-3.78 5.37 5.37 0 00-3.47 1.8 5.02 5.02 0 00-1.24 3.64c1.36.01 2.65-.6 3.5-1.66z"/>
            <g>
                <path d="M44.83 28.4H39.7l-1.23 3.64H36.3l4.85-13.46h2.26l4.86 13.46h-2.21l-1.23-3.64zm-4.6-1.68h4.07l-2-5.9h-.06l-2 5.9zM58.76 27.13c0 3.05-1.64 5.01-4.1 5.01a3.33 3.33 0 01-3.08-1.72h-.05v4.86h-2.01V22.23h1.95v1.63h.03a3.48 3.48 0 013.13-1.73c2.49 0 4.13 1.96 4.13 5zm-2.07 0c0-1.98-1.03-3.29-2.6-3.29-1.53 0-2.57 1.34-2.57 3.3 0 1.97 1.04 3.3 2.58 3.3 1.56 0 2.59-1.3 2.59-3.3zM69.55 27.13c0 3.05-1.63 5.01-4.1 5.01a3.33 3.33 0 01-3.08-1.72h-.04v4.86H60.3V22.23h1.95v1.63h.04a3.48 3.48 0 013.12-1.73c2.5 0 4.13 1.96 4.13 5zm-2.07 0c0-1.98-1.02-3.29-2.59-3.29-1.54 0-2.57 1.34-2.57 3.3 0 1.97 1.03 3.3 2.57 3.3 1.57 0 2.6-1.3 2.6-3.3z" fill-rule="nonzero"/>
                <path d="M76.69 28.29c.15 1.33 1.44 2.2 3.21 2.2 1.7 0 2.92-.87 2.92-2.07 0-1.04-.74-1.67-2.48-2.1l-1.74-.42c-2.47-.6-3.62-1.75-3.62-3.62 0-2.33 2.02-3.92 4.9-3.92 2.84 0 4.79 1.6 4.85 3.92H82.7c-.12-1.35-1.23-2.16-2.85-2.16-1.63 0-2.74.82-2.74 2.02 0 .95.71 1.5 2.45 1.94l1.48.36c2.76.65 3.9 1.76 3.9 3.73 0 2.52-2 4.1-5.19 4.1-2.98 0-5-1.55-5.12-3.98h2.06zM89.3 19.9v2.33h1.86v1.6h-1.87v5.4c0 .84.38 1.23 1.2 1.23.22 0 .44-.02.66-.04V32c-.37.07-.75.1-1.12.1-1.99 0-2.76-.75-2.76-2.65v-5.63h-1.43v-1.6h1.43v-2.31h2.02z"/>
                <path d="M92.24 27.13c0-3.08 1.81-5.02 4.65-5.02 2.84 0 4.65 1.94 4.65 5.02 0 3.1-1.8 5.03-4.65 5.03-2.85 0-4.65-1.93-4.65-5.03zm7.25 0c0-2.11-.97-3.36-2.6-3.36-1.63 0-2.6 1.26-2.6 3.36 0 2.13.97 3.37 2.6 3.37 1.63 0 2.6-1.24 2.6-3.37z" fill-rule="nonzero"/>
                <path d="M103.2 22.23h1.92v1.67h.05a2.34 2.34 0 012.36-1.77c.23 0 .46.02.69.07v1.88c-.3-.08-.6-.13-.9-.12a2.03 2.03 0 00-2.1 2.26v5.82h-2.02v-9.81z"/>
                <path d="M117.5 29.16c-.27 1.78-2 3-4.22 3-2.86 0-4.63-1.91-4.63-4.98 0-3.08 1.78-5.07 4.54-5.07 2.72 0 4.42 1.86 4.42 4.84v.69h-6.93v.12a2.55 2.55 0 002.64 2.78c.98.09 1.9-.47 2.27-1.38h1.91zm-6.8-2.93h4.9a2.36 2.36 0 00-2.4-2.49 2.48 2.48 0 00-2.5 2.49z" fill-rule="nonzero"/>
            </g>
            <g>
                <path d="M39.98 8.46a2.86 2.86 0 013.04 3.21c0 2.07-1.12 3.25-3.04 3.25h-2.34V8.46h2.34zM38.65 14h1.22A2.03 2.03 0 0042 11.68a2.04 2.04 0 00-2.13-2.3h-1.22V14zM44.15 12.48a2.31 2.31 0 114.6 0 2.31 2.31 0 11-4.6 0zm3.61 0c0-1.06-.47-1.67-1.3-1.67-.84 0-1.31.61-1.31 1.67 0 1.07.47 1.68 1.3 1.68.84 0 1.31-.62 1.31-1.68z" fill-rule="nonzero"/>
                <path d="M54.87 14.93h-1l-1-3.6h-.08l-1 3.6h-1l-1.34-4.88h.98l.87 3.72h.08l1-3.72h.92l1 3.72h.08l.87-3.72h.96zM57.34 10.04h.93v.78h.07c.25-.57.83-.92 1.46-.87a1.59 1.59 0 011.68 1.81v3.16h-.96v-2.91c0-.79-.34-1.18-1.05-1.18a1.12 1.12 0 00-1.17 1.24v2.85h-.96v-4.88zM63.02 8.14h.96v6.79h-.96z"/>
                <path d="M65.32 12.48a2.31 2.31 0 114.6 0 2.31 2.31 0 11-4.6 0zm3.61 0c0-1.06-.47-1.67-1.3-1.67-.85 0-1.32.61-1.32 1.67 0 1.07.47 1.68 1.31 1.68.84 0 1.31-.62 1.31-1.68zM70.93 13.54c0-.88.66-1.38 1.82-1.45l1.32-.08v-.42c0-.52-.34-.8-1-.8-.54 0-.9.2-1.02.54h-.93c.1-.84.89-1.38 2-1.38 1.22 0 1.9.6 1.9 1.64v3.33h-.92v-.68h-.07c-.32.5-.88.79-1.47.76a1.47 1.47 0 01-1.63-1.46zm3.14-.41v-.41l-1.2.07c-.66.05-.97.28-.97.7 0 .45.38.7.9.7a1.15 1.15 0 001.27-1.06zM76.3 12.48c0-1.54.79-2.52 2.02-2.52.62-.03 1.2.3 1.5.86h.07V8.14h.96v6.78h-.92v-.77h-.08c-.31.55-.9.88-1.53.85-1.24 0-2.03-.97-2.03-2.52zm.99 0c0 1.04.49 1.66 1.3 1.66s1.31-.63 1.31-1.65-.5-1.66-1.3-1.66c-.82 0-1.31.63-1.31 1.65zM84.83 12.48a2.31 2.31 0 114.6 0 2.31 2.31 0 11-4.6 0zm3.61 0c0-1.06-.47-1.67-1.3-1.67-.84 0-1.31.61-1.31 1.67 0 1.07.47 1.68 1.3 1.68.84 0 1.31-.62 1.31-1.68z" fill-rule="nonzero"/>
                <path d="M90.73 10.04h.92v.78h.07c.25-.57.84-.92 1.46-.87a1.59 1.59 0 011.69 1.81v3.16h-.96v-2.91c0-.79-.35-1.18-1.06-1.18a1.12 1.12 0 00-1.16 1.24v2.85h-.96v-4.88zM100.3 8.83v1.24h1.06v.8h-1.05v2.52c0 .5.2.73.69.73.12 0 .24 0 .36-.02v.8c-.17.03-.34.05-.52.05-1.07 0-1.5-.38-1.5-1.32v-2.75h-.77v-.81h.77V8.83h.97zM102.68 8.14h.95v2.69h.08a1.5 1.5 0 011.49-.88 1.6 1.6 0 011.68 1.82v3.15h-.97v-2.9c0-.79-.36-1.18-1.04-1.18a1.14 1.14 0 00-1.23 1.23v2.85h-.96V8.14z"/>
                <path d="M112.5 13.6a1.98 1.98 0 01-2.12 1.42 2.22 2.22 0 01-2.26-2.52 2.25 2.25 0 012.25-2.55c1.36 0 2.18.93 2.18 2.46v.34h-3.45v.05a1.29 1.29 0 001.3 1.4c.48.05.93-.18 1.16-.6h.93zm-3.4-1.57h2.47a1.18 1.18 0 00-1.2-1.26 1.25 1.25 0 00-1.27 1.26z" fill-rule="nonzero"/>
            </g>
        </g>
    </g>
</svg>