<?xml version="1.0" encoding="UTF-8"?>
<svg width="130px" height="41px" viewBox="0 0 130 41" version="1.1" xmlns="http://www.w3.org/2000/svg" xmlns:xlink="http://www.w3.org/1999/xlink">
    <!-- Generator: Sketch 53.2 (72643) - https://sketchapp.com -->
    <title>Group 14</title>
    <desc>Created with Sketch.</desc>
    <defs>
        <radialGradient cx="-0.27898748%" cy="-0.428136163%" fx="-0.27898748%" fy="-0.428136163%" r="149.73734%" gradientTransform="translate(-0.002790,-0.004281),scale(0.863546,1.000000),translate(0.002790,0.004281)" id="radialGradient-1">
            <stop stop-color="#FFFFFF" stop-opacity="0.1" offset="0%"></stop>
            <stop stop-color="#FFFFFF" stop-opacity="0" offset="100%"></stop>
        </radialGradient>
        <path d="M0.233266129,0.0183467742 L0.233266129,22.996371 C0.237584578,24.0826874 1.11791268,24.9618448 2.20423387,24.9647177 L27.1506048,24.9647177 C28.236926,24.9618448 29.1172541,24.0826874 29.1215726,22.996371 L29.1215726,0.0183467742 L0.233266129,0.0183467742 Z M17.958871,5.26028226 L11.4064516,5.26028226 C10.6826914,5.26028224 10.0959678,4.67355863 10.0959678,3.94979839 C10.0959678,3.22603815 10.6826914,2.63931454 11.4064516,2.63931452 L17.958871,2.63931452 C18.4270618,2.6393145 18.8596879,2.88909131 19.0937833,3.29455644 C19.3278787,3.70002157 19.3278787,4.19957521 19.0937833,4.60504033 C18.8596879,5.01050546 18.4270618,5.26028227 17.958871,5.26028226 Z" id="path-2"></path>
        <path d="M0,12.4731855 C0,12.4831452 0,12.4933669 0,12.5033266 L0,12.5033266 C0,12.5111895 0.000262096774,12.5190524 0.000262096774,12.5266532 L0.000262096774,12.5266532 C0.000262096774,12.5334677 0.000262096774,12.5405444 0.000262096774,12.5470968 L0.000262096774,12.5470968 C0.000262096774,12.5481452 0.000262096774,12.5491935 0.000262096774,12.5497177 L0.000262096774,12.5497177 C0.000262096774,12.5499798 0.000262096774,12.5499798 0.000262096774,12.5499798 L0.000262096774,12.5499798 C0.000262096774,12.5562702 0.000262096774,12.5620363 0.000524193548,12.5683266 L0.000524193548,12.5683266 C0.000524193548,12.5725202 0.000524193548,12.5769758 0.000524193548,12.5809073 L0.000524193548,12.5809073 C0.000524193548,12.5811694 0.000524193548,12.5811694 0.000524193548,12.5814315 L0.000524193548,12.5814315 C0.000524193548,12.585625 0.000524193548,12.5903427 0.000524193548,12.5945363 L0.000524193548,12.5945363 C0.000786290323,12.5953226 0.000786290323,12.5958468 0.000786290323,12.5966331 L0.000786290323,12.5966331 C0.000786290323,12.6058065 0.0010483871,12.6152419 0.0010483871,12.6244153 L0.0010483871,12.6244153 C0.0010483871,12.6254637 0.0010483871,12.6265121 0.0010483871,12.6275605 L0.0010483871,12.6275605 C0.0010483871,12.6304435 0.0010483871,12.6338508 0.0010483871,12.6367339 L0.0010483871,12.6367339 C0.00131048387,12.6377823 0.00131048387,12.6388306 0.00131048387,12.6396169 L0.00131048387,12.6396169 C0.00131048387,12.6417137 0.00131048387,12.6438105 0.00131048387,12.6456452 L0.00131048387,12.6456452 C0.00131048387,12.650625 0.00131048387,12.6556048 0.00131048387,12.6608468 L0.00131048387,12.6608468 C0.00157258065,12.6647782 0.00157258065,12.6689718 0.00157258065,12.6726411 L0.00157258065,12.6726411 C0.00157258065,12.6742137 0.00157258065,12.6757863 0.00157258065,12.6770968 L0.00157258065,12.6770968 C0.00183467742,12.6899395 0.00209677419,12.7027823 0.00235887097,12.7151008 L0.00235887097,12.7151008 C0.00235887097,12.715625 0.00235887097,12.7161492 0.00235887097,12.7166734 L0.00235887097,12.7166734 C0.00288306452,12.7376411 0.00314516129,12.7575605 0.00393145161,12.7785282 L0.00393145161,12.7785282 C0.00393145161,12.7829839 0.00393145161,12.7874395 0.00393145161,12.7918952 L0.00393145161,12.7918952 C0.00393145161,12.7918952 0.00393145161,12.7921573 0.00393145161,12.7924194 L0.00393145161,12.7924194 C0.00419354839,12.7937298 0.00419354839,12.7950403 0.00419354839,12.7963508 L0.00419354839,12.7963508 C0.00419354839,12.7979234 0.00419354839,12.7997581 0.00419354839,12.8015927 L0.00419354839,12.8015927 C0.00419354839,12.8015927 0.00419354839,12.8015927 0.00419354839,12.8015927 L0.00419354839,12.8015927 C0.00445564516,12.8115524 0.00471774194,12.8215121 0.00497983871,12.8314718 L0.00497983871,12.8314718 C0.00524193548,12.8346169 0.00524193548,12.8375 0.00550403226,12.8406452 L0.00550403226,12.8406452 C0.00576612903,12.8469355 0.00576612903,12.8529637 0.00602822581,12.859254 L0.00602822581,12.859254 C0.00602822581,12.8597782 0.00602822581,12.8600403 0.00602822581,12.8605645 L0.00602822581,12.8605645 C0.00602822581,12.8647581 0.00629032258,12.8681653 0.00629032258,12.8723589 L0.00629032258,12.8723589 C0.00629032258,12.8734073 0.00629032258,12.8744556 0.00629032258,12.875504 L0.00629032258,12.875504 C0.00681451613,12.8893952 0.00733870968,12.9022379 0.00786290323,12.9158669 L0.00786290323,12.9158669 C0.00786290323,12.9177016 0.00786290323,12.9195363 0.008125,12.921371 L0.008125,12.921371 C0.00838709677,12.9302823 0.00864919355,12.9399798 0.00891129032,12.948629 L0.00891129032,12.948629 C0.00891129032,12.9491532 0.00891129032,12.9496774 0.00891129032,12.9502016 L0.00891129032,12.9502016 C0.0091733871,12.9533468 0.0091733871,12.9562298 0.00943548387,12.9591129 L0.00943548387,12.9591129 C0.00943548387,12.9598992 0.00943548387,12.9606855 0.00943548387,12.9614718 L0.00943548387,12.9614718 C0.00943548387,12.961996 0.00943548387,12.9622581 0.00943548387,12.9627823 L0.00943548387,12.9627823 C0.00943548387,12.9640927 0.00943548387,12.964879 0.00969758065,12.9661895 L0.00969758065,12.9661895 C0.00969758065,12.9664516 0.00969758065,12.9667137 0.00969758065,12.9672379 L0.00969758065,12.9672379 C0.0107459677,12.9905645 0.0115322581,13.0138911 0.0125806452,13.0372177 L0.0125806452,13.0372177 C0.0131048387,13.0492742 0.0136290323,13.062379 0.0141532258,13.0744355 L0.0141532258,13.0744355 C0.0144153226,13.0752218 0.0144153226,13.0762702 0.0144153226,13.0773185 L0.0144153226,13.0773185 C0.0146774194,13.0794153 0.0146774194,13.0815121 0.0146774194,13.0836089 L0.0146774194,13.0836089 C0.0146774194,13.0841331 0.0146774194,13.0851815 0.0146774194,13.0854435 L0.0146774194,13.0854435 C0.0149395161,13.0859677 0.0149395161,13.0864919 0.0149395161,13.0870161 L0.0149395161,13.0870161 C0.0152016129,13.0917339 0.0154637097,13.0964516 0.0154637097,13.1011694 L0.0154637097,13.1011694 C0.0157258065,13.1040524 0.0157258065,13.1066734 0.0159879032,13.1095565 L0.0159879032,13.1095565 C0.0159879032,13.1100806 0.0159879032,13.1106048 0.0159879032,13.111129 L0.0159879032,13.111129 C0.0159879032,13.1116532 0.0159879032,13.1119153 0.01625,13.1121774 L0.01625,13.1121774 C0.01625,13.1134879 0.01625,13.1145363 0.01625,13.1158468 L0.01625,13.1158468 C0.0167741935,13.1250202 0.0172983871,13.1347177 0.0178225806,13.1441532 L0.0178225806,13.1441532 C0.0178225806,13.1475605 0.0180846774,13.1509677 0.0183467742,13.1541129 L0.0183467742,13.1541129 C0.0183467742,13.154375 0.0183467742,13.1546371 0.0183467742,13.1551613 L0.0183467742,13.1551613 C0.0196572581,13.1763911 0.0207056452,13.1968347 0.022016129,13.2175403 L0.022016129,13.2175403 C0.0222782258,13.2227823 0.0225403226,13.2277621 0.0228024194,13.2332661 L0.0228024194,13.2332661 C0.0228024194,13.2340524 0.0228024194,13.2345766 0.0230645161,13.2353629 L0.0230645161,13.2353629 C0.0230645161,13.2358871 0.0230645161,13.2361492 0.0230645161,13.2366734 L0.0230645161,13.2366734 C0.0230645161,13.2369355 0.0230645161,13.2371976 0.0230645161,13.2377218 L0.0230645161,13.2377218 C0.0238508065,13.249254 0.0246370968,13.2610484 0.0251612903,13.2725806 L0.0251612903,13.2725806 C0.0251612903,13.2728427 0.0251612903,13.2728427 0.0251612903,13.2731048 L0.0251612903,13.2731048 C0.0251612903,13.273629 0.0254233871,13.2741532 0.0254233871,13.2744153 L0.0254233871,13.2744153 C0.0254233871,13.2746774 0.0254233871,13.2746774 0.0254233871,13.2749395 L0.0254233871,13.2749395 C0.0272580645,13.3011492 0.0288306452,13.3273589 0.0306653226,13.3533065 L0.0306653226,13.3533065 C0.0306653226,13.3535685 0.0306653226,13.3540927 0.0306653226,13.3540927 L0.0306653226,13.3540927 C0.0311895161,13.3593347 0.0314516129,13.3645766 0.0319758065,13.3698185 L0.0319758065,13.3698185 C0.0322379032,13.37375 0.0325,13.3779435 0.0327620968,13.381875 L0.0327620968,13.381875 C0.0330241935,13.3855444 0.0330241935,13.3892137 0.0332862903,13.3928831 L0.0332862903,13.3928831 C0.0335483871,13.3934073 0.0335483871,13.3939315 0.0335483871,13.3941935 L0.0335483871,13.3941935 C0.0335483871,13.3941935 0.0335483871,13.3941935 0.0335483871,13.3941935 L0.0335483871,13.3941935 C0.0411491935,13.4979839 0.0500604839,13.6017742 0.0600201613,13.7047782 L0.0600201613,13.7047782 C0.0602822581,13.7079234 0.0608064516,13.7113306 0.0610685484,13.7144758 L0.0610685484,13.7144758 C0.0618548387,13.7228629 0.062641129,13.7309879 0.0634274194,13.7391129 L0.0634274194,13.7391129 C0.0639516129,13.7440927 0.0644758065,13.7490726 0.065,13.7540524 L0.065,13.7540524 C0.0655241935,13.7598185 0.0660483871,13.7647984 0.0665725806,13.7703024 L0.0665725806,13.7703024 C0.0775806452,13.874879 0.0896370968,13.9791935 0.103004032,14.0829839 L0.103004032,14.0829839 C0.103266129,14.0845565 0.103266129,14.0856048 0.103528226,14.0874395 L0.103528226,14.0874395 C0.104576613,14.0963508 0.105887097,14.1055242 0.106935484,14.1144355 L0.106935484,14.1144355 C0.107459677,14.1175806 0.107983871,14.1209879 0.108245968,14.1243952 L0.108245968,14.1243952 C0.109294355,14.1317339 0.110342742,14.1393347 0.111391129,14.1469355 L0.111391129,14.1469355 C0.112177419,14.1532258 0.113225806,14.1603024 0.114012097,14.1668548 L0.114012097,14.1668548 C0.114798387,14.1715726 0.115322581,14.1762903 0.115846774,14.1810081 L0.115846774,14.1810081 C0.127903226,14.2685484 0.140745968,14.3555645 0.154637097,14.4425806 L0.154637097,14.4425806 L24.7922581,14.4425806 C24.8121774,14.3165121 24.8302621,14.1907056 24.84625,14.0633266 L24.84625,14.0633266 C24.8465121,14.0628024 24.8465121,14.0622782 24.8465121,14.0614919 L24.8465121,14.0614919 C24.8475605,14.0528427 24.8486089,14.0452419 24.8496573,14.0365927 L24.8496573,14.0365927 C24.8504435,14.0305645 24.8512298,14.0242742 24.8520161,14.018246 L24.8520161,14.018246 C24.8525403,14.013004 24.8533266,14.0067137 24.8541129,14.0014718 L24.8541129,14.0014718 C24.8551613,13.9922984 24.8562097,13.983125 24.8572581,13.9736895 L24.8572581,13.9736895 C24.8577823,13.9700202 24.8580444,13.9671371 24.8585685,13.9634677 L24.8585685,13.9634677 C24.859879,13.9519355 24.8614516,13.9404032 24.8627621,13.928871 L24.8627621,13.928871 C24.8627621,13.9272984 24.8630242,13.9254637 24.8632863,13.9238911 L24.8632863,13.9238911 C24.8698387,13.8670161 24.876129,13.809879 24.8818952,13.7527419 L24.8818952,13.7527419 C24.8978831,13.5944355 24.9109879,13.4353427 24.9212097,13.2754637 L24.9212097,13.2754637 C24.9212097,13.2752016 24.9214718,13.2749395 24.9214718,13.2744153 L24.9214718,13.2744153 C24.9214718,13.2741532 24.9214718,13.273629 24.9214718,13.2731048 L24.9214718,13.2731048 C24.9214718,13.2725806 24.9214718,13.2723185 24.9214718,13.2717944 L24.9214718,13.2717944 C24.9222581,13.2602621 24.9227823,13.2487298 24.9235685,13.2369355 L24.9235685,13.2369355 C24.9235685,13.2366734 24.9238306,13.2364113 24.9238306,13.2361492 L24.9238306,13.2361492 C24.9238306,13.2358871 24.9238306,13.2353629 24.9238306,13.2348387 L24.9238306,13.2348387 C24.9238306,13.2348387 24.9238306,13.2348387 24.9238306,13.2345766 L24.9238306,13.2345766 C24.9240927,13.2280242 24.9246169,13.2217339 24.924879,13.2154435 L24.924879,13.2154435 C24.9256653,13.2054839 24.9261895,13.1952621 24.9267137,13.1853024 L24.9267137,13.1853024 C24.9272379,13.1750806 24.9277621,13.165121 24.9282863,13.1548992 L24.9282863,13.1548992 L24.9282863,13.1546371 C24.9285484,13.1486089 24.9290726,13.1431048 24.9293347,13.1373387 L24.9293347,13.1373387 C24.9293347,13.1362903 24.9293347,13.135504 24.9295968,13.1344556 L24.9295968,13.1344556 C24.9295968,13.1328831 24.9295968,13.1318347 24.9295968,13.1302621 L24.9295968,13.1302621 C24.9298589,13.1294758 24.9298589,13.1286895 24.9298589,13.1279032 L24.9298589,13.1279032 C24.930121,13.1250202 24.930121,13.1221371 24.930121,13.1189919 L24.930121,13.1189919 C24.930121,13.1184677 24.9303831,13.1176815 24.9303831,13.1171573 L24.9303831,13.1171573 C24.9303831,13.116371 24.9303831,13.116371 24.9303831,13.1155847 L24.9303831,13.1155847 C24.9303831,13.1150605 24.9303831,13.1147984 24.9306452,13.1145363 L24.9306452,13.1145363 C24.9306452,13.1132258 24.9306452,13.1124395 24.9306452,13.111129 L24.9306452,13.111129 C24.9306452,13.1108669 24.9306452,13.1106048 24.9306452,13.1106048 L24.9306452,13.1106048 C24.9309073,13.1058871 24.9311694,13.1009073 24.9314315,13.0959274 L24.9314315,13.0959274 C24.9316935,13.0917339 24.9316935,13.0878024 24.9319556,13.083871 L24.9319556,13.083871 C24.9322177,13.0817742 24.9322177,13.0796774 24.9322177,13.0775806 L24.9322177,13.0775806 C24.9322177,13.0775806 24.9322177,13.0775806 24.9324798,13.0775806 L24.9324798,13.0775806 C24.9324798,13.0765323 24.9324798,13.075746 24.9324798,13.0749597 L24.9324798,13.0749597 C24.9335282,13.0508468 24.9345766,13.026996 24.935625,13.0028831 L24.935625,13.0028831 C24.935625,13.002621 24.935625,13.0023589 24.935625,13.0020968 L24.935625,13.0020968 C24.935625,13.0013105 24.9358871,12.9994758 24.9358871,12.9986895 L24.9358871,12.9986895 C24.9358871,12.9981653 24.9358871,12.9979032 24.9358871,12.9976411 L24.9358871,12.9976411 C24.9358871,12.9955444 24.9361492,12.9931855 24.9361492,12.9913508 L24.9361492,12.9913508 C24.9361492,12.9908266 24.9361492,12.9905645 24.9361492,12.9900403 L24.9361492,12.9900403 C24.9366734,12.9795565 24.9369355,12.9693347 24.9374597,12.9588508 L24.9374597,12.9588508 C24.9374597,12.9580645 24.9374597,12.9570161 24.9374597,12.9559677 L24.9374597,12.9559677 C24.9374597,12.9551815 24.9374597,12.9543952 24.9374597,12.9536089 L24.9374597,12.9536089 C24.9379839,12.9449597 24.938246,12.9365726 24.9385081,12.9279234 L24.9385081,12.9279234 C24.9387702,12.9245161 24.9387702,12.9211089 24.9390323,12.9177016 L24.9390323,12.9177016 C24.9390323,12.9166532 24.9390323,12.9156048 24.9390323,12.9145565 L24.9390323,12.9145565 C24.9392944,12.9069556 24.9395565,12.8990927 24.9398185,12.8914919 L24.9398185,12.8914919 C24.9400806,12.88625 24.9400806,12.8810081 24.9403427,12.8757661 L24.9403427,12.8757661 C24.9403427,12.875504 24.9403427,12.875504 24.9403427,12.8752419 L24.9403427,12.8752419 C24.9403427,12.8747177 24.9403427,12.8736694 24.9403427,12.8728831 L24.9403427,12.8728831 C24.9406048,12.8686895 24.9406048,12.8647581 24.9408669,12.8608266 L24.9408669,12.8608266 C24.941129,12.8534879 24.9413911,12.8461492 24.9413911,12.8385484 L24.9413911,12.8385484 C24.9413911,12.8375 24.9416532,12.8367137 24.9416532,12.8356653 L24.9416532,12.8356653 C24.9416532,12.834879 24.9416532,12.8340927 24.9416532,12.8330444 L24.9416532,12.8330444 C24.9419153,12.823871 24.9421774,12.8144355 24.9424395,12.8052621 L24.9424395,12.8052621 C24.9424395,12.8036895 24.9424395,12.802379 24.9424395,12.8008065 L24.9424395,12.8008065 C24.9424395,12.8000202 24.9424395,12.7992339 24.9424395,12.7987097 L24.9424395,12.7987097 C24.9427016,12.7966129 24.9427016,12.7945161 24.9427016,12.7924194 L24.9427016,12.7924194 C24.9427016,12.7921573 24.9427016,12.7918952 24.9427016,12.7916331 L24.9427016,12.7916331 C24.9427016,12.7895363 24.9427016,12.7877016 24.9429637,12.7858669 L24.9429637,12.7858669 C24.9429637,12.778004 24.9432258,12.7709274 24.9434879,12.7628024 L24.9434879,12.7628024 C24.94375,12.7478629 24.9440121,12.7329234 24.9442742,12.7177218 L24.9442742,12.7177218 C24.9442742,12.7158871 24.9442742,12.7140524 24.9445363,12.7122177 L24.9445363,12.7122177 C24.9445363,12.7095968 24.9445363,12.7075 24.9445363,12.704879 L24.9445363,12.704879 C24.9445363,12.7043548 24.9445363,12.7038306 24.9445363,12.7030444 L24.9445363,12.7030444 C24.9445363,12.6972782 24.9447984,12.6915121 24.9447984,12.6860081 L24.9447984,12.6860081 C24.9447984,12.6852218 24.9450605,12.6846976 24.9450605,12.6841734 L24.9450605,12.6841734 C24.9450605,12.6820766 24.9450605,12.6799798 24.9450605,12.6778831 L24.9450605,12.6778831 C24.9450605,12.6778831 24.9450605,12.677621 24.9450605,12.677621 L24.9450605,12.677621 C24.9450605,12.6752621 24.9450605,12.6726411 24.9450605,12.6702823 L24.9450605,12.6702823 C24.9453226,12.6650403 24.9453226,12.6597984 24.9453226,12.6545565 L24.9453226,12.6545565 C24.9453226,12.6540323 24.9453226,12.6535081 24.9453226,12.6529839 L24.9453226,12.6529839 C24.9455847,12.650625 24.9455847,12.648004 24.9455847,12.6453831 L24.9455847,12.6453831 C24.9455847,12.6440726 24.9455847,12.6425 24.9455847,12.6409274 L24.9455847,12.6409274 C24.9455847,12.639879 24.9455847,12.6385685 24.9455847,12.6372581 L24.9455847,12.6372581 C24.9458468,12.6341129 24.9458468,12.6307056 24.9458468,12.6272984 L24.9458468,12.6272984 C24.9458468,12.6265121 24.9458468,12.6257258 24.9458468,12.6249395 L24.9458468,12.6249395 C24.9458468,12.6152419 24.9461089,12.6050202 24.9461089,12.5953226 L24.9461089,12.5953226 C24.9461089,12.5950605 24.9461089,12.5945363 24.9461089,12.5942742 L24.9461089,12.5942742 C24.9461089,12.5900806 24.9461089,12.5851008 24.946371,12.5809073 L24.946371,12.5809073 C24.946371,12.5806452 24.946371,12.580121 24.946371,12.5795968 L24.946371,12.5795968 C24.946371,12.5759274 24.946371,12.5722581 24.946371,12.5685887 L24.946371,12.5685887 C24.946371,12.5622984 24.946371,12.555746 24.9466331,12.5494556 L24.9466331,12.5494556 C24.9466331,12.5489315 24.9466331,12.5484073 24.9466331,12.547621 L24.9466331,12.547621 C24.9466331,12.5402823 24.9466331,12.5329435 24.9466331,12.526129 L24.9466331,12.526129 C24.9466331,12.5182661 24.9466331,12.5106653 24.9466331,12.5030645 L24.9466331,12.5030645 C24.9466331,12.4931048 24.9466331,12.4831452 24.9466331,12.4731855 L24.9466331,12.4731855 C24.9466331,5.58423387 19.3623992,0 12.4734476,0 L12.4734476,0 C5.58475806,0 0,5.58423387 0,12.4731855" id="path-4"></path>
    </defs>
    <g id="Page-1" stroke="none" stroke-width="1" fill="none" fill-rule="evenodd">
        <g id="Artboard" transform="translate(-27.000000, -148.000000)">
            <g id="Group-14" transform="translate(27.000000, 148.000000)">
                <rect id="Rectangle-Copy-11" fill="#111111" x="0" y="0" width="130" height="41" rx="5"></rect>
                <g id="Group-17" transform="translate(8.000000, 8.000000)">
                    <g id="Group-16" transform="translate(36.000000, 4.000000)" fill="#FFFFFF">
                        <g id="Group-15">
                            <path d="M3.63891129,16.6931452 C2.17989799,16.6646661 0.876435787,15.7743355 0.319209837,14.4256212 C-0.238016114,13.076907 0.0569199363,11.5261926 1.0703629,10.4762097 C1.74497729,9.78695759 2.67467085,9.40749083 3.63891129,9.42782258 C4.61747769,9.39786699 5.55631953,9.81566608 6.1891129,10.5627016 L5.57056452,11.1655242 C5.10503187,10.5790711 4.38701229,10.2507501 3.63891129,10.2822581 C2.92339964,10.2654313 2.23212932,10.5419395 1.72560484,11.0475806 C0.683595889,12.1832141 0.683595889,13.9272697 1.72560484,15.0629032 C2.23212932,15.5685444 2.92339964,15.8450525 3.63891129,15.8282258 C4.465505,15.8318698 5.2495318,15.4620095 5.77237903,14.8217742 L6.39354839,15.4429435 C6.06857194,15.8296532 5.66107681,16.138633 5.20100806,16.3471774 C4.71209613,16.5759983 4.17871951,16.6941287 3.63891129,16.6931452 Z" id="Path"></path>
                            <path d="M8.08145161,9.59556452 L8.08145161,11.7866935 L8.0421371,12.4445565 L8.08145161,12.4445565 C8.22958662,12.2010376 8.44052374,12.0018695 8.6921371,11.8679435 C8.96325947,11.7122971 9.27064512,11.6309303 9.58326613,11.6320565 C10.0957423,11.5957551 10.5967239,11.7955685 10.9435484,12.1745968 C11.2680147,12.5904734 11.4292756,13.1106098 11.3969758,13.6370968 L11.3969758,16.546371 L10.5058468,16.546371 L10.5058468,13.7655242 C10.5058468,12.8918683 10.1144489,12.4550403 9.33165323,12.4550403 C8.97743615,12.4493933 8.64204768,12.6141626 8.43004032,12.8979839 C8.19840799,13.1877486 8.07512762,13.5492474 8.08145161,13.9201613 L8.08145161,16.541129 L7.18770161,16.541129 L7.18770161,9.59556452 L8.08145161,9.59556452 Z" id="Path"></path>
                            <path d="M13.3364919,16.5385081 L12.4453629,16.5385081 L12.4453629,11.7866935 L13.3024194,11.7866935 L13.3024194,12.5729839 L13.3417339,12.5729839 C13.4453718,12.2999187 13.6434322,12.0730327 13.9,11.9334677 C14.1444495,11.7729535 14.4281293,11.682321 14.7203629,11.671371 C14.9488543,11.6647359 15.1762909,11.7048717 15.3887097,11.7893145 L15.0479839,12.6227823 C14.8951961,12.5718957 14.7345224,12.5488154 14.5735887,12.5546371 C14.2469901,12.5568586 13.9362149,12.6956145 13.7165323,12.9372984 C13.4613555,13.2076832 13.3262012,13.5696699 13.3417339,13.941129 L13.3364919,16.5385081 Z" id="Path"></path>
                            <path d="M16.091129,12.3528226 C17.0633117,11.3911422 18.6284222,11.3911422 19.6006048,12.3528226 C20.5192552,13.3834746 20.5192552,14.939106 19.6006048,15.9697581 C18.6295961,16.9342904 17.0621377,16.9342904 16.091129,15.9697581 C15.1724787,14.939106 15.1724787,13.3834746 16.091129,12.3528226 L16.091129,12.3528226 Z M16.7542339,15.408871 C17.0383159,15.708436 17.4330209,15.8780947 17.8458669,15.8780947 C18.2587129,15.8780947 18.653418,15.708436 18.9375,15.408871 C19.5529204,14.6919869 19.5529204,13.6332147 18.9375,12.9163306 C18.6541934,12.6153641 18.2591991,12.4447161 17.8458669,12.4447161 C17.4325347,12.4447161 17.0375405,12.6153641 16.7542339,12.9163306 C16.1432209,13.6348412 16.1432209,14.6903605 16.7542339,15.408871 L16.7542339,15.408871 Z" id="Shape" fill-rule="nonzero"></path>
                            <path d="M21.0080645,16.5385081 L21.0080645,11.7866935 L21.8625,11.7866935 L21.8625,12.4445565 L21.8991935,12.4445565 C22.0550241,12.201755 22.2707551,12.0031741 22.5256048,11.8679435 C22.7800509,11.7180593 23.0690422,11.6367805 23.3643145,11.6320565 C24.1016801,11.6320565 24.6022849,11.9352151 24.866129,12.5415323 C25.2126867,11.9593008 25.8479612,11.611054 26.5252016,11.6320565 C27.0104198,11.5978517 27.482782,11.79751 27.796371,12.1693548 C28.1020553,12.5955349 28.2528019,13.1134376 28.2235887,13.6370968 L28.2235887,16.546371 L27.3298387,16.546371 L27.3298387,13.7655242 C27.3639529,13.4055134 27.2712486,13.0448935 27.0677419,12.7459677 C26.8630977,12.5341891 26.5752205,12.4238362 26.2814516,12.4445565 C25.9361029,12.4419403 25.6116192,12.6095738 25.4139113,12.8927419 C25.1860888,13.1786872 25.0622433,13.5335878 25.0627016,13.8991935 L25.0627016,16.5201613 L24.1689516,16.5201613 L24.1689516,13.7655242 C24.2030658,13.4055134 24.1103615,13.0448935 23.9068548,12.7459677 C23.7022106,12.5341891 23.4143334,12.4238362 23.1205645,12.4445565 C22.7752158,12.4419403 22.4507321,12.6095738 22.2530242,12.8927419 C22.0244457,13.1784411 21.8996876,13.5333084 21.8991935,13.8991935 L21.8991935,16.5201613 L21.0080645,16.5385081 Z" id="Path"></path>
                            <path d="M31.4237903,16.6931452 C30.7638407,16.7179643 30.1254174,16.456096 29.6729839,15.975 C29.217453,15.4832877 28.9752559,14.8311461 28.9993952,14.1612903 C28.9866368,13.5065345 29.219456,12.8707229 29.6520161,12.3790323 C30.0691062,11.8902641 30.6844795,11.6158019 31.3268145,11.6320565 C31.964714,11.6055834 32.5823036,11.8593218 33.0173387,12.3266129 C33.4567399,12.8340528 33.6847035,13.4907381 33.6542339,14.1612903 L33.6542339,14.3264113 L29.8905242,14.3264113 C29.8941009,14.7532335 30.0665513,15.161272 30.3701613,15.4612903 C30.6456407,15.7314299 31.0170071,15.8812961 31.4028226,15.8780242 C31.9728307,15.9301567 32.5080778,15.597233 32.7133065,15.0629032 L33.4995968,15.3931452 C33.3395196,15.7698842 33.0736897,16.0921575 32.7342742,16.3209677 C32.3470982,16.5789813 31.8887853,16.7091422 31.4237903,16.6931452 L31.4237903,16.6931452 Z M32.6975806,13.5899194 C32.6702981,13.2920874 32.538449,13.013533 32.3254032,12.803629 C32.0517754,12.5405164 31.6791824,12.4061542 31.3006048,12.4340726 C30.9862158,12.428692 30.6809461,12.539784 30.4435484,12.7459677 C30.1936601,12.9646319 30.018587,13.2561148 29.9429435,13.5794355 L32.6975806,13.5899194 Z" id="Shape" fill-rule="nonzero"></path>
                            <polygon id="Path" points="44.4578629 9.59556452 42.6048387 16.5385081 41.6927419 16.5385081 40.1987903 11.9596774 40.1594758 11.9596774 38.6681452 16.5385081 37.7560484 16.5385081 35.8243952 9.59556452 36.7574597 9.59556452 38.2199597 15.0550403 38.2592742 15.0550403 39.7741935 10.5260081 40.6076613 10.5260081 42.1094758 15.0550403 42.1330645 15.0550403 43.5195565 9.59556452"></polygon>
                            <path d="M46.7747984,16.6931452 C46.1148488,16.7179643 45.4764255,16.456096 45.0239919,15.975 C44.568461,15.4832877 44.3262639,14.8311461 44.3504032,14.1612903 C44.3368229,13.5059274 44.5707925,12.8695301 45.0056452,12.3790323 C45.4212227,11.8897468 46.0360931,11.615079 46.6778226,11.6320565 C47.3157221,11.6055834 47.9333117,11.8593218 48.3683468,12.3266129 C48.807748,12.8340528 49.0357116,13.4907381 49.0052419,14.1612903 L49.0052419,14.3264113 L45.2415323,14.3264113 C45.2451089,14.7532335 45.4175594,15.161272 45.7211694,15.4612903 C45.9969676,15.7309423 46.368124,15.8807237 46.7538306,15.8780242 C47.3240548,15.9310703 47.8598099,15.5978307 48.0643145,15.0629032 L48.8506048,15.3931452 C48.6886636,15.7695216 48.4221384,16.0915349 48.0826613,16.3209677 C47.6963696,16.5787768 47.2389505,16.7089442 46.7747984,16.6931452 Z M48.0538306,13.5899194 C48.0265481,13.2920874 47.894699,13.013533 47.6816532,12.803629 C47.4080254,12.5405164 47.0354324,12.4061542 46.6568548,12.4340726 C46.3420765,12.432729 46.0378574,12.547511 45.8024194,12.7564516 C45.5525311,12.9751158 45.377458,13.2665987 45.3018145,13.5899194 L48.0538306,13.5899194 Z" id="Shape" fill-rule="nonzero"></path>
                            <path d="M52.33125,16.6931452 C51.9918652,16.698072 51.6566562,16.6178741 51.35625,16.459879 C51.0926717,16.3277961 50.8698448,16.1267084 50.7114919,15.8780242 L50.6721774,15.8780242 L50.6721774,16.5385081 L49.8203629,16.5385081 L49.8203629,9.59556452 L50.7114919,9.59556452 L50.7114919,11.7866935 L50.6721774,12.4445565 L50.7114919,12.4445565 C50.871319,12.1971227 51.0937647,11.996379 51.35625,11.8627016 C51.6568543,11.7055105 51.9920778,11.6262103 52.33125,11.6320565 C52.9438137,11.6292812 53.526958,11.8945209 53.9274194,12.3580645 C54.8185206,13.3960751 54.8185206,14.9291265 53.9274194,15.9671371 C53.526958,16.4306807 52.9438137,16.6959204 52.33125,16.6931452 Z M52.1844758,15.8780242 C52.5907861,15.8813956 52.9790914,15.7106176 53.2512097,15.408871 C53.8483877,14.6853308 53.8483877,13.6398708 53.2512097,12.9163306 C52.9766961,12.6170964 52.5892426,12.4467455 52.1831653,12.4467455 C51.777088,12.4467455 51.3896345,12.6170964 51.115121,12.9163306 C50.5244548,13.6461325 50.5244548,14.6895529 51.115121,15.4193548 C51.3897361,15.7179109 51.7788862,15.8848258 52.1844758,15.8780242 Z" id="Shape" fill-rule="nonzero"></path>
                            <path d="M59.3606855,16.6931452 C58.8287568,16.6837938 58.312617,16.5108321 57.8824597,16.1977823 C57.4026252,15.872359 57.0644023,15.3767359 56.9362903,14.8112903 L57.7514113,14.4810484 C57.8448423,14.8578705 58.0537896,15.1960351 58.3489919,15.4481855 C58.6252678,15.7007044 58.9863965,15.8401038 59.3606855,15.8387097 C59.7170635,15.8495585 60.0670911,15.742708 60.3566532,15.5346774 C60.6232477,15.3444095 60.7775475,15.0338445 60.7681452,14.7064516 C60.7851649,14.3577344 60.6317124,14.0224847 60.3566532,13.8074597 C59.9554768,13.5403124 59.5125813,13.3418952 59.0461694,13.2203629 C58.529048,13.0812864 58.0509896,12.8247672 57.6491935,12.4707661 C57.3321189,12.1619066 57.1598927,11.73372 57.1747984,11.2913306 C57.17165,10.7890156 57.3879986,10.3103682 57.7671371,9.98084677 C58.1926871,9.60674308 58.7476743,9.41390856 59.3135081,9.44354839 C59.8258094,9.42090593 60.3302662,9.57548259 60.7419355,9.88125 C61.0729452,10.12314 61.3232411,10.4593038 61.4600806,10.8457661 L60.6449597,11.183871 C60.5699753,10.9406147 60.4205505,10.7270197 60.2177419,10.5731855 C59.6893188,10.1959401 58.9796328,10.1959401 58.4512097,10.5731855 C58.2231848,10.7389714 58.0886367,11.0041676 58.0895161,11.2860887 C58.0888475,11.5452739 58.2126694,11.7890176 58.422379,11.9413306 C58.7207398,12.1568713 59.0541553,12.3191453 59.4078629,12.4209677 C59.6991424,12.5119128 59.9852518,12.6186569 60.2649194,12.7407258 C60.5112666,12.8543199 60.7456894,12.992164 60.9647177,13.1522177 C61.1917749,13.3176104 61.3723238,13.5387828 61.4889113,13.7943548 C61.6143873,14.0725066 61.6761728,14.3751657 61.6697581,14.6802419 C61.6747163,14.9934115 61.6027167,15.3030096 61.4600806,15.5818548 C61.3319742,15.8356855 61.1417299,16.0529788 60.9070565,16.2135081 C60.4473068,16.5239477 59.9049456,16.6892127 59.3502016,16.6879032 L59.3606855,16.6931452 Z" id="Path"></path>
                            <path d="M64.4243952,16.6145161 C64.0068325,16.6642202 63.5894161,16.5206312 63.2907968,16.2245642 C62.9921776,15.9284973 62.8450109,15.5123288 62.891129,15.0943548 L62.891129,12.6018145 L62.0524194,12.6018145 L62.0524194,11.7866935 L62.8858871,11.7866935 L62.8858871,10.3320565 L63.7796371,10.3320565 L63.7796371,11.7866935 L64.9433468,11.7866935 L64.9433468,12.6018145 L63.7796371,12.6018145 L63.7796371,15.0262097 C63.7796371,15.5504032 63.9919355,15.8125 64.4191532,15.8125 C64.5587197,15.8166722 64.6974725,15.7898168 64.8254032,15.733871 L65.1372984,16.4991935 C64.9097785,16.5849647 64.6673531,16.6241805 64.4243952,16.6145161 L64.4243952,16.6145161 Z" id="Path"></path>
                            <path d="M66.1699597,12.3528226 C67.1421424,11.3911422 68.7072528,11.3911422 69.6794355,12.3528226 C70.5980858,13.3834746 70.5980858,14.939106 69.6794355,15.9697581 C68.7084268,16.9342904 67.1409684,16.9342904 66.1699597,15.9697581 C65.2513093,14.939106 65.2513093,13.3834746 66.1699597,12.3528226 L66.1699597,12.3528226 Z M66.8330645,15.408871 C67.1171465,15.708436 67.5118516,15.8780947 67.9246976,15.8780947 C68.3375436,15.8780947 68.7322487,15.708436 69.0163306,15.408871 C69.6317511,14.6919869 69.6317511,13.6332147 69.0163306,12.9163306 C68.733024,12.6153641 68.3380298,12.4447161 67.9246976,12.4447161 C67.5113654,12.4447161 67.1163712,12.6153641 66.8330645,12.9163306 C66.2220515,13.6348412 66.2220515,14.6903605 66.8330645,15.408871 L66.8330645,15.408871 Z" id="Shape" fill-rule="nonzero"></path>
                            <path d="M71.9780242,16.5385081 L71.0868952,16.5385081 L71.0868952,11.7866935 L71.9387097,11.7866935 L71.9387097,12.5729839 L71.9780242,12.5729839 C72.0786743,12.2955192 72.2772015,12.0643701 72.5362903,11.9229839 C72.7798113,11.7625596 73.0626273,11.6719134 73.3540323,11.6608871 C73.5833958,11.6539671 73.8117457,11.6941067 74.025,11.7788306 L73.6842742,12.6122984 C73.5314346,12.5616314 73.3708006,12.5385569 73.209879,12.5441532 C72.8825047,12.5462845 72.5708847,12.6849934 72.3502016,12.9268145 C72.0959787,13.1976245 71.9617883,13.5595606 71.9780242,13.9306452 L71.9780242,16.5385081 Z" id="Path"></path>
                            <path d="M76.4677419,16.6931452 C75.8079155,16.7172721 75.1697673,16.4555168 74.7169355,15.975 C74.2623944,15.4826795 74.0203544,14.8309607 74.0433468,14.1612903 C74.0297664,13.5059274 74.263736,12.8695301 74.6985887,12.3790323 C75.1141663,11.8897468 75.7290367,11.615079 76.3707661,11.6320565 C77.0093795,11.6058715 77.6276572,11.8594993 78.0639113,12.3266129 C78.5023668,12.8344485 78.7293774,13.4910909 78.6981855,14.1612903 L78.6981855,14.3264113 L74.9370968,14.3264113 C74.936219,14.7577315 75.1102206,15.1709854 75.4193548,15.4717742 C75.6945123,15.7424051 76.0660914,15.8923571 76.4520161,15.8885081 C77.017816,15.9363376 77.546952,15.6038905 77.7493952,15.0733871 L78.5356855,15.403629 C78.37471,15.7798218 78.1090712,16.1018633 77.7703629,16.3314516 C77.3839576,16.5837123 76.9288906,16.7100689 76.4677419,16.6931452 Z M77.7467742,13.5899194 C77.7208425,13.29172 77.588783,13.0127212 77.3745968,12.803629 C77.1017754,12.540933 76.7301558,12.4065782 76.3524194,12.4340726 C76.0373388,12.4292782 75.73145,12.5402562 75.4927419,12.7459677 C75.2429923,12.9643112 75.0686876,13.2560423 74.9947581,13.5794355 L77.7467742,13.5899194 Z" id="Shape" fill-rule="nonzero"></path>
                            <path d="M0.548790323,5.75846774 L2.53024194,0.516532258 L3.29294355,0.516532258 L5.27439516,5.75846774 L4.52479839,5.75846774 L4.01895161,4.33528226 L1.80947581,4.33528226 L1.28528226,5.75846774 L0.548790323,5.75846774 Z M2.03225806,3.70362903 L3.77782258,3.70362903 L2.92076613,1.33165323 L2.89193548,1.33165323 L2.03225806,3.70362903 Z" id="Shape" fill-rule="nonzero"></path>
                            <polygon id="Path" points="6.48790323 5.75846774 5.0358871 2.1625 5.76975806 2.1625 6.81814516 4.95120968 6.83125 4.95120968 7.90322581 2.1625 8.62399194 2.1625 7.15625 5.75846774"></polygon>
                            <path d="M10.1258065,5.87641129 C9.77633727,5.88790892 9.43486527,5.77035299 9.16653226,5.54616935 C8.91078804,5.32879329 8.76879954,5.00617997 8.78125,4.67076613 C8.76793669,4.30672816 8.93951012,3.96062313 9.23729839,3.75080645 C9.56454576,3.51946069 9.95854267,3.40162984 10.3590726,3.41532258 C10.6985722,3.40217165 11.0356049,3.4780718 11.3366935,3.63548387 L11.3366935,3.53064516 C11.3480229,3.29075975 11.2519589,3.05828469 11.0745968,2.89637097 C10.8891613,2.73663297 10.6509201,2.65161357 10.40625,2.6578629 C10.22236,2.65739267 10.041581,2.70529911 9.88205645,2.79677419 C9.73075261,2.88051162 9.61519501,3.01657138 9.55705645,3.17943548 L8.93850806,2.91733871 C9.04399608,2.67620389 9.21463351,2.46926063 9.43125,2.31975806 C9.71715455,2.12871974 10.0577942,2.03665499 10.4010081,2.05766129 C10.8193128,2.04249918 11.2277647,2.18676888 11.54375,2.46129032 C11.8511884,2.75196852 12.0151149,3.16322256 11.9919355,3.58568548 L11.9919355,5.75846774 L11.3366935,5.75846774 L11.3366935,5.25 L11.3052419,5.25 C11.0559574,5.65848669 10.6038349,5.898614 10.1258065,5.87641129 L10.1258065,5.87641129 Z M10.2358871,5.25 C10.5194264,5.24899356 10.7913084,5.13704216 10.9933468,4.93810484 C11.2103808,4.75492793 11.3359326,4.48561464 11.3366935,4.2016129 C11.0858439,4.02634228 10.782188,3.94302206 10.4770161,3.96572581 C10.2121276,3.94732259 9.94929876,4.02347795 9.73528226,4.18064516 C9.58059102,4.29990493 9.4888834,4.48332018 9.48629032,4.67862903 C9.48346405,4.84873773 9.56999945,5.00788328 9.71431452,5.09798387 C9.8686236,5.200612 10.0506022,5.25365099 10.2358871,5.25 Z" id="Shape" fill-rule="nonzero"></path>
                            <path d="M13.6725137,1.25826613 C13.4735016,1.41970996 13.1608833,1.44503263 12.9261139,1.31872592 C12.6913444,1.19241921 12.5999325,0.949726937 12.7078609,0.739279786 C12.8157893,0.528832635 13.0929424,0.409352436 13.3695849,0.454011787 C13.6462274,0.498671139 13.8451667,0.695008581 13.8445675,0.922782258 C13.8476002,1.04907771 13.7852414,1.17066962 13.6725137,1.25826613 L13.6725137,1.25826613 Z M13.6725137,5.75846774 L12.8382149,5.75846774 L12.8382149,2.1625 L13.6725137,2.1625 L13.6725137,5.75846774 Z" id="Shape" fill-rule="nonzero"></path>
                            <polygon id="Path" points="15.034879 5.75846774 14.3508065 5.75846774 14.3508065 0.516532258 15.0270161 0.516532258"></polygon>
                            <path d="M16.9560484,5.87641129 C16.6074354,5.88750644 16.2669243,5.76996013 15.9993952,5.54616935 C15.7436509,5.32879329 15.6016624,5.00617997 15.6141129,4.67076613 C15.6007996,4.30672816 15.772373,3.96062313 16.0701613,3.75080645 C16.3974087,3.51946069 16.7914056,3.40162984 17.1919355,3.41532258 C17.5306227,3.40189546 17.8668806,3.47782466 18.1669355,3.63548387 L18.1669355,3.53064516 C18.1786359,3.29069531 18.0825091,3.05806839 17.9048387,2.89637097 C17.7194033,2.73663297 17.4811621,2.65161357 17.2364919,2.6578629 C17.0526019,2.65739267 16.8718229,2.70529911 16.7122984,2.79677419 C16.5609207,2.88113812 16.4447135,3.01686813 16.3846774,3.17943548 L15.76875,2.91733871 C15.8732677,2.67560916 16.0441067,2.46842146 16.2614919,2.31975806 C16.5466685,2.12927477 16.8862954,2.03723496 17.228629,2.05766129 C17.6477472,2.04235538 18.0570688,2.18660143 18.3739919,2.46129032 C18.6756538,2.754802 18.8336825,3.1656766 18.8064516,3.58568548 L18.8064516,5.75846774 L18.1590726,5.75846774 L18.1590726,5.25 L18.1302419,5.25 C17.8795208,5.65428611 17.4314668,5.89331493 16.9560484,5.87641129 L16.9560484,5.87641129 Z M17.066129,5.2578629 C17.3504656,5.25698315 17.6232102,5.14506385 17.8262097,4.94596774 C18.0425575,4.76251632 18.1671838,4.49313184 18.1669355,4.20947581 C17.9174572,4.03339611 17.6143217,3.94996432 17.309879,3.97358871 C17.044966,3.95495519 16.7820593,4.03113312 16.5681452,4.18850806 C16.407578,4.30426607 16.3105603,4.48859958 16.3060484,4.68649194 C16.3032221,4.85660063 16.3897575,5.01574618 16.5340726,5.10584677 C16.6920264,5.20826486 16.8780767,5.25867258 17.066129,5.25 L17.066129,5.2578629 Z" id="Shape" fill-rule="nonzero"></path>
                            <path d="M21.4772177,5.87641129 C21.2206248,5.88000823 20.9672842,5.81870161 20.7407258,5.69818548 C20.5398175,5.59687513 20.3710324,5.44170175 20.2532258,5.25 L20.2217742,5.25 L20.2217742,5.75060484 L19.5770161,5.75060484 L19.5770161,0.508669355 L20.2532258,0.508669355 L20.2532258,2.16774194 L20.2217742,2.66572581 L20.2532258,2.66572581 C20.3736676,2.47820255 20.541953,2.32620286 20.7407258,2.22540323 C20.967524,2.105797 21.2208515,2.04539507 21.4772177,2.04979839 C21.9396467,2.04746084 22.3796652,2.2487765 22.6802419,2.60020161 C23.3543877,3.38574393 23.3543877,4.54570769 22.6802419,5.33125 C22.3786789,5.6807247 21.9388014,5.88005915 21.4772177,5.87641129 L21.4772177,5.87641129 Z M21.3671371,5.25 C21.6744386,5.25291299 21.9682829,5.12411759 22.1743952,4.89616935 C22.6250221,4.34784228 22.6250221,3.55739966 22.1743952,3.00907258 C21.9664293,2.78279076 21.6731591,2.65400772 21.3658266,2.65400772 C21.0584941,2.65400772 20.765224,2.78279076 20.5572581,3.00907258 C20.1098795,3.56052666 20.1098795,4.34995721 20.5572581,4.90141129 C20.7645217,5.1286741 21.0596078,5.25568523 21.3671371,5.25 Z" id="Shape" fill-rule="nonzero"></path>
                            <polygon id="Path" points="24.4415323 5.75846774 23.7679435 5.75846774 23.7679435 0.516532258 24.4415323 0.516532258"></polygon>
                            <path d="M26.8580645,5.87641129 C26.3579471,5.89509211 25.8742496,5.69625992 25.5318548,5.33125 C25.1878378,4.95950096 25.0050225,4.46665363 25.0233871,3.96048387 C25.0129079,3.46426951 25.1897772,2.98232425 25.51875,2.61068548 C25.8333698,2.24020571 26.2987917,2.03206672 26.7846774,2.04455645 C27.2671633,2.02384062 27.7345351,2.21538644 28.0637097,2.56875 C28.3982,2.95398762 28.5709741,3.45353001 28.5459677,3.96310484 L28.5459677,4.08629032 L25.6969758,4.08629032 C25.7000537,4.40973012 25.8310325,4.71880239 26.0612903,4.94596774 C26.2709608,5.15146227 26.5540299,5.26468994 26.8475806,5.26048387 C27.2758441,5.29711122 27.6766619,5.04593205 27.8304435,4.64455645 L28.4332661,4.90665323 C28.3111894,5.19127964 28.1101962,5.43501805 27.8540323,5.60907258 C27.5581322,5.80006358 27.2098322,5.89355462 26.8580645,5.87641129 Z M27.8252016,3.51754032 C27.8042581,3.29424138 27.7038046,3.0858934 27.5421371,2.93044355 C27.3362914,2.73082382 27.0549051,2.62876167 26.7689516,2.65 C26.5306191,2.64584001 26.2991454,2.72984256 26.1189516,2.8858871 C25.9299867,3.0516231 25.7979479,3.27260473 25.7415323,3.51754032 L27.8252016,3.51754032 Z" id="Shape" fill-rule="nonzero"></path>
                            <path d="M31.7044145,1.25826613 C31.4741196,1.44499628 31.1000113,1.445583 30.8688203,1.25957661 C30.6376293,1.07357023 30.6369029,0.771407566 30.8671978,0.584677419 C31.0988062,0.398762902 31.4728061,0.398762902 31.7044145,0.584677419 C31.9342204,0.770847232 31.9342204,1.07209632 31.7044145,1.25826613 L31.7044145,1.25826613 Z M31.7044145,5.75846774 L30.8671978,5.75846774 L30.8671978,2.1625 L31.7044145,2.1625 L31.7044145,5.75846774 Z" id="Shape" fill-rule="nonzero"></path>
                            <path d="M33.0356855,2.1625 L33.0356855,2.66048387 L33.0645161,2.66048387 C33.176709,2.47596708 33.3371011,2.32554284 33.5284274,2.22540323 C33.7328994,2.10634043 33.9654061,2.04391647 34.2020161,2.04455645 C34.5868654,2.01888619 34.9623573,2.17043433 35.2215726,2.45604839 C35.4704895,2.767193 35.596411,3.15894871 35.5754032,3.55685484 L35.5754032,5.75846774 L34.8991935,5.75846774 L34.8991935,3.66169355 C34.8991935,2.99596774 34.6030242,2.66310484 34.0106855,2.66310484 C33.7427216,2.65848081 33.4889817,2.78339887 33.3292339,2.99858871 C33.1522963,3.22180316 33.0595157,3.5001449 33.0671371,3.78487903 L33.0671371,5.77419355 L32.3935484,5.77419355 L32.3935484,2.1625 L33.0356855,2.1625 Z" id="Path"></path>
                            <path d="M39.5383065,5.81612903 C39.222605,5.85200486 38.9076672,5.74277252 38.6819792,5.51912232 C38.4562912,5.29547212 38.3442068,4.98153807 38.3772177,4.66552419 L38.3772177,2.77842742 L37.7455645,2.77842742 L37.7455645,2.1625 L38.3772177,2.1625 L38.3772177,1.05645161 L39.0534274,1.05645161 L39.0534274,2.15725806 L39.9340726,2.15725806 L39.9340726,2.77318548 L39.0534274,2.77318548 L39.0534274,4.6078629 C39.0534274,4.9983871 39.2159274,5.19495968 39.5383065,5.19495968 C39.643528,5.1986191 39.7482539,5.17892706 39.8449597,5.13729839 L40.0808468,5.71653226 C39.9085561,5.78594112 39.7240161,5.81981803 39.5383065,5.81612903 L39.5383065,5.81612903 Z" id="Path"></path>
                            <path d="M41.2917339,0.503427419 L41.2917339,2.1625 L41.2629032,2.66048387 L41.2917339,2.66048387 C41.402898,2.47606717 41.5624273,2.32560201 41.7530242,2.22540323 C41.9583129,2.10600799 42.1917518,2.04357666 42.4292339,2.04455645 C42.8122298,2.02090279 43.1852831,2.17224482 43.4435484,2.45604839 C43.6917467,2.76744728 43.8167511,3.15925204 43.7947581,3.55685484 L43.7947581,5.75846774 L43.1211694,5.75846774 L43.1211694,3.66169355 C43.1211694,2.99596774 42.825,2.66310484 42.2326613,2.66310484 C41.9646974,2.65848081 41.7109576,2.78339887 41.5512097,2.99858871 C41.3730576,3.22114412 41.2801245,3.49994347 41.2891129,3.78487903 L41.2891129,5.77419355 L40.6129032,5.77419355 L40.6129032,0.532258065 L41.2917339,0.503427419 Z" id="Path"></path>
                            <path d="M46.2217742,5.87641129 C45.7224965,5.89467275 45.2397709,5.69584716 44.8981855,5.33125 C44.5534638,4.95976434 44.3697277,4.46697467 44.3870968,3.96048387 C44.3766176,3.46426951 44.5534868,2.98232425 44.8824597,2.61068548 C45.1970795,2.24020571 45.6625014,2.03206672 46.1483871,2.04455645 C46.6317111,2.02341975 47.1000558,2.21497176 47.4300403,2.56875 C47.759404,2.95516707 47.9274018,3.45352937 47.8991935,3.96048387 L47.8991935,4.08366935 L45.0633065,4.08366935 C45.0652319,4.40734791 45.19639,4.71684342 45.427621,4.94334677 C45.6372914,5.14884131 45.9203606,5.26206897 46.2139113,5.2578629 C46.6421748,5.29449025 47.0429926,5.04331109 47.1967742,4.64193548 L47.7995968,4.90403226 C47.6773174,5.18930831 47.4752756,5.43321455 47.2177419,5.60645161 C46.9224402,5.79901996 46.5739019,5.89349218 46.2217742,5.87641129 Z M47.1915323,3.51754032 C47.168161,3.29492416 47.0680892,3.08736766 46.9084677,2.93044355 C46.6991398,2.72784582 46.412468,2.62559956 46.1221774,2.65 C45.8838449,2.64584001 45.6523712,2.72984256 45.4721774,2.8858871 C45.2832125,3.0516231 45.1511737,3.27260473 45.0947581,3.51754032 L47.1915323,3.51754032 Z" id="Shape" fill-rule="nonzero"></path>
                        </g>
                    </g>
                    <g id="Group" transform="translate(0.028226, 0.076613)">
                        <mask id="mask-3" fill="white">
                            <use xlink:href="#path-2"></use>
                        </mask>
                        <use id="Shape" fill="url(#radialGradient-1)" fill-rule="nonzero" xlink:href="#path-2"></use>
                        <polygon id="Path" fill="#EEEEEE" mask="url(#mask-3)" points="0.233266129 0.0183467742 29.1215726 0.0183467742 29.1215726 24.9647177 0.233266129 24.9647177"></polygon>
                        <polygon id="Path" fill-opacity="0.05" fill="#212121" mask="url(#mask-3)" points="0.233266129 0.0183467742 29.1215726 0.0183467742 29.1215726 12.4915323 0.233266129 12.4915323"></polygon>
                        <path d="M17.958871,5.27076613 L11.4064516,5.27076613 C10.7123181,5.27201663 10.1376147,4.73179541 10.0959677,4.03891129 C10.0933614,4.06680754 10.0933614,4.09488601 10.0959677,4.12278226 C10.0959677,4.84654251 10.6826914,5.43326613 11.4064516,5.43326613 L17.958871,5.43326613 C18.6826312,5.43326613 19.2693548,4.84654251 19.2693548,4.12278226 C19.2719611,4.09488601 19.2719611,4.06680754 19.2693548,4.03891129 C19.2277079,4.73179541 18.6530045,5.27201663 17.958871,5.27076613 Z M0.233266129,0.0288306452 L0.233266129,0.193951613 L29.1215726,0.193951613 L29.1215726,0.0288306452 L0.233266129,0.0288306452 Z" id="Shape" fill-opacity="0.02" fill="#212121" fill-rule="nonzero" mask="url(#mask-3)"></path>
                        <g mask="url(#mask-3)">
                            <g transform="translate(2.096774, 11.008065)">
                                <mask id="mask-5" fill="white">
                                    <use xlink:href="#path-4"></use>
                                </mask>
                                <use id="Clip-18" stroke="none" fill="#FF0000" fill-rule="evenodd" xlink:href="#path-4"></use>
                                <path d="M2.09677419,-0.484879032 L2.09677419,14.8215726 L7.66895161,14.8215726 L12.5806452,6.31653226 L25.0538306,6.31653226 L25.0538306,-0.484879032 L2.09677419,-0.484879032 Z M2.09677419,-0.484879032 L2.09677419,14.8215726 L7.66895161,14.8215726 L12.5806452,6.31653226 L25.0538306,6.31653226 L25.0538306,-0.484879032 L2.09677419,-0.484879032 Z" id="Shape" stroke="none" fill="#DB4437" fill-rule="nonzero" mask="url(#mask-5)"></path>
                                <path d="M-0.154637097,24.4614919 L11.7183468,24.4614919 L17.222379,18.9574597 L17.222379,14.8241935 L7.40685484,14.8241935 L-0.154637097,1.85302419 L-0.154637097,24.4614919 Z M-0.154637097,24.4614919 L11.7183468,24.4614919 L17.222379,18.9574597 L17.222379,14.8241935 L7.40685484,14.8241935 L-0.154637097,1.85302419 L-0.154637097,24.4614919 Z" id="Shape" stroke="none" fill="#0F9D58" fill-rule="nonzero" mask="url(#mask-5)"></path>
                                <path d="M12.5806452,6.31653226 L17.4923387,14.8215726 L11.9883065,24.4614919 L25.0616935,24.4614919 L25.0616935,6.31653226 L12.5806452,6.31653226 Z M12.5806452,6.31653226 L17.4923387,14.8215726 L11.9883065,24.4614919 L25.0616935,24.4614919 L25.0616935,6.31653226 L12.5806452,6.31653226 Z" id="Shape" stroke="none" fill="#FFCD40" fill-rule="nonzero" mask="url(#mask-5)"></path>
                                <circle id="Oval" stroke="none" fill="#F1F1F1" fill-rule="evenodd" mask="url(#mask-5)" cx="12.5806452" cy="11.9883065" r="5.67177419"></circle>
                                <circle id="Oval" stroke="none" fill="#4285F4" fill-rule="evenodd" mask="url(#mask-5)" cx="12.5806452" cy="11.9883065" r="4.53689516"></circle>
                            </g>
                        </g>
                        <path d="M0.233266129,0.0183467742 L0.233266129,22.996371 C0.237584578,24.0826874 1.11791268,24.9618448 2.20423387,24.9647177 L27.1506048,24.9647177 C28.236926,24.9618448 29.1172541,24.0826874 29.1215726,22.996371 L29.1215726,0.0183467742 L0.233266129,0.0183467742 Z M17.958871,5.26028226 L11.4064516,5.26028226 C10.6826914,5.26028224 10.0959678,4.67355863 10.0959678,3.94979839 C10.0959678,3.22603815 10.6826914,2.63931454 11.4064516,2.63931452 L17.958871,2.63931452 C18.4270618,2.6393145 18.8596879,2.88909131 19.0937833,3.29455644 C19.3278787,3.70002157 19.3278787,4.19957521 19.0937833,4.60504033 C18.8596879,5.01050546 18.4270618,5.26028227 17.958871,5.26028226 Z" id="Shape" fill="url(#radialGradient-1)" fill-rule="nonzero" mask="url(#mask-3)"></path>
                        <polygon id="Path" fill-opacity="0.02" fill="#212121" mask="url(#mask-3)" points="0.233266129 12.3185484 29.1215726 12.3185484 29.1215726 12.4810484 0.233266129 12.4810484"></polygon>
                        <polygon id="Path" fill-opacity="0.05" fill="#FFFFFF" mask="url(#mask-3)" points="0.233266129 12.4915323 29.1215726 12.4915323 29.1215726 12.6566532 0.233266129 12.6566532"></polygon>
                        <path d="M11.3959677,2.64455645 L17.9483871,2.64455645 C18.6425206,2.64330595 19.217224,3.18352717 19.258871,3.87641129 C19.258871,3.84758065 19.258871,3.82137097 19.258871,3.79254032 C19.258871,3.44497839 19.1208025,3.11165169 18.8750391,2.86588829 C18.6292757,2.62012489 18.295949,2.48205645 17.9483871,2.48205645 L11.3959677,2.48205645 C10.6722075,2.48205645 10.0854839,3.06878007 10.0854839,3.79254032 C10.0828776,3.82043657 10.0828776,3.84851504 10.0854839,3.87641129 C10.1271308,3.18352717 10.7018342,2.64330595 11.3959677,2.64455645 Z M27.1506048,24.8022177 L2.20423387,24.8022177 C1.11689377,24.7993374 0.236146515,23.9185901 0.233266129,22.83125 L0.233266129,22.996371 C0.237584578,24.0826874 1.11791268,24.9618448 2.20423387,24.9647177 L27.1506048,24.9647177 C28.236926,24.9618448 29.1172541,24.0826874 29.1215726,22.996371 L29.1215726,22.83125 C29.1186922,23.9185901 28.2379449,24.7993374 27.1506048,24.8022177 L27.1506048,24.8022177 Z" id="Shape" fill-opacity="0.1" fill="#231F20" fill-rule="nonzero" mask="url(#mask-3)"></path>
                    </g>
                </g>
            </g>
        </g>
    </g>
</svg>