<?xml version="1.0" encoding="UTF-8"?>
<svg width="130px" height="41px" viewBox="0 0 130 41" version="1.1" xmlns="http://www.w3.org/2000/svg" xmlns:xlink="http://www.w3.org/1999/xlink">
    <!-- Generator: Sketch 53.2 (72643) - https://sketchapp.com -->
    <title>Group 14</title>
    <desc>Created with Sketch.</desc>
    <g id="Page-1" stroke="none" stroke-width="1" fill="none" fill-rule="evenodd">
        <g id="Artboard" transform="translate(-24.000000, -70.000000)">
            <g id="Group-14" transform="translate(24.000000, 70.000000)">
                <rect id="Rectangle-Copy-11" fill="#111111" x="0" y="0" width="130" height="41" rx="5"></rect>
                <path d="M47,27.74 L47,13.74 L57.66,13.74 L57.66,16.54 L50.08,16.54 L50.08,19.52 L56.76,19.52 L56.76,22.32 L50.08,22.32 L50.08,27.74 L47,27.74 Z M59.86,15.84 L59.86,13.14 L63.06,13.14 L63.06,15.84 L59.86,15.84 Z M59.94,27.74 L59.94,17.02 L62.98,17.02 L62.98,27.74 L59.94,27.74 Z M65.84,27.74 L65.84,17.02 L68.88,17.02 L68.88,19.18 C69.5733368,17.5399918 70.7133254,16.753333 72.3,16.82 L72.3,20 L72.14,20 C71.0999948,20 70.2966695,20.3166635 69.73,20.95 C69.1633305,21.5833365 68.88,22.5266604 68.88,23.78 L68.88,27.74 L65.84,27.74 Z M78.98,27.98 C77.3533252,27.98 76.0133386,27.4633385 74.96,26.43 C73.9066614,25.3966615 73.38,24.0533416 73.38,22.4 C73.38,20.8399922 73.879995,19.5200054 74.88,18.44 C75.880005,17.3599946 77.146659,16.82 78.68,16.82 C80.3733418,16.82 81.6666622,17.3799944 82.56,18.5 C83.4533378,19.6200056 83.9,20.9999918 83.9,22.64 C83.9,22.8000008 83.8866668,23.0666648 83.86,23.44 L76.4,23.44 C76.5466674,24.1200034 76.8466644,24.6399982 77.3,25 C77.7533356,25.3600018 78.3266632,25.54 79.02,25.54 C79.9666714,25.54 80.8333294,25.173337 81.62,24.44 L83.36,25.98 C82.2799946,27.31334 80.8200092,27.98 78.98,27.98 Z M76.36,21.54 L80.94,21.54 C80.8466662,20.8466632 80.6033353,20.2933354 80.21,19.88 C79.8166647,19.4666646 79.3066698,19.26 78.68,19.26 C78.0666636,19.26 77.5566687,19.4633313 77.15,19.87 C76.7433313,20.2766687 76.4800006,20.8333298 76.36,21.54 Z M86.68,27.74 L86.68,19.62 L85.42,19.62 L85.42,17.12 L86.68,17.12 L86.68,16.44 C86.68,15.2799942 86.9666638,14.4133362 87.54,13.84 C88.1000028,13.2799972 88.9199946,13 90,13 C90.8133374,13 91.5333302,13.099999 92.16,13.3 L92.16,15.82 C91.6799976,15.6466658 91.2200022,15.56 90.78,15.56 C90.046663,15.56 89.68,15.9466628 89.68,16.72 L89.68,17.14 L92.14,17.14 L92.14,19.62 L89.72,19.62 L89.72,27.74 L86.68,27.74 Z M103,26.36 C101.893328,27.4400054 100.513342,27.98 98.86,27.98 C97.2066584,27.98 95.8300055,27.4433387 94.73,26.37 C93.6299945,25.2966613 93.08,23.9733412 93.08,22.4 C93.08,20.8399922 93.6366611,19.5200054 94.75,18.44 C95.8633389,17.3599946 97.2466584,16.82 98.9,16.82 C100.553342,16.82 101.929994,17.3566613 103.03,18.43 C104.130005,19.5033387 104.68,20.8266588 104.68,22.4 C104.68,23.9600078 104.120006,25.2799946 103,26.36 Z M98.9,25.36 C99.7400042,25.36 100.413331,25.0766695 100.92,24.51 C101.426669,23.9433305 101.68,23.2400042 101.68,22.4 C101.68,21.5866626 101.416669,20.8900029 100.89,20.31 C100.363331,19.7299971 99.6866708,19.44 98.86,19.44 C98.0199958,19.44 97.3466692,19.7233305 96.84,20.29 C96.3333308,20.8566695 96.08,21.5599958 96.08,22.4 C96.08,23.2133374 96.3433307,23.9099971 96.87,24.49 C97.3966693,25.0700029 98.0733292,25.36 98.9,25.36 Z M105.28,27.74 L109.04,22.3 L105.42,17.02 L108.68,17.02 L110.68,20.14 L112.7,17.02 L115.88,17.02 L112.26,22.24 L116.04,27.74 L112.78,27.74 L110.62,24.4 L108.46,27.74 L105.28,27.74 Z" id="Firefox" fill="#FFFFFF" fill-rule="nonzero"></path>
                <path d="M35.7276888,24.9451983 C36.4773301,23.4910569 37.5867992,20.1673052 36.6272583,17.4964334 C36.6272583,17.5261097 36.6272583,17.5557861 36.657244,17.5854624 C36.657244,17.5557861 36.6272583,17.5261097 36.6272583,17.5261097 C36.6272583,17.5261097 36.4473444,18.0602841 36.2074592,18.891222 C36.1774736,18.7725166 36.1774736,18.6834875 36.1474879,18.5647821 C36.2074592,17.5557861 36.1774736,16.457761 35.967574,15.4190886 C35.6377318,13.7868891 34.3783345,12.3624241 33.6886645,11.9172788 C33.7186502,11.9469551 33.7486358,11.9766315 33.7786215,12.0063078 C33.6886645,11.9469551 33.6586789,11.9172788 33.6586789,11.9172788 C33.6586789,11.9172788 33.6886645,12.0656605 33.7486358,12.3327477 C33.0289802,11.2050463 31.8895254,10.6411955 31.8895254,10.6411955 C31.8895254,10.6411955 31.9195111,10.8192537 31.9794824,11.2347226 C29.7005729,9.21673052 26.7020078,8 23.4035861,8 C20.0451932,8 16.9866567,9.27608323 14.6777616,11.353428 C14.7977042,11.5018098 14.9476325,11.6798679 15.0675751,11.8876024 C15.0675751,11.8876024 15.937159,11.7392206 17.0166424,11.8282497 C18.8757528,10.5224901 21.094691,9.83993396 23.4035861,9.83993396 C26.3721656,9.83993396 29.1608312,10.9973118 31.2598268,13.0746566 C31.3797694,13.193362 31.4697263,13.2823911 31.5896689,13.4010965 C30.9599702,12.9262748 30.210329,12.5404822 29.6406016,12.5108058 C30.810042,13.3714201 32.5192241,15.4784413 32.3393102,19.2176619 C32.0394537,18.5944585 31.6796259,18.1196368 31.2898124,17.7931969 C31.7096115,21.5324175 31.3497837,22.3633555 31.0799129,23.3426751 C31.0199415,22.8975298 30.8700133,22.5414136 30.7500707,22.3336791 C30.7500707,22.3336791 30.720085,23.4910569 29.9404581,25.1826091 C29.3707307,26.4586923 28.7710177,26.8444849 28.5011468,26.7851322 C28.2612616,26.7554559 28.4411755,26.518045 28.3812042,26.3103106 C28.3812042,26.3103106 27.9913908,26.4883687 27.5715917,26.9038377 C27.1817782,27.2896303 26.851936,27.7347756 26.6720221,27.5863938 C26.7919647,27.4676884 26.9119073,27.2896303 27.0018643,27.1115721 C26.851936,27.2006012 26.4621226,27.4973647 25.6225243,27.6160702 C25.2926822,27.6754229 23.8233852,27.9425101 21.8443323,26.9631904 C22.1142031,26.933514 22.5639879,26.8444849 22.8938301,27.0225431 C22.5639879,26.6664268 21.784361,26.7554559 21.2146336,26.5773978 C20.7348632,26.429016 20.0751788,25.7464598 19.715351,25.3903436 C21.2146336,25.7464598 22.8038731,25.4793727 23.7334283,24.8561692 C24.6629835,24.2329658 25.2327109,23.7581441 25.7124813,23.8768495 C26.2222373,23.9955549 26.5520795,23.4910569 26.162266,23.0459116 C25.7724526,22.6007663 24.8428974,22.0072392 23.5835,22.3336791 C22.6839305,22.5710899 21.5744614,23.5504096 19.8952649,22.5414136 C18.4559537,21.7104757 18.4559537,20.9982432 18.4559537,20.5827742 C18.4559537,20.2860107 18.6358676,19.8705417 18.9956954,19.6924836 C19.1756093,19.7518363 19.2955519,19.811189 19.2955519,19.811189 C19.2955519,19.811189 19.2055949,19.6924836 19.1456236,19.6034545 C19.1456236,19.6034545 19.1756093,19.6034545 19.1756093,19.6034545 C19.3255375,19.6628072 19.6853654,19.7815126 19.8352936,19.8705417 C20.1051645,19.9892471 20.1951214,20.1079525 20.1951214,20.1079525 C20.1951214,20.1079525 20.2550927,20.0782762 20.1951214,19.9595708 C20.1651358,19.9002181 20.0751788,19.7518363 19.8652793,19.6331309 C19.9852219,19.6924836 20.1051645,19.7518363 20.2550927,19.811189 C20.2850784,19.6034545 20.3750353,19.39572 20.315064,19.0099274 C20.2850784,18.7428402 20.2850784,18.6834875 20.2251071,18.5944585 C20.1651358,18.5054294 20.2251071,18.475753 20.315064,18.5647821 C20.2850784,18.5054294 20.2550927,18.4460767 20.2251071,18.3570476 C20.2251071,18.3273713 20.2550927,18.3273713 20.2550927,18.2976949 C20.5249636,17.9119023 22.2341457,17.0216117 22.384074,16.9325826 C22.5639879,16.8138772 22.7139161,16.6358191 22.8638444,16.4280846 C23.0437583,16.3093792 23.1637009,15.8642339 23.1936866,15.537794 C23.1936866,15.3894122 22.9238157,15.2410304 22.7439018,15.2113541 C22.6539448,15.1816777 22.3540883,15.122325 22.1142031,15.1816777 C22.1142031,15.1816777 22.1441888,15.1816777 22.1441888,15.2113541 C21.8143466,15.1816777 21.3945475,15.1816777 20.8248201,15.1816777 C20.2550927,15.1816777 19.8952649,14.8552378 19.6553797,14.5584743 C19.6253941,14.4991216 19.5654228,14.4397689 19.5354371,14.3804162 C19.4754658,14.2913871 19.4454802,14.202358 19.4154945,14.1430053 C19.6553797,13.2527147 20.1651358,12.4811295 20.9447627,11.8579261 C21.004734,11.8282497 20.7648488,11.8876024 20.7948345,11.8579261 C20.8548058,11.7985733 21.1846479,11.6501916 21.2446192,11.6205152 C21.3345762,11.5908389 20.8847914,11.4721334 20.5249636,11.5314862 C20.1651358,11.6205152 20.0751788,11.6501916 19.8952649,11.7392206 C19.9852219,11.6501916 20.2251071,11.5314862 20.1651358,11.5314862 C19.7453367,11.6205152 19.2655662,11.8876024 18.8757528,12.1843659 C18.8757528,12.1546896 18.8757528,12.1250132 18.8757528,12.0656605 C18.6958389,12.1546896 18.2160685,12.5108058 18.0961258,12.777893 C18.0961258,12.7185403 18.0961258,12.688864 18.0961258,12.6295113 C17.9761832,12.7482167 17.826255,12.8965985 17.7063124,13.0449802 C16.5068863,12.7482167 15.4573885,12.8075694 14.5878046,13.1043329 C14.2879481,12.8669221 13.868149,12.4514531 13.5383069,11.9469551 C13.5083212,11.8876024 13.5083212,12.0656605 13.4783355,12.0063078 C13.2984216,11.6798679 13.1185077,11.1456936 13.0885221,10.7005482 C13.0885221,10.6708719 13.0885221,10.6115192 13.0885221,10.5818428 C13.0885221,10.5818428 12.9385938,10.6708719 12.7586799,10.9676354 C12.668723,11.0863408 12.6087517,11.264399 12.5487804,11.4721334 C12.5187947,11.5908389 12.4888091,11.6501916 12.4588234,11.7392206 C12.4588234,11.768897 12.4888091,11.5314862 12.4588234,11.5314862 C12.4288378,11.6205152 12.3088951,11.7392206 12.2489238,11.9172788 C12.2189382,12.0359842 12.1589669,12.0953369 12.1589669,12.2437187 C12.1589669,12.2140423 12.1589669,12.0656605 12.1289812,12.0953369 C12.0390243,12.3624241 11.9490673,12.6591876 11.8591104,12.9856275 C11.7991391,13.2230383 11.7391678,13.5198019 11.7091821,13.8165654 C11.6791965,14.1726817 11.6791965,14.5881506 11.7091821,15.0629723 C11.7091821,15.122325 11.7091821,15.2113541 11.7091821,15.2707068 C11.37934,15.7158521 11.1694404,16.1016447 11.1094691,16.2797028 C10.7196556,16.9919353 10.3298422,18.1789895 10,20.0189235 C10,20.0189235 10.2098996,19.3363673 10.6596843,18.5647821 C10.6596843,18.5647821 10.6596843,18.5944585 10.6596843,18.5944585 C10.3298422,19.5737782 10.0599713,21.0872722 10.2098996,23.3723515 C10.2098996,23.2833224 10.2698709,22.7194717 10.4497848,21.9182101 C10.5397417,23.4613806 10.9895265,25.3013145 12.1889525,27.348983 C13.0585364,28.862477 14.1080342,29.9605021 15.2774746,30.8211164 C15.4873742,30.9991745 15.6972737,31.1475563 15.937159,31.3256144 C17.3764702,32.3642868 19.6253941,33.6403701 21.5144901,33.9074573 C20.8548058,33.7293991 20.4350066,33.3436065 20.4350066,33.3436065 C20.4350066,33.3436065 22.7139161,34.055839 24.3931126,33.9964863 C23.8833565,33.9074573 23.7634139,33.6700464 23.7634139,33.6700464 C23.7634139,33.6700464 28.4711612,33.9371336 30.9299846,32.0081706 C31.4697263,31.5927016 31.8295541,31.11788 31.9494967,30.702411 C32.6691524,30.3166184 33.4487793,29.8121204 34.2583919,29.0108588 C35.5777605,27.7050992 35.7276888,26.7257795 35.8776171,25.8058125 C35.8776171,25.8354889 35.8776171,25.8651653 35.8476314,25.8948416 C35.9076027,25.509049 35.8776171,25.1826091 35.7276888,24.9451983 L35.7276888,24.9451983 Z" id="Path" fill="#FFFFFF" fill-rule="nonzero"></path>
            </g>
        </g>
    </g>
</svg>