<?xml version="1.0" encoding="UTF-8"?>
<svg width="130px" height="41px" viewBox="0 0 130 41" version="1.1" xmlns="http://www.w3.org/2000/svg" xmlns:xlink="http://www.w3.org/1999/xlink">
    <!-- Generator: Sketch 53.2 (72643) - https://sketchapp.com -->
    <title>Group 12</title>
    <desc>Created with Sketch.</desc>
    <defs>
        <linearGradient x1="86.2450611%" y1="30.9006403%" x2="-50.1463922%" y2="136.01897%" id="linearGradient-1">
            <stop stop-color="#FF3A44" offset="0%"></stop>
            <stop stop-color="#C31162" offset="100%"></stop>
        </linearGradient>
    </defs>
    <g id="Page-1" stroke="none" stroke-width="1" fill="none" fill-rule="evenodd">
        <g id="Artboard" transform="translate(-28.000000, -83.000000)">
            <g id="Group-12" transform="translate(28.000000, 83.000000)">
                <rect id="Rectangle-Copy-10" fill="#111111" x="0" y="0" width="130" height="41" rx="5"></rect>
                <g id="Group-51" transform="translate(7.000000, 7.000000)">
                    <g id="Group-29" transform="translate(32.000000, 0.000200)">
                        <path d="M6.4184,4.2431 C6.4184,5.0811 6.1704,5.7481 5.6734,6.2461 C5.1084,6.8381 4.3734,7.1341 3.4694,7.1341 C2.6034,7.1341 1.8664,6.8341 1.2614,6.2331 C0.6544,5.6331 0.3524,4.8881 0.3524,4.0001 C0.3524,3.1111 0.6544,2.3671 1.2614,1.7661 C1.8664,1.1661 2.6034,0.8661 3.4694,0.8661 C3.8984,0.8661 4.3104,0.9501 4.7004,1.1171 C5.0914,1.2851 5.4044,1.5081 5.6394,1.7871 L5.1114,2.3151 C4.7144,1.8411 4.1674,1.6031 3.4694,1.6031 C2.8374,1.6031 2.2914,1.8251 1.8304,2.2691 C1.3694,2.7141 1.1394,3.2901 1.1394,4.0001 C1.1394,4.7091 1.3694,5.2861 1.8304,5.7301 C2.2914,6.1751 2.8374,6.3961 3.4694,6.3961 C4.1394,6.3961 4.6974,6.1731 5.1454,5.7261 C5.4354,5.4351 5.6034,5.0311 5.6474,4.5111 L3.4694,4.5111 L3.4694,3.7901 L6.3764,3.7901 C6.4044,3.9471 6.4184,4.0971 6.4184,4.2431" id="Fill-7" fill="#FFFFFF"></path>
                        <path d="M6.4184,4.2431 C6.4184,5.0811 6.1704,5.7481 5.6734,6.2461 C5.1084,6.8381 4.3734,7.1341 3.4694,7.1341 C2.6034,7.1341 1.8664,6.8341 1.2614,6.2331 C0.6544,5.6331 0.3524,4.8881 0.3524,4.0001 C0.3524,3.1111 0.6544,2.3671 1.2614,1.7661 C1.8664,1.1661 2.6034,0.8661 3.4694,0.8661 C3.8984,0.8661 4.3104,0.9501 4.7004,1.1171 C5.0914,1.2851 5.4044,1.5081 5.6394,1.7871 L5.1114,2.3151 C4.7144,1.8411 4.1674,1.6031 3.4694,1.6031 C2.8374,1.6031 2.2914,1.8251 1.8304,2.2691 C1.3694,2.7141 1.1394,3.2901 1.1394,4.0001 C1.1394,4.7091 1.3694,5.2861 1.8304,5.7301 C2.2914,6.1751 2.8374,6.3961 3.4694,6.3961 C4.1394,6.3961 4.6974,6.1731 5.1454,5.7261 C5.4354,5.4351 5.6034,5.0311 5.6474,4.5111 L3.4694,4.5111 L3.4694,3.7901 L6.3764,3.7901 C6.4044,3.9471 6.4184,4.0971 6.4184,4.2431 Z" id="Stroke-9" stroke="#FFFFFF" stroke-width="0.2"></path>
                        <polygon id="Fill-11" fill="#FFFFFF" points="11.0277 1.7372 8.2957 1.7372 8.2957 3.6392 10.7587 3.6392 10.7587 4.3602 8.2957 4.3602 8.2957 6.2622 11.0277 6.2622 11.0277 7.0002 7.5247 7.0002 7.5247 1.0002 11.0277 1.0002"></polygon>
                        <polygon id="Stroke-13" stroke="#FFFFFF" stroke-width="0.2" points="11.0277 1.7372 8.2957 1.7372 8.2957 3.6392 10.7587 3.6392 10.7587 4.3602 8.2957 4.3602 8.2957 6.2622 11.0277 6.2622 11.0277 7.0002 7.5247 7.0002 7.5247 1.0002 11.0277 1.0002"></polygon>
                        <polygon id="Fill-15" fill="#FFFFFF" points="14.2787 6.9999 13.5077 6.9999 13.5077 1.7369 11.8317 1.7369 11.8317 0.9999 15.9547 0.9999 15.9547 1.7369 14.2787 1.7369"></polygon>
                        <polygon id="Stroke-17" stroke="#FFFFFF" stroke-width="0.2" points="14.2787 6.9999 13.5077 6.9999 13.5077 1.7369 11.8317 1.7369 11.8317 0.9999 15.9547 0.9999 15.9547 1.7369 14.2787 1.7369"></polygon>
                        <polygon id="Fill-19" fill="#FFFFFF" points="18.938 7 19.709 7 19.709 1 18.938 1"></polygon>
                        <polygon id="Stroke-21" stroke="#FFFFFF" stroke-width="0.2" points="18.938 7 19.709 7 19.709 1 18.938 1"></polygon>
                        <polygon id="Fill-22" fill="#FFFFFF" points="23.1283 6.9999 22.3573 6.9999 22.3573 1.7369 20.6813 1.7369 20.6813 0.9999 24.8043 0.9999 24.8043 1.7369 23.1283 1.7369"></polygon>
                        <polygon id="Stroke-23" stroke="#FFFFFF" stroke-width="0.2" points="23.1283 6.9999 22.3573 6.9999 22.3573 1.7369 20.6813 1.7369 20.6813 0.9999 24.8043 0.9999 24.8043 1.7369 23.1283 1.7369"></polygon>
                        <path d="M28.7792,5.7221 C29.2232,6.1721 29.7662,6.3961 30.4092,6.3961 C31.0512,6.3961 31.5952,6.1721 32.0392,5.7221 C32.4832,5.2721 32.7062,4.6981 32.7062,4.0001 C32.7062,3.3021 32.4832,2.7271 32.0392,2.2781 C31.5952,1.8281 31.0512,1.6031 30.4092,1.6031 C29.7662,1.6031 29.2232,1.8281 28.7792,2.2781 C28.3362,2.7271 28.1132,3.3021 28.1132,4.0001 C28.1132,4.6981 28.3362,5.2721 28.7792,5.7221 M32.6092,6.2241 C32.0192,6.8311 31.2862,7.1341 30.4092,7.1341 C29.5322,7.1341 28.7992,6.8311 28.2102,6.2241 C27.6202,5.6181 27.3262,4.8771 27.3262,4.0001 C27.3262,3.1231 27.6202,2.3811 28.2102,1.7751 C28.7992,1.1691 29.5322,0.8661 30.4092,0.8661 C31.2812,0.8661 32.0122,1.1701 32.6052,1.7791 C33.1972,2.3881 33.4932,3.1281 33.4932,4.0001 C33.4932,4.8771 33.1982,5.6181 32.6092,6.2241" id="Fill-24" fill="#FFFFFF"></path>
                        <path d="M28.7792,5.7221 C29.2232,6.1721 29.7662,6.3961 30.4092,6.3961 C31.0512,6.3961 31.5952,6.1721 32.0392,5.7221 C32.4832,5.2721 32.7062,4.6981 32.7062,4.0001 C32.7062,3.3021 32.4832,2.7271 32.0392,2.2781 C31.5952,1.8281 31.0512,1.6031 30.4092,1.6031 C29.7662,1.6031 29.2232,1.8281 28.7792,2.2781 C28.3362,2.7271 28.1132,3.3021 28.1132,4.0001 C28.1132,4.6981 28.3362,5.2721 28.7792,5.7221 Z M32.6092,6.2241 C32.0192,6.8311 31.2862,7.1341 30.4092,7.1341 C29.5322,7.1341 28.7992,6.8311 28.2102,6.2241 C27.6202,5.6181 27.3262,4.8771 27.3262,4.0001 C27.3262,3.1231 27.6202,2.3811 28.2102,1.7751 C28.7992,1.1691 29.5322,0.8661 30.4092,0.8661 C31.2812,0.8661 32.0122,1.1701 32.6052,1.7791 C33.1972,2.3881 33.4932,3.1281 33.4932,4.0001 C33.4932,4.8771 33.1982,5.6181 32.6092,6.2241 Z" id="Stroke-25" stroke="#FFFFFF" stroke-width="0.2"></path>
                        <polygon id="Fill-26" fill="#FFFFFF" points="34.5751 6.9999 34.5751 0.9999 35.5131 0.9999 38.4291 5.6669 38.4631 5.6669 38.4291 4.5109 38.4291 0.9999 39.2011 0.9999 39.2011 6.9999 38.3961 6.9999 35.3461 2.1059 35.3121 2.1059 35.3461 3.2629 35.3461 6.9999"></polygon>
                        <polygon id="Stroke-27" stroke="#FFFFFF" stroke-width="0.2" points="34.5751 6.9999 34.5751 0.9999 35.5131 0.9999 38.4291 5.6669 38.4631 5.6669 38.4291 4.5109 38.4291 0.9999 39.2011 0.9999 39.2011 6.9999 38.3961 6.9999 35.3461 2.1059 35.3121 2.1059 35.3461 3.2629 35.3461 6.9999"></polygon>
                        <path d="M65.936,24 L67.801,24 L67.801,11.499 L65.936,11.499 L65.936,24 Z M82.743,16.002 L80.604,21.422 L80.54,21.422 L78.32,16.002 L76.31,16.002 L79.64,23.577 L77.741,27.791 L79.687,27.791 L84.818,16.002 L82.743,16.002 Z M72.16,22.58 C71.55,22.58 70.697,22.274 70.697,21.518 C70.697,20.554 71.759,20.183 72.676,20.183 C73.495,20.183 73.882,20.361 74.38,20.601 C74.235,21.76 73.238,22.58 72.16,22.58 L72.16,22.58 Z M72.386,15.728 C71.035,15.728 69.636,16.324 69.057,17.642 L70.713,18.334 C71.067,17.642 71.726,17.417 72.418,17.417 C73.383,17.417 74.364,17.996 74.38,19.025 L74.38,19.154 C74.042,18.961 73.318,18.672 72.434,18.672 C70.648,18.672 68.831,19.653 68.831,21.486 C68.831,23.159 70.295,24.237 71.935,24.237 C73.189,24.237 73.882,23.674 74.315,23.014 L74.38,23.014 L74.38,23.979 L76.182,23.979 L76.182,19.186 C76.182,16.967 74.524,15.728 72.386,15.728 L72.386,15.728 Z M60.854,17.524 L58.2,17.524 L58.2,13.239 L60.854,13.239 C62.249,13.239 63.041,14.393 63.041,15.381 C63.041,16.35 62.249,17.524 60.854,17.524 L60.854,17.524 Z M60.806,11.498 L56.335,11.498 L56.335,24 L58.2,24 L58.2,19.264 L60.806,19.264 C62.874,19.264 64.907,17.766 64.907,15.381 C64.907,12.996 62.874,11.498 60.806,11.498 L60.806,11.498 Z M36.425,22.582 C35.136,22.582 34.057,21.503 34.057,20.021 C34.057,18.522 35.136,17.427 36.425,17.427 C37.697,17.427 38.696,18.522 38.696,20.021 C38.696,21.503 37.697,22.582 36.425,22.582 L36.425,22.582 Z M38.567,16.702 L38.503,16.702 C38.084,16.203 37.278,15.751 36.264,15.751 C34.137,15.751 32.187,17.62 32.187,20.021 C32.187,22.405 34.137,24.258 36.264,24.258 C37.278,24.258 38.084,23.807 38.503,23.291 L38.567,23.291 L38.567,23.903 C38.567,25.531 37.697,26.4 36.296,26.4 C35.152,26.4 34.443,25.579 34.153,24.886 L32.526,25.563 C32.993,26.69 34.233,28.076 36.296,28.076 C38.487,28.076 40.34,26.787 40.34,23.645 L40.34,16.009 L38.567,16.009 L38.567,16.702 Z M41.629,24 L43.497,24 L43.497,11.499 L41.629,11.499 L41.629,24 Z M46.252,19.876 C46.204,18.232 47.525,17.395 48.475,17.395 C49.217,17.395 49.845,17.766 50.055,18.297 L46.252,19.876 Z M52.052,18.458 C51.697,17.508 50.618,15.751 48.411,15.751 C46.22,15.751 44.399,17.475 44.399,20.005 C44.399,22.389 46.204,24.258 48.62,24.258 C50.569,24.258 51.697,23.066 52.165,22.373 L50.715,21.406 C50.231,22.115 49.571,22.582 48.62,22.582 C47.67,22.582 46.993,22.147 46.559,21.293 L52.245,18.941 L52.052,18.458 Z M6.744,17.057 L6.744,18.861 L11.061,18.861 C10.933,19.876 10.594,20.617 10.079,21.132 C9.45,21.761 8.467,22.454 6.744,22.454 C4.085,22.454 2.007,20.311 2.007,17.653 C2.007,14.995 4.085,12.851 6.744,12.851 C8.178,12.851 9.225,13.415 9.998,14.141 L11.271,12.868 C10.191,11.837 8.758,11.047 6.744,11.047 C3.102,11.047 0.041,14.012 0.041,17.653 C0.041,21.293 3.102,24.258 6.744,24.258 C8.709,24.258 10.191,23.613 11.351,22.405 C12.543,21.213 12.914,19.537 12.914,18.184 C12.914,17.766 12.882,17.379 12.817,17.057 L6.744,17.057 Z M17.822,22.582 C16.534,22.582 15.422,21.519 15.422,20.005 C15.422,18.474 16.534,17.427 17.822,17.427 C19.111,17.427 20.223,18.474 20.223,20.005 C20.223,21.519 19.111,22.582 17.822,22.582 L17.822,22.582 Z M17.822,15.751 C15.47,15.751 13.553,17.54 13.553,20.005 C13.553,22.454 15.47,24.258 17.822,24.258 C20.175,24.258 22.092,22.454 22.092,20.005 C22.092,17.54 20.175,15.751 17.822,15.751 L17.822,15.751 Z M27.136,22.582 C25.847,22.582 24.735,21.519 24.735,20.005 C24.735,18.474 25.847,17.427 27.136,17.427 C28.425,17.427 29.536,18.474 29.536,20.005 C29.536,21.519 28.425,22.582 27.136,22.582 L27.136,22.582 Z M27.136,15.751 C24.784,15.751 22.867,17.54 22.867,20.005 C22.867,22.454 24.784,24.258 27.136,24.258 C29.488,24.258 31.405,22.454 31.405,20.005 C31.405,17.54 29.488,15.751 27.136,15.751 L27.136,15.751 Z" id="Fill-28" fill="#FFFFFF"></path>
                    </g>
                    <g id="Group-32" transform="translate(0.000000, 1.000200)" fill="#00D3FF">
                        <path d="M1.436,0.538 C1.145,0.846 0.973,1.324 0.973,1.943 L0.973,1.943 L0.973,24.059 C0.973,24.679 1.145,25.156 1.436,25.463 L1.436,25.463 L1.509,25.536 L13.899,13.147 L13.899,13.001 L13.899,12.855 L1.509,0.465 L1.436,0.538 Z" id="Fill-30"></path>
                    </g>
                    <g id="Group-35" transform="translate(13.000000, 9.000200)" fill="#FFCB00">
                        <path d="M0.899,4.855 L0.899,5.001 L0.899,5.147 L5.028,9.278 L5.122,9.226 L10.015,6.446 C11.412,5.651 11.412,4.351 10.015,3.557 L10.015,3.557 L5.122,0.777 L5.029,0.724 L0.899,4.855 Z" id="Fill-33"></path>
                    </g>
                    <g id="Group-38" transform="translate(1.000000, 14.000200)" fill="url(#linearGradient-1)">
                        <path d="M0.436,12.463 C0.896,12.951 1.657,13.012 2.514,12.525 L2.514,12.525 L17.122,4.225 L12.899,0.001 L0.436,12.463 Z" id="Fill-36"></path>
                    </g>
                    <path d="M1.436,1.5382 L13.899,14.0012 L18.122,9.7772 L3.514,1.4772 C3.112,1.2482 2.731,1.1402 2.393,1.1402 L2.393,1.1402 C2.009,1.1402 1.68,1.2792 1.436,1.5382" id="Fill-39" fill="#00F076"></path>
                    <g id="Group-50" transform="translate(0.000000, 14.000200)" fill="#000000">
                        <path d="M18.0287,4.1317 L3.5137,12.3797 C2.7017,12.8397 1.9757,12.8097 1.5097,12.3897 L1.4357,12.4647 L1.5087,12.5367 L1.5097,12.5357 C1.9757,12.9557 2.7017,12.9867 3.5137,12.5257 L18.1217,4.2247 L18.0287,4.1317 Z" id="Fill-42"></path>
                        <path d="M1.4354,12.3183 C1.1444,12.0103 0.9724,11.5323 0.9724,10.9133 L0.9724,11.0593 C0.9724,11.6783 1.1444,12.1563 1.4354,12.4643 L1.5094,12.3903 L1.4354,12.3183 Z" id="Fill-44"></path>
                        <path d="M23.0146,1.2987 L18.0286,4.1317 L18.1216,4.2247 L23.0146,1.4447 C23.7136,1.0477 24.0626,0.5247 24.0626,0.0017 C24.0036,0.4747 23.6486,0.9387 23.0146,1.2987" id="Fill-46"></path>
                    </g>
                </g>
            </g>
        </g>
    </g>
</svg>