<svg viewBox="0 0 1440 240" xmlns="http://www.w3.org/2000/svg"><path d="M1440.22 177.54l-18.61-20.3c-.37-.4-.98-.54-1.52-.35l-17.65 5.97-18.44-44.13c-.1-.25-.3-.46-.54-.6l-18.51-10.33-18.76-48.22-.05-.12-18.92-36.31c-.28-.55-.97-.83-1.62-.65l-18.91 5.3c-.26.07-.49.21-.65.4l-18.92 21.38-.13.18-18.58 31.37-17.28 1.73-18.5-32.53c-.47-.84-1.8-.89-2.34-.08l-18.68 27.41-18.32 6.35-18.5 1.81-18.02-4.15-18.65-40.35c-.14-.3-.4-.53-.73-.65l-18.92-6.96a1.5 1.5 0 0 0-1.05.02l-18.92 7.49c-.2.08-.38.2-.51.36l-18.15 20.88-17.79-10.58-18.91-13.26-.2-.12-18.88-8.8-18.72-9.58L986.57 1.4c-.61-.61-1.72-.5-2.17.21l-18.76 29.76-18.67 11.75-.18.13-18.5 16.62-18.32-.67c-.22-.01-.43.03-.63.11l-18.91 8.1c-.13.06-.25.13-.35.22l-18.42 15.74-17.54-2.79-18.62-37.66c-.31-.64-1.16-.9-1.85-.59l-17.9 8.22-18.23-22.08c-.2-.24-.48-.4-.8-.46l-18.91-3.59a1.5 1.5 0 0 0-.38-.02l-18.9 1.22-18.92 1.13c-.49.03-.92.3-1.13.7l-18.37 35.74-17.72-6.55a1.44 1.44 0 0 0-1.6.4l-18.67 22.99-17.56 5.7-18.32-23.1-.17-.17-18.91-16.2c-.13-.11-.29-.2-.46-.26l-18.95-6.45-18.78-5.8-18.79-10.21c-.1-.05-.2-.1-.32-.13l-18.91-4.93a1.5 1.5 0 0 0-.5-.04l-18.92 1.65c-.38.03-.73.2-.95.48l-18.2 22.07-17.85-9.56c-.7-.38-1.6-.12-1.93.55L474.13 71.7l-17.82-3.67a1.5 1.5 0 0 0-.78.05l-18.27 6.28-18.33-10.94c-.44-.26-1-.27-1.45-.02l-18.91 10.3c-.23.13-.42.32-.53.54l-18.77 37.08-18.66 13.14c-.08.06-.16.12-.23.2l-18.13 20.67-17.87-11.06a1.42 1.42 0 0 0-.36-.15l-18.9-5.37a1.5 1.5 0 0 0-.79 0l-18.91 4.88-.19.07-18.91 7.72c-.28.11-.52.31-.65.57l-18.95 34.9-18.84 40.37-17.7 19.6-17.87-21.45c-.42-.5-1.2-.63-1.8-.3l-18.91 10.64-.12.08-17.88 12.63-18.08-19.42-.1-.1-18.9-16.5-.2-.14-18.9-11.42c-.4-.24-.9-.28-1.32-.1l-18.18 7.55-18.07-12.27-18.78-27.57c-.53-.79-1.82-.76-2.32.04L20.42 188.1 0 180" stroke="#CDD2DB" stroke-width="2" fill="none" fill-rule="evenodd" stroke-linecap="round" stroke-linejoin="round"/></svg>