<svg viewBox="0 0 60 16" xmlns="http://www.w3.org/2000/svg"><path d="M6.72 0c2.88 0 4.03.64 4.21.77a.2.2 0 0 1 .09.14v.04l-.55 2.35c0 .13-.14.27-.28.23-.46-.14-1.19-.44-2.87-.44-1.93 0-4 .58-4 4.94s1.98 4.88 3.4 4.88c1.14 0 1.59-.13 1.64-.14V9.73H6.42c-.1 0-.2-.07-.22-.17V7.08c0-.1.06-.2.16-.22l.06-.01h4.98c.1 0 .2.07.22.17v7.64c0 .05 0 .14-.07.18l-.02.01A8.18 8.18 0 0 1 7.18 16C3.9 16 0 14.99 0 8.2S3.4 0 6.72 0zm34.72 5.4c.1 0 .2.07.22.17l.01.06v6.27c0 .98.27 1.43 1.27 1.43.81 0 1.43-.34 1.64-.47l.07-.04V5.63c0-.1.07-.2.17-.22l.06-.01h2.78c.1 0 .2.07.22.17v9.9c0 .1-.06.2-.16.22l-.06.01h-1.8a.24.24 0 0 1-.2-.12c-.03-.06-.1-.6-.1-.6S44.08 16 42.25 16c-2.17 0-3.77-.68-3.86-3.38V5.63c0-.1.07-.2.17-.22l.06-.01h2.82zM49.56.58h2.8c.11 0 .2.07.23.17v5.02s1.08-.7 2.66-.7 3.91.59 3.91 5.1c0 4.52-1.46 5.81-4.01 5.81-2.17 0-3.32-1.08-3.32-1.08s-.07.6-.12.67a.25.25 0 0 1-.14.12h-2.01c-.1 0-.2-.07-.22-.17l-.01-.06V.81c0-.1.07-.2.17-.22l.06-.01h2.8zM22.24 2.44c.13 0 .18.06.18.16v2.78h2.1c.13 0 .23.1.23.23v2.26c0 .12-.1.23-.23.23h-2.1v4.12c0 .62.35 1.1 1.38 1.1.33 0 .64-.05.76-.05s.23.1.23.23v1.98c0 .1-.05.18-.13.21-.14.05-.97.28-1.67.28-1.52 0-3.78-.32-3.78-3.54V8.1h-1.47a.23.23 0 0 1-.23-.23v-1.8c0-.11.07-.2.17-.23l1.53-.37V2.6c0-.1.06-.16.17-.16zM29.16.58c.1 0 .2.07.22.17l.01.06v5.41h4.37V.81c0-.1.07-.2.17-.22l.06-.01h2.8c.1 0 .2.07.22.17v14.71c0 .1-.06.2-.16.23h-2.87a.23.23 0 0 1-.23-.23V15 9.2H29.4v6.26c0 .1-.07.2-.17.23h-2.86c-.1 0-.2-.07-.22-.17V.81c0-.1.06-.2.16-.22l.06-.01h2.8zm-12.91 4.8c.1 0 .2.07.22.17V15.32c0 .21-.05.34-.25.37H13.62c-.2 0-.37-.06-.4-.28V5.64c0-.11.08-.23.18-.26h2.85zm37.72 2.37a3.7 3.7 0 0 0-1.43.46v4.65s.65.43 1.61.46c1.35.04 1.79-.45 1.79-2.97 0-2.39-.97-2.69-1.97-2.6zM14.87.91c1 0 1.8.82 1.8 1.83 0 1-.8 1.82-1.8 1.82s-1.8-.82-1.8-1.82c0-1.01.8-1.83 1.8-1.83z" fill-rule="evenodd"/></svg>