<svg viewBox="0 0 53 20" xmlns="http://www.w3.org/2000/svg"><path d="M0 20V4.36h3.4v1.73a4.4 4.4 0 0 1 3.73-1.96c2.8 0 5.45 2.2 5.45 6.27 0 4.03-2.61 6.23-5.45 6.23a4.6 4.6 0 0 1-3.73-1.8V20H0zm6.26-6.27c1.58 0 2.93-1.3 2.93-3.37 0-2-1.35-3.33-2.93-3.33-1.59 0-2.9 1.33-2.9 3.37 0 2 1.31 3.33 2.9 3.33zm8.12 2.67V0h3.4v16.4h-3.4zm9.13.23c-2.25 0-4.1-1.3-4.1-3.73 0-2.63 1.98-3.84 4.82-3.84 1.2 0 2.08.2 2.93.5v-.21c0-1.42-.87-2.2-2.57-2.2-1.3 0-2.22.24-3.31.65l-.85-2.6c1.32-.6 2.61-.98 4.65-.98 1.85 0 3.2.5 4.04 1.35.9.9 1.3 2.23 1.3 3.85v6.98h-3.29v-1.3a4.6 4.6 0 0 1-3.62 1.53zm1.03-2.36c1.59 0 2.66-.88 2.66-2.11v-.6a5.24 5.24 0 0 0-2.17-.46c-1.45 0-2.34.59-2.34 1.7 0 .93.76 1.47 1.85 1.47zm7.95 2.13V4.36h3.4v2.43c.69-1.67 1.8-2.75 3.82-2.66v3.58h-.18c-2.26 0-3.64 1.37-3.64 4.25v4.44h-3.4zm8.91 0V0h3.4v8.74l3.98-4.38h4.06L48.28 9.1 53 16.4h-3.89l-3.13-4.92-1.18 1.26v3.66h-3.4z" fill-rule="evenodd"/></svg>
