<svg xmlns="http://www.w3.org/2000/svg" viewBox="0 0 310 50">
    <g fill-rule="nonzero" fill="none">
        <path d="M272.29 37.19c1.56 1.67 10.18 9.7 23.7.38 9.76-7.68 9.52-24.35 8.58-29.38-.33.74-11.68 25.84-32.28 29zm32.28-29c-.12-.05-12.7-1.78-25.12 6.3-7.72 5.02-8.74 12.37-8.4 17.26 18.08-2.04 33.11-22.99 33.52-23.56z" fill="#BFBFBF"/>
        <path d="M304 8.18c-.12-.05-12.86-1.72-25.45 6.1-7.81 4.87-8.85 11.98-8.49 16.72 18.3-1.98 33.52-22.26 33.94-22.82z" fill="#7A7A7A"/>
        <path d="M30.36 36.5H16.14v-7.54h14.22c3.56 0 5.37 1.7 5.37 3.89 0 2.11-1.78 3.65-5.37 3.65zm-.46-11.58H16.14v-6.34H29.9c3.74 0 5.21 1.3 5.21 3.11 0 1.66-1.7 3.23-5.21 3.23zm3.63 1.93c5.99-.2 8.15-3.16 8.15-6.39 0-3.54-2.82-6.46-9.7-6.46H10v27h22.64c5.64 0 9.85-2.35 9.85-7.38 0-3.58-2.35-6.62-8.96-6.77zM49.75 14v27h6.14V14h-6.14zm31.05 5.12h13.52V14H61.14v5.12h13.52V41h6.14V19.12zM99.57 14v27h6.14V30.46h14.41v-4.42h-14.4v-7.39h23.4V14H99.58zm34.53 0v27h6.15V14h-6.15zm20.55 6.58L175 41h6.95V14h-6.06v19.46L156.35 14h-7.8v27h6.1V20.58zM190.26 14v27h30.06v-4.54h-23.91v-7.42h14.33v-4.2H196.4v-6.19h23.91V14h-30.06zm71.2 0h-8.11l-10.36 9.5-10.28-9.5h-8.22l14.44 13.3L223.94 41h8.12l10.85-9.96L253.73 41H262l-15.03-13.73L261.46 14z" fill="#BFBFBF"/>
    </g>
</svg>