<svg xmlns="http://www.w3.org/2000/svg" viewBox="0 0 180 50">
    <g fill-rule="nonzero" fill="none">
        <path d="M53.08 24.7a7.45 7.45 0 0 1 7.4-7.55 7.44 7.44 0 0 1 5.78 2.58l-1.37 1.45c-1.14-1.2-2.48-2.12-4.44-2.12-2.93 0-5.16 2.49-5.16 5.65 0 3.13 2.29 5.62 5.3 5.62 1.84 0 3.21-.95 4.36-2.18l1.42 1.31c-1.45 1.63-3.18 2.8-5.89 2.8a7.43 7.43 0 0 1-7.4-7.55zm15.7-12.14l2.16-1.06v8.48a5.47 5.47 0 0 1 4.94-2.83c3.49 0 5.53 2.35 5.53 5.8v8.98h-2.15v-8.45c0-2.69-1.46-4.37-4-4.37-2.48 0-4.32 1.82-4.32 4.53v8.29h-2.15V12.56zm25.76 14.05v-1.34a14.8 14.8 0 0 0-4.22-.62c-2.68 0-4.22 1.18-4.22 2.97 0 1.82 1.68 2.88 3.63 2.88 2.66 0 4.8-1.6 4.8-3.89zm-10.61 1.06c0-3.1 2.5-4.72 6.17-4.72 1.84 0 3.12.25 4.4.61v-.45c0-2.57-1.56-3.91-4.26-3.91-1.7 0-3.05.42-4.39 1.03l-.64-1.76a11.8 11.8 0 0 1 5.25-1.23c2.04 0 3.63.56 4.66 1.6 1 1 1.51 2.4 1.51 4.24v8.85h-2.12v-2.16a6.32 6.32 0 0 1-5.2 2.46c-2.7 0-5.38-1.53-5.38-4.56zm16.33-10.2h2.15v2.5a5.47 5.47 0 0 1 4.95-2.82c3.49 0 5.52 2.35 5.52 5.8v8.98h-2.15v-8.45c0-2.69-1.45-4.37-3.99-4.37-2.48 0-4.33 1.82-4.33 4.53v8.29h-2.15V17.46zm27.83 6.48c0-2.96-2.57-4.9-5.3-4.9-2.74 0-5 1.9-5 4.93a4.9 4.9 0 0 0 5 4.92c2.73 0 5.3-1.98 5.3-4.95zm-11.84 10.5l.98-1.68a9.21 9.21 0 0 0 5.55 1.84c3.19 0 5.25-1.76 5.25-5.15v-1.7c-1.25 1.68-3.01 3.05-5.67 3.05a6.7 6.7 0 0 1-6.78-6.83 6.71 6.71 0 0 1 6.78-6.83c2.71 0 4.47 1.35 5.65 2.91v-2.6h2.14v11.95c0 2.24-.67 3.94-1.84 5.12-1.28 1.29-3.2 1.93-5.5 1.93-2.4 0-4.63-.67-6.56-2.02zm28.34-10.61c-.26-2.63-1.76-4.87-4.61-4.87-2.49 0-4.39 2.07-4.7 4.87h9.3zm-4.22 6.55c1.98 0 3.38-.81 4.55-2.05l1.34 1.2a7.45 7.45 0 0 1-5.95 2.72c-3.96 0-7.2-3.05-7.2-7.55 0-4.2 2.93-7.56 6.92-7.56 4.28 0 6.73 3.42 6.73 7.67 0 .2 0 .42-.02.76h-11.45c.3 3.04 2.54 4.8 5.08 4.8zm9.4-16.9l2.14-1.06v19.5h-2.15V13.5zm6.08-.93l2.14-1.06v20.43h-2.14V12.56zm5 23.2l.72-1.7c.7.36 1.34.52 2.26.52 1.29 0 2.1-.67 2.96-2.71l-6.56-14.4h2.37l5.25 12.05 4.64-12.06h2.29l-6.06 14.94c-1.23 3-2.62 4.09-4.8 4.09-1.2 0-2.1-.25-3.07-.73z" fill="#B8B8B8"/>
        <path d="M25.27 38.11a15.41 15.41 0 0 1-3.24 2.26 17.94 17.94 0 0 1-4.91 1.72c-.43.1-.86.16-1.29.24l-.64.08-.32.04-.33.03-.65.07-.65.03c-.44.04-.87.03-1.3.04-1.28.02-2.56-.05-3.84-.17l.44-.64c.4-.63.77-1.3 1.1-1.98a27.5 27.5 0 0 0 1.49-4.18 42.43 42.43 0 0 1 3.12-8 25.3 25.3 0 0 0-2.45 3.62 29.1 29.1 0 0 0-1.82 4 33.89 33.89 0 0 1-1.69 3.89 19.03 19.03 0 0 1-2.34 3.42L5 43.71l1.47.2c1.81.27 3.65.4 5.5.34.46-.03.92-.04 1.38-.09l.69-.06.69-.1c.46-.05.91-.15 1.37-.23.45-.11.9-.2 1.35-.34.44-.12.88-.27 1.32-.42a15.84 15.84 0 0 0 3.7-1.89c.77-.52 1.49-1.11 2.12-1.78.63-.67 1.2-1.4 1.6-2.21-.28.35-.6.68-.92.98zm10.14-24.44a2.7 2.7 0 0 1 3.83 0 2.71 2.71 0 1 1-3.84 0zm1.91 6.3a4.4 4.4 0 0 0 3.1-7.47 4.37 4.37 0 1 0-3.1 7.47zm1.28 6.28c-6.25 5.5-8.86 6.03-11.45 4.83l2.83-3.58c.42-.52.72-1.14.87-1.8L32 20.95l-4.76 1.14a4.6 4.6 0 0 0-1.78.88l-3.57 2.83c-1.2-2.6-.68-5.2 4.82-11.47 5.2-5.92 16.18-7.28 19.44-7.56-.28 3.27-1.63 14.28-7.54 19.49zm-4.16 8.53c-.05.27-.2.5-.43.65-.66.46-1.67 1.09-2.57 1.63l.04-.17c.44-1.72.43-3.04-.01-3.95a14.69 14.69 0 0 0 3.92-2.01 81.74 81.74 0 0 0-.95 3.85zm-9.89-3.09c-.37.48-.95.74-1.55.7h-.02l-1.42.01 4.92-5.94-5.92 4.94v-1.45c-.03-.6.23-1.18.7-1.55l5.22-4.14c.33-.27.73-.46 1.14-.56l2.13-.51-.5 2.13c-.1.41-.3.81-.57 1.15l-4.13 5.22zm-8.48-10.24l-.17.05c.55-.9 1.17-1.92 1.63-2.58.15-.23.38-.38.65-.43.93-.2 2.52-.6 3.85-.95a14.7 14.7 0 0 0-2.01 3.92c-.9-.44-2.23-.45-3.95 0zM47 5.04c-.6.02-14.97.68-21.55 8.18-.67.76-1.27 1.48-1.82 2.17-.95.26-4.3 1.17-5.78 1.47-.7.14-1.3.53-1.69 1.12-1 1.47-2.77 4.49-2.84 4.61l-1.28 2.2 2.33-1.02c1.52-.66 4.07-1.34 4.98-.78.15.1.3.25.33.67.03 1.08.32 2.12.87 3.18l-.32.25c-.88.7-1.38 1.8-1.33 2.92v4.06l4.04-.01a3.5 3.5 0 0 0 2.91-1.33l.25-.32a7.1 7.1 0 0 0 3.17.86c.43.03.58.19.68.34.55.9-.13 3.47-.79 5l-1.01 2.32 2.2-1.28c.12-.07 3.13-1.84 4.6-2.85.58-.4.98-1 1.12-1.69.3-1.48 1.2-4.83 1.46-5.8.69-.54 1.4-1.15 2.17-1.82 7.48-6.59 8.14-20.98 8.16-21.59l.04-.9-.9.04z" fill="#7A7A7A"/>
    </g>
</svg>