<svg viewBox="0 0 228 50" xmlns="http://www.w3.org/2000/svg">
    <path d="M7 25.36v-.07c0-6.4 4.71-11.7 11.27-11.7 4.04 0 6.46 1.45 8.68 3.58l-1.71 1.88c-1.88-1.81-3.98-3.1-7-3.1-4.94 0-8.63 4.07-8.63 9.28v.06c0 5.24 3.72 9.35 8.62 9.35 3.06 0 5.06-1.2 7.2-3.27l1.65 1.65c-2.32 2.4-4.87 3.98-8.9 3.98C11.73 37 7 31.86 7 25.36zM58.11 36.6V13.97h2.52v22.64H58.1zm9.04-22.64h2.36l14.03 18.15V13.97h2.45v22.64h-2L69.6 18.05V36.6h-2.45V13.97zm43.74 0h5.25l4.61 15.33 5-15.4h4.2l5 15.4 4.6-15.33h5.13l-7.6 22.8h-4.27l-5.03-14.81-5.03 14.81h-4.26l-7.6-22.8zm37.64 22.64V13.97h4.9v22.64h-4.9zm15.66-18.05h-6.78v-4.59h18.46v4.6h-6.78V36.6h-4.9V18.56zm-114.23 6.8v-.07c0-5.14-3.7-9.35-8.78-9.35-5.1 0-8.72 4.15-8.72 9.29v.06c0 5.15 3.69 9.35 8.78 9.35 5.1 0 8.72-4.14 8.72-9.28zm-20.11 0v-.07c0-6.24 4.61-11.7 11.4-11.7 6.77 0 11.32 5.4 11.32 11.64v.06c0 6.24-4.61 11.71-11.4 11.71-6.77 0-11.32-5.4-11.32-11.64zm147.84 0v-.07c0-6.43 4.77-11.7 11.61-11.7 4.2 0 6.72 1.42 8.79 3.49l-3.12 3.65c-1.72-1.58-3.47-2.55-5.7-2.55-3.75 0-6.46 3.17-6.46 7.05v.06c0 3.88 2.64 7.12 6.46 7.12 2.55 0 4.1-1.04 5.86-2.65l3.11 3.2c-2.29 2.49-4.83 4.04-9.13 4.04-6.55 0-11.42-5.14-11.42-11.64zm24.47-11.39h4.9v8.96h9.04v-8.96h4.9v22.64h-4.9v-9.09h-9.04v9.1h-4.9V13.96zM96.69 34.87l-.04.03a2.76 2.76 0 0 1-1.4.55c-.1 0-.18.03-.27.03h-.06a2.84 2.84 0 0 1-2.76-2.92 2.84 2.84 0 0 1 2.81-2.81h.06a2.83 2.83 0 0 1 2.75 2.75l.01.17c0 .19-.02.37-.06.55l-.07.22c-.03.1-.05.2-.1.29-.03.1-.09.18-.14.28l-.1.17c-.06.1-.15.2-.23.3l-.07.1-.33.3zm5.34-17.97a2.68 2.68 0 0 1 .18-1.52l.07-.16a2.86 2.86 0 0 1 .29-.47l.1-.13c.12-.13.25-.26.39-.37l.05-.04.28-.2c.42-.24.9-.4 1.42-.4h.05a2.84 2.84 0 0 1 2.76 2.93 2.84 2.84 0 0 1-2.81 2.8h-.06a2.82 2.82 0 0 1-2.72-2.44zm-.26 5.75c4.5 1.3 7 3 6.93 6.94v.06a6.39 6.39 0 0 1-3.9 6.05c-1.8 1.03-6.13 1.15-8.4 1.14a4.5 4.5 0 0 0 2.98-4.14v-.27c.9-.07 1.81-.22 2.74-.5 1.06-.3 1.68-.96 1.7-1.9v-.06c.03-1.26-.73-1.92-4.43-2.97-4.46-1.25-7.33-2.57-7.24-7.07v-.06a6.37 6.37 0 0 1 3.6-5.76c1.65-1.01 4.55-1.14 6.29-1.1a4.5 4.5 0 0 0-1.55 4.35c-.73.07-1.43.22-2.28.54-.76.34-1.17.92-1.19 1.61v.07c-.03 1.49.92 2 4.75 3.07z" fill="#BFBFBF" />
</svg>