<svg xmlns="http://www.w3.org/2000/svg" viewBox="0 0 133 50">
    <g fill="none" fill-rule="evenodd">
        <path fill="#BFBFBF" fill-rule="nonzero" d="M63.54 39.15l-8.48-12.51 8.13-11.88h-6.27l-7.38 10.59v-10.6h-5.52v24.4h5.52v-11.3l7.72 11.3zM77.56 22.56v9.33c0 2.42-1.39 3.52-3.4 3.52-1.76 0-3.18-1-3.18-3.11v-9.74h-5.5v10.49c0 4.61 3.15 7.07 6.85 7.07 2.41 0 4.24-.82 5.23-2.08v1.6h5.49V22.56h-5.49zM97.67 21.59c-2.41 0-4.24.82-5.23 2.08v-1.6h-5.49v17.08h5.49v-9.33c0-2.43 1.39-3.52 3.4-3.52 1.76 0 3.18 1 3.18 3.1v9.75h5.5v-10.5c0-4.6-3.15-7.06-6.85-7.06zM122.49 22.08v1.65c-1.2-1.34-2.98-2.14-5.4-2.14-4.76 0-8.68 4.03-8.68 9.26 0 5.23 3.92 9.27 8.67 9.27 2.43 0 4.21-.8 5.4-2.14v1.65h5.45V22.08h-5.44zm-4.32 13.06c-2.5 0-4.32-1.65-4.32-4.29 0-2.63 1.82-4.28 4.32-4.28s4.32 1.65 4.32 4.28c0 2.64-1.82 4.29-4.32 4.29zM28.63 45a4.7 4.7 0 0 0 3.82-7.4l-8.11-11.76a2.38 2.38 0 0 1 0-2.7l7.47-10.72A4.7 4.7 0 0 0 28 5H9.65A4.68 4.68 0 0 0 5 9.7v30.6C5 43 6.8 45 9.64 45h19z"/>
        <path d="M5 40.31C5 42.86 6.63 44.8 9.25 45c7.73-10.86 15.44-21.73 23.17-32.58A4.7 4.7 0 0 0 28.52 5H9.77A4.73 4.73 0 0 0 5 9.7v30.61z" fill="#7A7A7A"/>
    </g>
</svg>