<svg xmlns="http://www.w3.org/2000/svg" viewBox="0 0 24 24">
    <path d="M24 11.78a2.65 2.65 0 0 0-4.5-1.9 13.7 13.7 0 0 0-6.97-2.05l1.49-4.66 4.01.94v.05a2.17 2.17 0 0 0 4.34 0 2.17 2.17 0 0 0-4.2-.78l-4.32-1.02a.37.37 0 0 0-.44.25l-1.66 5.21c-2.83.03-5.4.8-7.3 2.03a2.64 2.64 0 1 0-3.13 4.2c-.06.28-.09.57-.09.86 0 3.9 4.8 7.09 10.72 7.09s10.72-3.18 10.72-7.1c0-.27-.03-.54-.08-.8A2.63 2.63 0 0 0 24 11.78zM6.78 13.6a1.58 1.58 0 0 1 3.16 0 1.58 1.58 0 0 1-3.16 0zm9.06 4.66c-.8.8-2.05 1.18-3.83 1.18H12c-1.78 0-3.03-.38-3.83-1.18a.37.37 0 0 1 0-.52.37.37 0 0 1 .53 0c.65.65 1.73.96 3.3.96H12c1.57 0 2.65-.31 3.3-.96a.37.37 0 0 1 .53 0c.14.14.14.38 0 .52zm-.2-3.1c-.86 0-1.57-.7-1.57-1.57a1.58 1.58 0 0 1 3.16 0c0 .87-.71 1.58-1.58 1.58z" fill="currentColor" />
</svg>