<svg xmlns="http://www.w3.org/2000/svg" width="102" height="12" viewBox="0 0 102 12"><g><g><g><path d="M89.56 8.42c-.12-1.664.23-4.16 2.892-5.865 4.285-2.746 8.62-2.158 8.66-2.14-.14.195-5.322 7.31-11.552 8.004zM101.113.415c.324 1.708.408 7.365-2.961 9.974-4.66 3.166-7.628.439-8.168-.13C97.087 9.186 101 .663 101.114.415z"/></g><g><path fill="#0b0c0d" d="M101.113.414c-.041-.017-4.376-.605-8.661 2.142-2.661 1.706-3.013 4.203-2.892 5.866C95.79 7.728 100.972.61 101.113.414z"/></g><g><path d="M81.604 6.788l5.133 4.686h-2.824l-3.694-3.4-3.708 3.4h-2.77L78.86 6.8 73.925 2.26h2.81l3.51 3.242 3.536-3.242h2.771zm-9.09-4.528v1.588h-8.17v2.113h4.897v1.43h-4.897v2.534h8.17v1.549H62.246V2.26zm-22.42 9.214H48.01V2.26h2.666l6.677 6.641V2.26h2.072v9.214H57.05l-6.955-6.97zM45.177 2.26v9.214h-2.096V2.26zm-3.784 0v1.588h-7.998v2.52h4.923v1.51h-4.923v3.596h-2.098V2.26zm-16.495 9.214H22.8V4.006h-4.62V2.26h11.336v1.746h-4.618zM16.39 2.26v9.214h-2.097V2.26zM8.767 6.644c2.256.052 3.061 1.089 3.061 2.31 0 1.719-1.438 2.52-3.365 2.52H.73V2.26h7.509c2.349 0 3.312.997 3.312 2.205 0 1.102-.739 2.113-2.784 2.179zm-1.24-.657c1.202 0 1.783-.538 1.783-1.102 0-.617-.502-1.063-1.783-1.063h-4.7v2.165zm.151 3.95c1.226 0 1.833-.524 1.833-1.246 0-.748-.62-1.326-1.833-1.326H2.826v2.573z"/></g></g></g></svg>