<svg viewBox="0 0 172 40" xmlns="http://www.w3.org/2000/svg"><g fill-rule="evenodd"><path d="M48.08 20.18a7.45 7.45 0 0 1 7.4-7.56 7.44 7.44 0 0 1 5.78 2.58l-1.37 1.45c-1.14-1.2-2.48-2.12-4.44-2.12-2.93 0-5.16 2.49-5.16 5.65 0 3.13 2.29 5.62 5.3 5.62 1.85 0 3.21-.95 4.36-2.18l1.42 1.31c-1.45 1.63-3.18 2.8-5.89 2.8a7.43 7.43 0 0 1-7.4-7.55m15.7-12.15l2.15-1.06v8.48a5.47 5.47 0 0 1 4.95-2.83c3.49 0 5.53 2.35 5.53 5.8v8.98h-2.15v-8.45c0-2.69-1.46-4.37-4-4.37-2.48 0-4.33 1.82-4.33 4.53v8.29h-2.15V8.03zm25.76 14.05v-1.34a14.8 14.8 0 0 0-4.22-.62c-2.68 0-4.22 1.18-4.22 2.97 0 1.82 1.68 2.88 3.63 2.88 2.66 0 4.8-1.6 4.8-3.89m-10.6 1.06c0-3.1 2.5-4.72 6.17-4.72 1.84 0 3.12.25 4.4.61v-.45c0-2.57-1.56-3.91-4.26-3.91-1.7 0-3.05.42-4.39 1.03l-.64-1.76a11.8 11.8 0 0 1 5.25-1.23c2.04 0 3.63.56 4.66 1.6 1 1 1.51 2.4 1.51 4.24v8.85h-2.12v-2.16a6.33 6.33 0 0 1-5.2 2.47c-2.7 0-5.38-1.54-5.38-4.57m16.33-10.2h2.15v2.5a5.46 5.46 0 0 1 4.95-2.82c3.49 0 5.52 2.35 5.52 5.8v8.98h-2.15v-8.45c0-2.69-1.45-4.37-3.99-4.37-2.48 0-4.33 1.82-4.33 4.53v8.29h-2.15V12.93zm27.83 6.48c0-2.96-2.57-4.9-5.3-4.9s-5 1.9-5 4.93a4.9 4.9 0 0 0 5 4.92c2.73 0 5.3-1.98 5.3-4.95m-11.84 10.5l.98-1.68a9.2 9.2 0 0 0 5.55 1.84c3.19 0 5.25-1.76 5.25-5.14v-1.71c-1.25 1.68-3.01 3.05-5.67 3.05-3.46 0-6.78-2.6-6.78-6.83s3.35-6.83 6.78-6.83c2.71 0 4.47 1.35 5.64 2.91v-2.6h2.15v11.95c0 2.24-.67 3.94-1.84 5.12-1.28 1.29-3.2 1.93-5.5 1.93-2.4 0-4.63-.67-6.56-2.01m28.34-10.61c-.25-2.63-1.76-4.87-4.61-4.87-2.49 0-4.38 2.07-4.7 4.87h9.3zm-4.22 6.55c1.98 0 3.38-.81 4.55-2.05l1.34 1.2a7.45 7.45 0 0 1-5.95 2.72c-3.96 0-7.2-3.05-7.2-7.55 0-4.2 2.93-7.56 6.92-7.56 4.28 0 6.73 3.42 6.73 7.67 0 .2 0 .42-.02.76h-11.45c.3 3.05 2.54 4.8 5.08 4.8zm9.4-16.9l2.14-1.06v19.5h-2.15zm6.07-.93L153 6.97V27.4h-2.15zm5 23.2l.73-1.7c.7.36 1.34.53 2.26.53 1.29 0 2.1-.68 2.96-2.72l-6.56-14.4h2.38l5.24 12.05 4.64-12.06h2.29l-6.06 14.94c-1.23 3-2.63 4.09-4.8 4.09-1.2 0-2.1-.25-3.07-.73M20.27 33.58a11.28 11.28 0 0 1-1.02.86c-.7.54-1.45 1-2.22 1.4a19.16 19.16 0 0 1-4.92 1.72c-.42.1-.85.16-1.28.24l-.64.08-.33.04-.32.04-.65.06-.65.03c-.44.04-.87.03-1.3.05a35.74 35.74 0 0 1-3.84-.18l.44-.64c.4-.63.77-1.3 1.1-1.98.63-1.37 1.1-2.77 1.49-4.18.38-1.38.82-2.73 1.34-4.06a38.1 38.1 0 0 1 1.78-3.94c-.48.55-.9 1.14-1.31 1.74a25.3 25.3 0 0 0-1.14 1.88 29.1 29.1 0 0 0-1.83 4 33.83 33.83 0 0 1-1.68 3.89 18.99 18.99 0 0 1-2.34 3.42L0 39.18l1.47.2c1.81.27 3.65.4 5.5.34.46-.03.92-.04 1.38-.09l.69-.06.69-.1c.46-.05.91-.15 1.36-.23.46-.11.91-.2 1.36-.34.44-.12.88-.27 1.32-.42.44-.16.87-.33 1.29-.52a15.85 15.85 0 0 0 2.42-1.36 13.25 13.25 0 0 0 2.11-1.79c.63-.67 1.2-1.4 1.6-2.21-.28.35-.6.68-.92.98M30.41 9.15a2.7 2.7 0 0 1 1.91-.8c.7 0 1.4.27 1.92.8a2.73 2.73 0 0 1 0 3.84 2.71 2.71 0 0 1-4.63-1.92c0-.73.28-1.41.8-1.93m1.91 6.3c1.12 0 2.24-.42 3.1-1.28a4.4 4.4 0 0 0 0-6.19 4.37 4.37 0 0 0-7.47 3.1c0 1.17.46 2.27 1.28 3.1a4.35 4.35 0 0 0 3.1 1.27m1.27 6.28c-6.25 5.5-8.86 6.03-11.45 4.83l2.83-3.58c.42-.52.72-1.14.87-1.8L27 16.42l-4.75 1.14a4.6 4.6 0 0 0-1.8.88l-3.56 2.83c-1.2-2.6-.68-5.2 4.82-11.47 5.19-5.92 16.18-7.28 19.44-7.56-.28 3.27-1.63 14.28-7.54 19.49zm-4.16 8.54a1.03 1.03 0 0 1-.43.65c-.66.45-1.67 1.08-2.57 1.63l.04-.17c.44-1.73.43-3.05-.01-3.96a14.67 14.67 0 0 0 3.92-2.01 81.65 81.65 0 0 0-.95 3.86zm-9.89-3.1a1.86 1.86 0 0 1-1.55.7h-.02l-1.42.01 4.92-5.94-5.92 4.94v-1.45c-.03-.6.23-1.18.7-1.55l5.22-4.14c.33-.27.73-.46 1.14-.56l2.13-.51-.5 2.13a3 3 0 0 1-.57 1.15l-4.13 5.22zm-8.48-10.24l-.17.05c.55-.9 1.17-1.92 1.63-2.58.15-.23.38-.38.65-.43.93-.2 2.52-.6 3.85-.95a14.66 14.66 0 0 0-2.01 3.92c-.9-.44-2.23-.45-3.95 0zM42 .51c-.6.02-14.97.69-21.55 8.18a61.26 61.26 0 0 0-1.82 2.17c-.95.26-4.3 1.17-5.78 1.47-.7.14-1.3.54-1.7 1.12-1 1.47-2.76 4.49-2.83 4.61l-1.28 2.2 2.32-1.02c1.53-.66 4.08-1.34 5-.78.14.1.3.25.32.67.02 1.08.32 2.12.86 3.18l-.31.25a3.53 3.53 0 0 0-1.33 2.92v4.06l4.04-.01a3.51 3.51 0 0 0 2.91-1.33l.25-.32c1.06.55 2.1.84 3.17.86.43.03.58.19.67.34.56.9-.12 3.47-.78 5l-1.01 2.32 2.19-1.28c.13-.07 3.14-1.83 4.6-2.84.59-.4.98-1 1.12-1.7.3-1.48 1.21-4.83 1.47-5.79.69-.55 1.4-1.16 2.16-1.83 7.48-6.59 8.15-20.98 8.17-21.59l.04-.9-.9.04z"/></g></svg>