<svg width="127" height="30" viewBox="0 0 127 30" xmlns="http://www.w3.org/2000/svg">
    <path d="M35.97 15.56a5.47 5.47 0 0 1 1.58-3.93 5.6 5.6 0 0 1 3.95-1.66 5.6 5.6 0 0 1 4.32 1.9l-1.02 1.08a4.42 4.42 0 0 0-3.32-1.57c-2.2 0-3.86 1.84-3.86 4.18a4.01 4.01 0 0 0 3.96 4.15c1.39 0 2.4-.7 3.26-1.61l1.07.97a5.56 5.56 0 0 1-4.4 2.06 5.6 5.6 0 0 1-3.96-1.64 5.45 5.45 0 0 1-1.58-3.93zM47.7 6.58l1.6-.78v6.26a4.1 4.1 0 0 1 3.71-2.09c2.61 0 4.14 1.74 4.14 4.29v6.63h-1.61v-6.24c0-1.99-1.1-3.23-3-3.23-1.85 0-3.23 1.35-3.23 3.35v6.12H47.7V6.59zm19.27 10.38v-.99a11.2 11.2 0 0 0-3.16-.46c-2 0-3.16.87-3.16 2.2 0 1.34 1.26 2.12 2.72 2.12 1.99 0 3.6-1.18 3.6-2.87zm-7.94.78c0-2.29 1.87-3.48 4.62-3.48 1.37 0 2.33.18 3.29.45v-.33c0-1.9-1.17-2.9-3.19-2.9-1.27 0-2.28.32-3.28.77l-.48-1.3c1.22-.6 2.56-.91 3.93-.91 1.52 0 2.71.41 3.48 1.18a4.2 4.2 0 0 1 1.13 3.13v6.54h-1.58v-1.6a4.76 4.76 0 0 1-3.9 1.83c-2.01 0-4.02-1.14-4.02-3.38zm12.22-7.53h1.6v1.85a4.1 4.1 0 0 1 3.7-2.09c2.62 0 4.14 1.74 4.14 4.29v6.63h-1.61v-6.24c0-1.99-1.09-3.23-2.99-3.23-1.85 0-3.23 1.35-3.23 3.35v6.12h-1.61V10.2v.01zM92.07 15c0-2.19-1.92-3.62-3.96-3.62s-3.74 1.4-3.74 3.64c0 .97.39 1.9 1.1 2.6.7.68 1.65 1.05 2.64 1.03 2.04 0 3.96-1.46 3.96-3.65zm-8.85 7.75l.73-1.24a6.94 6.94 0 0 0 4.15 1.36c2.39 0 3.93-1.3 3.93-3.8v-1.26a5.12 5.12 0 0 1-4.24 2.25 4.97 4.97 0 0 1-5.07-5.04c0-3.13 2.5-5.05 5.07-5.05 2.03 0 3.34 1 4.22 2.15V10.2h1.6v8.83c0 1.65-.5 2.9-1.37 3.78-.96.95-2.4 1.43-4.11 1.43-1.8 0-3.47-.5-4.91-1.49zm21.2-7.84c-.19-1.94-1.32-3.6-3.45-3.6-1.86 0-3.28 1.54-3.52 3.6h6.96zm-3.16 4.84c1.48 0 2.53-.6 3.4-1.51l1 .88a5.6 5.6 0 0 1-4.44 2.01 5.34 5.34 0 0 1-5.39-5.57c0-3.1 2.2-5.59 5.18-5.59 3.2 0 5.03 2.53 5.03 5.67l-.01.56h-8.57a3.75 3.75 0 0 0 3.8 3.55zm7.03-12.48l1.6-.78v14.4h-1.6V7.27zm4.54-.69l1.62-.78V20.9h-1.61V6.59zm3.74 17.14l.55-1.26c.52.27 1 .4 1.69.4.96 0 1.57-.5 2.21-2.01l-4.9-10.64h1.78l3.92 8.9 3.47-8.9H127l-4.53 11.03c-.92 2.21-1.97 3.02-3.6 3.02a4.9 4.9 0 0 1-2.29-.54zm-101.4 1.73a11.07 11.07 0 0 1-2.42 1.67c-1.17.6-2.41 1.02-3.7 1.27-.3.08-.63.12-.95.18l-.48.06-.24.03-.24.03-.49.04-.49.03c-.33.03-.65.02-.97.03-.96 0-1.92-.03-2.87-.13l.33-.47a14.74 14.74 0 0 0 1.94-4.55 30.03 30.03 0 0 1 2.33-5.91c-.36.4-.67.84-.98 1.28a21.36 21.36 0 0 0-2.22 4.34c-.36.99-.78 1.95-1.26 2.88-.49.9-1.07 1.75-1.75 2.53l-.71.83 1.1.15c1.35.2 2.73.3 4.11.25.35-.02.7-.03 1.04-.07l.51-.04.52-.08c.34-.03.68-.1 1.02-.17.34-.08.68-.14 1.01-.25a16.9 16.9 0 0 0 1.96-.7 11.9 11.9 0 0 0 1.8-1c.58-.38 1.1-.82 1.58-1.32.48-.5.9-1.03 1.2-1.63-.2.26-.45.5-.69.72zm7.58-18.04a2.03 2.03 0 0 1 2.86 0 2 2 0 0 1 0 2.84c-.58.57-1.45.74-2.21.43a2 2 0 0 1-.65-3.28v.01zm1.43 4.65a3.22 3.22 0 0 0 2.32-5.52 3.3 3.3 0 0 0-3.58-.7 3.23 3.23 0 0 0 1.26 6.22zm.95 4.63c-4.67 4.07-6.62 4.46-8.56 3.57l2.12-2.64c.31-.39.53-.84.65-1.33l.86-3.51-3.56.84c-.49.12-.95.34-1.34.65l-2.67 2.1c-.9-1.93-.5-3.85 3.61-8.48 3.88-4.37 12.1-5.38 14.54-5.58-.2 2.41-1.22 10.54-5.64 14.4v-.02zM22.03 23a.76.76 0 0 1-.33.48c-.5.33-1.25.8-1.92 1.2l.03-.12c.33-1.28.32-2.25-.01-2.92 1.05-.35 2.04-.85 2.93-1.49-.26.95-.5 1.9-.7 2.85zm-7.4-2.29a1.4 1.4 0 0 1-1.17.52H12.4l3.68-4.38-4.43 3.65v-1.07c-.02-.45.17-.87.52-1.15l3.9-3.05c.25-.2.55-.34.86-.42l1.6-.38-.38 1.58c-.08.3-.22.6-.43.85l-3.09 3.85zm-6.35-7.56l-.13.04c.41-.67.88-1.42 1.22-1.9a.73.73 0 0 1 .49-.33c.7-.14 1.88-.44 2.88-.7-.65.89-1.15 1.86-1.5 2.9-.68-.33-1.67-.34-2.96 0v-.01zM31.42 1.03c-.45.01-11.2.5-16.12 6.04-.47.52-.92 1.06-1.36 1.6-.71.2-3.22.87-4.33 1.09-.52.1-.97.4-1.27.83-.75 1.08-2.06 3.31-2.12 3.4l-.95 1.63L7 14.86c1.15-.48 3.05-.99 3.74-.57.1.07.23.18.24.5.02.79.24 1.56.64 2.34l-.23.19a2.6 2.6 0 0 0-1 2.15v3h3.03c.84.03 1.65-.34 2.18-.99l.18-.24c.8.41 1.57.62 2.37.64.33.02.44.14.5.25.42.67-.08 2.56-.58 3.7l-.75 1.7 1.64-.94c.1-.05 2.34-1.35 3.44-2.1.44-.3.73-.73.83-1.25.23-1.1.9-3.57 1.1-4.28.52-.4 1.05-.85 1.62-1.35 5.6-4.87 6.1-15.5 6.11-15.95l.03-.66-.67.03z" fill-rule="nonzero"/>
</svg>