<svg width="111" height="30" viewBox="0 0 111 30" xmlns="http://www.w3.org/2000/svg">
    <path d="M0 15.18v-.03c0-3.2 2.44-5.86 5.84-5.86 2.1 0 3.35.73 4.51 1.8l-.9.93a5.07 5.07 0 0 0-3.62-1.55 4.48 4.48 0 0 0-4.48 4.64v.04a4.5 4.5 0 0 0 4.48 4.67c1.58 0 2.62-.6 3.73-1.63l.86.82A6.07 6.07 0 0 1 5.79 21 5.7 5.7 0 0 1 0 15.18zm26.51 5.63V9.49h1.3V20.8h-1.3zM31.2 9.49h1.22l7.28 9.07V9.49h1.27V20.8h-1.04l-7.46-9.29v9.29H31.2V9.49zm22.68 0h2.73l2.4 7.66 2.58-7.7h2.18l2.6 7.7 2.39-7.66h2.66l-3.95 11.4h-2.21l-2.61-7.41-2.6 7.4h-2.22l-3.95-11.4zM73.41 20.8V9.49h2.54V20.8h-2.54zm8.12-9.03h-3.51v-2.3h9.57v2.3h-3.51v9.03h-2.55v-9.03zm-59.25 3.4v-.03a4.54 4.54 0 1 0-9.08-.04v.04a4.54 4.54 0 1 0 9.08.03zm-10.43 0v-.03a5.8 5.8 0 0 1 5.91-5.86c3.52 0 5.88 2.7 5.88 5.82v.04A5.8 5.8 0 0 1 17.73 21a5.74 5.74 0 0 1-5.88-5.82zm76.68 0v-.03a5.81 5.81 0 0 1 6.03-5.86c2.18 0 3.48.71 4.55 1.75l-1.61 1.83a4.3 4.3 0 0 0-2.96-1.28c-1.95 0-3.35 1.58-3.35 3.52v.04c0 1.94 1.37 3.55 3.35 3.55 1.32 0 2.13-.51 3.04-1.32l1.62 1.6A5.96 5.96 0 0 1 94.46 21a5.77 5.77 0 0 1-5.93-5.82zm12.7-5.7h2.54v4.49h4.69V9.49H111V20.8h-2.54v-4.55h-4.69v4.55h-2.54V9.49zM46.52 19.95l-.02.01a1.47 1.47 0 0 1-.73.27l-.14.02h-.03a1.45 1.45 0 0 1-1.43-1.46c.02-.78.67-1.4 1.46-1.4h.03c.78.01 1.4.62 1.43 1.37v.08c0 .1-.01.2-.03.28 0 .04-.02.07-.03.1l-.05.15-.08.14-.05.09-.12.15-.04.05-.17.15zm2.77-9a1.3 1.3 0 0 1 .1-.75c0-.03.02-.05.03-.08a1.42 1.42 0 0 1 .15-.23l.06-.07c.06-.07.12-.13.2-.18l.02-.03.15-.1c.21-.12.46-.2.73-.2h.03c.8.02 1.45.68 1.43 1.47-.01.78-.66 1.4-1.46 1.4h-.03a1.45 1.45 0 0 1-1.4-1.22zm-.13 2.89c2.33.64 3.63 1.5 3.59 3.46v.04a3.2 3.2 0 0 1-2.02 3.02c-.93.51-3.18.58-4.36.57a2.26 2.26 0 0 0 1.55-2.07v-.13c.46-.04.94-.12 1.42-.26.55-.15.87-.48.88-.94v-.03c.01-.63-.38-.97-2.3-1.49-2.31-.63-3.8-1.29-3.76-3.53v-.04a3.18 3.18 0 0 1 1.87-2.87c.86-.51 2.37-.57 3.27-.56a2.23 2.23 0 0 0-.8 2.18c-.38.04-.75.11-1.2.27-.39.17-.6.46-.6.8v.04c-.02.74.47 1 2.46 1.54z" fill-rule="nonzero"/>
</svg>