<svg width="152" height="17" viewBox="0 0 112 13" xmlns="http://www.w3.org/2000/svg"><path d="M.45 6.82V6.8C.45 3.49 2.89.75 6.29.75c2.1 0 3.35.75 4.5 1.85l-.89.97a5 5 0 0 0-3.63-1.6c-2.56 0-4.47 2.1-4.47 4.79v.03c0 2.7 1.93 4.82 4.47 4.82 1.58 0 2.62-.61 3.73-1.68l.86.85a5.98 5.98 0 0 1-4.62 2.05c-3.34 0-5.8-2.65-5.8-6zm26.5 5.81V.95h1.3v11.68h-1.3zM31.62.95h1.22l7.28 9.36V.95h1.27v11.68h-1.04L32.9 3.05v9.58h-1.27V.95zm22.67 0h2.72l2.4 7.91L62 .91h2.17l2.6 7.95L69.16.95h2.65l-3.94 11.77h-2.21l-2.6-7.65-2.62 7.65h-2.2L54.3.95zm19.52 11.68V.95h2.54v11.68h-2.54zm8.12-9.31h-3.52V.95H88v2.37h-3.51v9.31h-2.54V3.32zm-59.22 3.5V6.8c0-2.65-1.92-4.82-4.56-4.82-2.64 0-4.52 2.13-4.52 4.79v.03c0 2.65 1.92 4.82 4.56 4.82 2.64 0 4.52-2.13 4.52-4.79zm-10.43 0V6.8c0-3.22 2.4-6.04 5.9-6.04 3.52 0 5.88 2.79 5.88 6v.04c0 3.22-2.4 6.04-5.9 6.04-3.52 0-5.88-2.79-5.88-6zm76.64 0V6.8A5.9 5.9 0 0 1 94.95.75c2.18 0 3.48.73 4.56 1.8l-1.62 1.89a4.24 4.24 0 0 0-2.95-1.32c-1.95 0-3.35 1.63-3.35 3.64v.03c0 2 1.37 3.67 3.35 3.67 1.32 0 2.12-.53 3.03-1.37l1.62 1.66a5.87 5.87 0 0 1-4.74 2.08 5.86 5.86 0 0 1-5.92-6zM101.62.95h2.54v4.62h4.68V.95h2.55v11.68h-2.55V7.94h-4.68v4.7h-2.54V.93zM46.94 11.74l-.02.01a1.43 1.43 0 0 1-.73.28l-.14.02h-.03c-.8-.02-1.44-.7-1.43-1.51.02-.8.67-1.45 1.46-1.45h.03c.78.02 1.4.65 1.43 1.42v.09c0 .1-.01.2-.03.28 0 .04-.02.08-.03.11l-.05.15-.08.15-.05.09-.12.16-.04.04-.17.16zm2.77-9.28a1.38 1.38 0 0 1 .1-.78l.03-.09a1.48 1.48 0 0 1 .15-.24l.06-.07c.06-.07.12-.13.2-.19l.02-.02.14-.1c.22-.13.47-.2.74-.2h.03c.8.01 1.45.68 1.43 1.5-.02.8-.67 1.45-1.46 1.45h-.03a1.46 1.46 0 0 1-1.41-1.26zm-.13 2.97c2.33.66 3.63 1.54 3.59 3.58v.03a3.3 3.3 0 0 1-2.02 3.12c-.93.53-3.18.6-4.36.6a2.32 2.32 0 0 0 1.55-2.15v-.13c.46-.04.94-.12 1.42-.27.55-.15.87-.49.88-.97V9.2c.01-.66-.38-1-2.3-1.54-2.31-.64-3.8-1.33-3.75-3.65V4c.02-1.36.74-2.4 1.87-2.97C47.3.5 48.8.43 49.7.45a2.32 2.32 0 0 0-.8 2.25c-.37.03-.74.11-1.18.28-.4.17-.6.47-.61.83v.03c-.02.77.47 1.03 2.46 1.59z" fill-rule="nonzero"/></svg>