<svg width="66" height="30" viewBox="0 0 66 30" xmlns="http://www.w3.org/2000/svg">
    <path d="M51.98 9.22c0 .67-.67 1.21-1.5 1.21-.82 0-1.49-.54-1.49-1.21 0-.67.67-1.22 1.5-1.22.82 0 1.49.55 1.49 1.22zM59.7 22c3.48 0 6.3-2.31 6.3-5.33 0-3.01-2.82-5.32-6.3-5.32s-6.3 2.31-6.3 5.32c0 3.02 2.82 5.33 6.3 5.33zm0-2.28c-1.98 0-3.53-1.22-3.53-3.05 0-1.83 1.55-3.04 3.53-3.04 1.97 0 3.53 1.21 3.53 3.04s-1.56 3.05-3.53 3.05zM9.8 21.8l-4.26-5.26 4.09-4.99H6.47L2.77 16v-4.45H0V21.8h2.77v-4.75l3.88 4.75H9.8zm5.1.2c2.67 0 4.67-1.32 4.67-3.51v-6.94H16.8v6.73c0 .78-.43 1.44-1.9 1.44s-1.9-.66-1.9-1.44v-6.73h-2.77v6.94c0 2.2 2 3.51 4.67 3.51zm13.42-4.89v-5.56h2.77V21.8h-2.07l-4.68-5.57v5.57h-2.77V11.55h2.08l4.67 5.56zm12.55 4.69h3.03l-4.12-10.25h-3.53L32.13 21.8h3.03l.6-1.61h4.5l.61 1.6zM36.6 18l1.42-3.77 1.42 3.76H36.6zm12.46 3.8V11.55h2.77V21.8h-2.77zm-2.53.05c.7 0 1.26-.55 1.26-1.22 0-.67-.56-1.22-1.26-1.22s-1.27.55-1.27 1.22c0 .67.56 1.22 1.27 1.22z" fill-rule="evenodd"/>
</svg>