<svg viewBox="0 0 67 15" xmlns="http://www.w3.org/2000/svg"><path d="M52.79 1.86c0 .68-.68 1.23-1.5 1.23-.84 0-1.52-.55-1.52-1.23 0-.67.68-1.22 1.51-1.22s1.51.55 1.51 1.22zm7.8 12.88c3.51 0 6.36-2.33 6.36-5.37 0-3.03-2.85-5.36-6.36-5.36-3.52 0-6.37 2.33-6.37 5.36 0 3.04 2.85 5.37 6.37 5.37zm0-2.3c-2 0-3.57-1.22-3.57-3.07 0-1.84 1.57-3.06 3.57-3.06 2 0 3.56 1.22 3.56 3.06 0 1.85-1.57 3.07-3.56 3.07zm-50.4 2.1l-4.3-5.3 4.13-5.02H6.84L3.09 8.7V4.22H.3v10.31h2.8V9.76l3.92 4.77h3.18zm5.16.2c2.69 0 4.72-1.33 4.72-3.54V4.22h-2.8v6.77c0 .79-.44 1.45-1.92 1.45-1.5 0-1.93-.66-1.93-1.45V4.22h-2.8v6.98c0 2.21 2.03 3.54 4.73 3.54zM28.9 9.82v-5.6h2.8v10.31h-2.1l-4.72-5.6v5.6h-2.8V4.22h2.1l4.72 5.6zm12.68 4.71h3.06L40.47 4.22h-3.56l-4.16 10.31h3.06l.6-1.62h4.55l.62 1.62zm-4.32-3.83l1.43-3.79 1.43 3.79h-2.86zm12.59 3.83V4.22h2.8v10.31h-2.8zm-2.57.05c.71 0 1.29-.54 1.29-1.22 0-.68-.58-1.23-1.29-1.23-.7 0-1.28.55-1.28 1.23 0 .68.58 1.22 1.28 1.22z" fill-rule="evenodd"/></svg>