<svg width="118" height="29" viewBox="0 0 87 22" xmlns="http://www.w3.org/2000/svg"><path d="M9.45.33l9.16 5.3V16.2l-9.16 5.28L.29 16.2V5.62L9.45.33zm0 1.52L1.6 6.38v9.06l7.85 4.53 7.85-4.53V6.38L9.45 1.85zm59.88 7.3c1.37 0 2.27 1.07 2.27 2.78 0 1.7-.9 2.78-2.25 2.78-.77 0-1.38-.38-1.69-.98h-.02v2.67h-1.11V9.24h1.07v.92h.02c.32-.62.94-1 1.71-1zm15.38 0c1.36 0 2.26 1.07 2.26 2.78 0 1.7-.9 2.78-2.24 2.78-.78 0-1.39-.38-1.7-.98h-.02v2.67h-1.1V9.24h1.06v.92H83c.32-.62.94-1 1.72-1zm-8.86-1.91v4.69c0 1.05.66 1.8 1.84 1.8 1.18 0 1.85-.75 1.85-1.8v-4.7h1.14v4.8c0 1.59-1.14 2.71-3 2.71-1.84 0-2.98-1.12-2.98-2.72V7.24h1.15zm-29.96 1.9c1.5 0 2.42 1.05 2.42 2.69v.37h-3.8v.07c0 .94.57 1.56 1.45 1.56.63 0 1.1-.32 1.24-.8h1.05c-.15.99-1.08 1.69-2.31 1.69-1.58 0-2.54-1.07-2.54-2.77 0-1.68.97-2.8 2.49-2.8zm17.23 0c1.54 0 2.56 1.06 2.56 2.79s-1.02 2.79-2.56 2.79c-1.53 0-2.55-1.06-2.55-2.8 0-1.72 1.02-2.78 2.55-2.78zm-27.25 0c1.3 0 2.14.7 2.14 1.77v3.7h-1.06v-.88h-.03c-.3.6-.99.98-1.7.98-1.05 0-1.78-.65-1.78-1.62 0-.94.72-1.52 2-1.6l1.47-.08V11c0-.6-.4-.96-1.08-.96-.64 0-1.04.3-1.14.79h-1.04c.06-.97.9-1.69 2.22-1.69zM50.6 7.96v1.28h1.02v.87H50.6v2.97c0 .46.2.67.65.67.12 0 .3 0 .37-.02v.87c-.13.03-.37.05-.62.05-1.09 0-1.51-.41-1.51-1.45v-3.09h-.78v-.87h.78V7.96h1.11zm-25.91-.72l1.36 5.78h.04l1.56-5.78h1.07l1.56 5.78h.04l1.37-5.78h1.19l-2 7.38h-1.07l-1.6-5.57h-.05l-1.6 5.57h-1.08L23.5 7.24h1.2zm15.53 0v7.38h-1.1V7.24h1.1zm2.28 0v7.38h-1.1V7.24h1.1zm17.51 0v.99h-2.25v6.39h-1.15v-6.4h-2.26v-.98h5.66zm-23.1 4.94l-1.33.08c-.65.05-1.03.34-1.03.8 0 .47.39.78.98.78.78 0 1.38-.54 1.38-1.24v-.42zm26.21-2.13c-.86 0-1.42.69-1.42 1.88 0 1.2.56 1.88 1.42 1.88.87 0 1.43-.69 1.43-1.88 0-1.2-.56-1.88-1.43-1.88zm5.92.03c-.84 0-1.41.74-1.41 1.85 0 1.12.56 1.84 1.41 1.84.88 0 1.42-.71 1.42-1.84 0-1.13-.54-1.85-1.42-1.85zm15.37 0c-.84 0-1.4.74-1.4 1.85 0 1.12.56 1.84 1.4 1.84.88 0 1.43-.71 1.43-1.84 0-1.13-.55-1.85-1.43-1.85zm-38.52-.05c-.77 0-1.31.59-1.37 1.4h2.69c-.03-.82-.55-1.4-1.32-1.4z" fill-rule="nonzero"/></svg>