<svg width="86" height="30" viewBox="0 0 86 30" xmlns="http://www.w3.org/2000/svg">
    <path d="M9.09 5l9.08 5.25v10.5L9.1 26 0 20.75v-10.5L9.09 5zm0 1.5L1.29 11v9l7.8 4.5 7.78-4.5v-9L9.1 6.5zm59.41 7.25c1.35 0 2.25 1.07 2.25 2.76 0 1.7-.89 2.76-2.23 2.76-.77 0-1.37-.37-1.68-.97h-.02v2.65h-1.1v-7.1h1.06v.91h.02c.31-.61.93-1 1.7-1zm15.25 0c1.36 0 2.25 1.07 2.25 2.76 0 1.7-.89 2.76-2.23 2.76-.76 0-1.37-.37-1.68-.97h-.02v2.65h-1.1v-7.1h1.06v.91h.02c.32-.61.93-1 1.7-1zm-8.79-1.9v4.66c0 1.05.66 1.78 1.83 1.78s1.83-.73 1.83-1.78v-4.65h1.13v4.75c0 1.58-1.12 2.7-2.96 2.7-1.84 0-2.96-1.12-2.96-2.7v-4.75h1.13zm-29.72 1.9c1.48 0 2.4 1.04 2.4 2.66v.38h-3.76v.06c0 .93.55 1.55 1.43 1.55.63 0 1.09-.32 1.23-.79h1.05c-.16.98-1.08 1.67-2.3 1.67-1.57 0-2.52-1.06-2.52-2.74 0-1.68.96-2.8 2.47-2.8zm17.1 0c1.52 0 2.53 1.05 2.53 2.76 0 1.72-1 2.77-2.53 2.77-1.53 0-2.53-1.05-2.53-2.77 0-1.71 1-2.77 2.53-2.77zm-27.04 0c1.3 0 2.12.68 2.12 1.75v3.68h-1.05v-.88h-.02c-.31.6-.99.97-1.69.97-1.04 0-1.77-.65-1.77-1.6 0-.94.71-1.51 1.98-1.58l1.46-.1v-.4c0-.6-.4-.95-1.07-.95-.63 0-1.03.3-1.13.78H33.1c.06-.96.88-1.68 2.2-1.68zm14.61-1.17v1.26h1.02v.87H49.9v2.94c0 .47.2.67.65.67.12 0 .3 0 .36-.02v.87c-.12.03-.36.05-.6.05-1.09 0-1.5-.41-1.5-1.44V14.7h-.78v-.87h.77v-1.26h1.1zm-25.7-.72l1.35 5.73h.04l1.55-5.73h1.05l1.56 5.73h.04l1.35-5.73h1.18l-1.98 7.32h-1.07l-1.58-5.52h-.05l-1.58 5.52H25l-1.98-7.32h1.18zm15.4 0v7.32h-1.09v-7.32h1.1zm2.27 0v7.32h-1.1v-7.32h1.1zm17.38 0v.98h-2.24v6.34h-1.14v-6.34h-2.24v-.98h5.62zm-22.93 4.9l-1.31.08c-.66.05-1.03.34-1.03.8s.39.77.98.77c.76 0 1.36-.53 1.36-1.23v-.42zm26.01-2.11c-.86 0-1.42.68-1.42 1.86 0 1.19.56 1.87 1.42 1.87.86 0 1.42-.68 1.42-1.87 0-1.18-.56-1.86-1.42-1.86zm5.87.03c-.84 0-1.4.73-1.4 1.83 0 1.11.56 1.84 1.4 1.84.87 0 1.41-.72 1.41-1.84 0-1.11-.54-1.83-1.4-1.83zm15.25 0c-.83 0-1.4.73-1.4 1.83 0 1.11.56 1.84 1.4 1.84.87 0 1.41-.72 1.41-1.84 0-1.11-.54-1.83-1.4-1.83zm-38.22-.05c-.77 0-1.3.58-1.36 1.39h2.67c-.03-.82-.54-1.4-1.3-1.4z" fill-rule="nonzero"/>
</svg>