<svg viewBox="0 0 86 15" xmlns="http://www.w3.org/2000/svg"><g fill-rule="evenodd"><path d="M14.37.99H7.7A6.7 6.7 0 0 0 .89 7.55v.43a6.7 6.7 0 0 0 6.82 6.57h6.68a6.7 6.7 0 0 0 6.82-6.57v-.43A6.74 6.74 0 0 0 14.37 1zM3.5 7.98v-.43a4.12 4.12 0 0 1 4.2-4.03h4.8L6.6 11.87a4.1 4.1 0 0 1-3.08-3.9zm15.05 0a4.12 4.12 0 0 1-4.2 4.03H9.5l5.93-8.35a4.05 4.05 0 0 1 3.14 3.9v.42z" fill-rule="nonzero"/><path d="M66.38 6.97a3.2 3.2 0 0 0-.77-2.25 2.72 2.72 0 0 0-2.1-.85c-.88 0-1.58.28-2.12.82V.45H59.3V11.7h2.1V7.25a1.45 1.45 0 0 1 1.47-1.5c.42 0 .77.14 1.03.42.26.28.4.63.4 1.08v4.48h2.08V6.97zM42.12 8.59h-5.39c.14.49.4.86.77 1.12.38.26.85.4 1.41.4.75 0 1.48-.26 2.13-.77l.87 1.43a4.59 4.59 0 0 1-3.07 1.15 4.1 4.1 0 0 1-3-1.15 3.85 3.85 0 0 1-1.2-2.86 3.9 3.9 0 0 1 1.15-2.87 3.9 3.9 0 0 1 2.86-1.17c1.06 0 1.93.35 2.6 1.03.68.68 1.01 1.53 1.01 2.54 0 .37-.04.75-.14 1.15zm-4.7-2.6c-.34.27-.57.65-.69 1.12h3.5c0-.47-.17-.85-.5-1.13-.33-.28-.7-.42-1.17-.42-.42 0-.82.14-1.15.42zm-3.74 3.96v1.76h-6.75v-.57L30.6 5.8h-3.3V4.04h6.35v.56L30 9.95h3.68zm15.08-4.06V4.04a2.8 2.8 0 0 0-.68-.1c-.9 0-1.6.35-2.11 1.03v-.93h-1.93v7.67h2.1V7.88c0-.65.18-1.17.55-1.5.38-.33.87-.5 1.5-.5h.57zm7.73-.87c.8.77 1.22 1.71 1.22 2.84s-.4 2.09-1.22 2.86a4.07 4.07 0 0 1-2.93 1.17 4 4 0 0 1-4.1-4c0-1.13.4-2.1 1.2-2.85a4 4 0 0 1 2.9-1.15 3.94 3.94 0 0 1 2.93 1.13zm-4.33 1.36c-.38.4-.57.9-.57 1.5 0 .61.19 1.1.57 1.5.37.4.84.6 1.43.6.56 0 1.03-.2 1.43-.6.37-.4.56-.89.56-1.47 0-.61-.19-1.1-.56-1.5-.38-.4-.85-.62-1.43-.62a1.78 1.78 0 0 0-1.43.6zm23.23 1.95a3.43 3.43 0 0 1-3.52 3.56 3.52 3.52 0 0 1-2.56-.98c-.65-.66-1-1.53-1-2.58v-4.3h2.08V8.5c0 .45.14.8.42 1.08.29.26.64.4 1.06.4A1.4 1.4 0 0 0 73.3 8.5V4.04h2.09v4.29zM85.5 7.9c0-1.18-.35-2.14-1.05-2.89a3.44 3.44 0 0 0-2.67-1.15c-.99 0-1.76.3-2.3.92V.45H77.4v11.3h1.92v-.96c.57.78 1.39 1.15 2.47 1.15 1.07 0 1.96-.4 2.67-1.15a4.13 4.13 0 0 0 1.05-2.88zm-2.13-.05c0 .66-.19 1.15-.56 1.55-.38.4-.87.58-1.43.56-.52 0-.99-.19-1.36-.54-.38-.35-.57-.87-.57-1.57 0-.68.2-1.2.57-1.57.4-.35.84-.54 1.38-.54.56 0 1.03.19 1.4.58.38.38.57.9.57 1.53z"/></g></svg>