<svg width="85" height="30" viewBox="0 0 85 30" xmlns="http://www.w3.org/2000/svg">
    <path d="M13.54 8.54c3.79 0 6.85 2.93 6.87 6.52v.42c0 3.6-3.08 6.52-6.85 6.52h-6.7C3.05 22 0 19.06 0 15.48v-.42c0-3.59 3.06-6.52 6.85-6.52zm1.06 2.65l-5.96 8.3h4.9c2.33 0 4.21-1.8 4.21-4.01v-.42a4.04 4.04 0 0 0-3.15-3.87zM78.95 8v4.3c.54-.6 1.32-.9 2.3-.9 1.09 0 1.98.37 2.69 1.14A4 4 0 0 1 85 15.41c0 1.14-.35 2.1-1.06 2.86-.7.75-1.6 1.14-2.68 1.14-1.09 0-1.91-.37-2.48-1.14v.96h-1.93V8h2.1zm-41.02 3.4c1.06 0 1.93.35 2.62 1.03a3.39 3.39 0 0 1 1 2.51c0 .37-.04.75-.13 1.14H36c.14.5.4.87.78 1.12.38.26.85.4 1.41.4.75 0 1.48-.26 2.14-.77l.87 1.42a4.64 4.64 0 0 1-3.08 1.14 4.14 4.14 0 0 1-3.01-1.14 3.8 3.8 0 0 1-1.2-2.84 3.95 3.95 0 0 1 4.03-4zm14.98.02a3.98 3.98 0 0 1 2.94 1.12c.8.77 1.22 1.7 1.22 2.82 0 1.12-.4 2.07-1.22 2.84a4.11 4.11 0 0 1-2.94 1.17 4.04 4.04 0 0 1-2.92-1.14 3.8 3.8 0 0 1-1.2-2.85c0-1.11.4-2.07 1.2-2.81a4.04 4.04 0 0 1 2.92-1.15zm16.9.14V16c0 .44.14.8.43 1.07.28.26.63.4 1.06.4.4 0 .75-.14 1-.4.3-.25.43-.63.43-1.07v-4.43h2.1v4.27a3.39 3.39 0 0 1-3.53 3.54 3.55 3.55 0 0 1-2.57-.98 3.47 3.47 0 0 1-1.01-2.56v-4.27h2.1zm-58.13-.5H6.85a4.11 4.11 0 0 0-4.21 4v.42a4.09 4.09 0 0 0 3.08 3.86l5.96-8.29zM60.78 8v4.22a2.89 2.89 0 0 1 2.11-.82c.9 0 1.6.28 2.12.84.52.56.78 1.3.78 2.24v4.72h-2.1v-4.44c0-.45-.14-.8-.4-1.08a1.36 1.36 0 0 0-1.04-.42 1.45 1.45 0 0 0-1.48 1.5v4.42h-2.1V8h2.1zm-27.89 3.56v.56l-3.65 5.31h3.7v1.75h-6.78v-.56l3.67-5.3h-3.32v-1.76h6.38zm14.5-.09c.27 0 .5.05.69.1v1.83h-.56a2.2 2.2 0 0 0-1.51.5c-.38.32-.57.83-.57 1.48v3.8h-2.1v-7.62h1.94v.94a2.54 2.54 0 0 1 2.12-1.03zm5.54 1.84a1.8 1.8 0 0 0-1.44.58c-.37.4-.56.89-.56 1.5 0 .6.19 1.09.56 1.49.38.4.85.58 1.44.58.57 0 1.04-.19 1.44-.58.37-.4.56-.89.56-1.47 0-.6-.19-1.1-.56-1.5a1.9 1.9 0 0 0-1.44-.6zm27.95-.05c-.54 0-.99.2-1.39.54-.38.37-.56.89-.56 1.56 0 .7.18 1.21.56 1.56.38.35.85.54 1.37.54.56.02 1.06-.17 1.43-.56.38-.4.57-.89.57-1.54 0-.63-.2-1.14-.57-1.51-.37-.4-.85-.59-1.41-.59zm-43.04-.18c-.43 0-.83.14-1.16.42a2.1 2.1 0 0 0-.68 1.12h3.51c0-.47-.17-.84-.5-1.12-.32-.28-.7-.42-1.17-.42z" fill-rule="nonzero"/>
</svg>