<svg xmlns="http://www.w3.org/2000/svg" width="76" height="23" viewBox="0 0 76 23"><g><g><path fill="#aab7c4" d="M67.491 22.692v-2.239h3.732s1.344.15 1.344-.746-2.09-.747-2.09-.747c-1.642.299-2.986-.896-3.284-2.538v-.448c-.15-1.492 1.045-2.836 2.538-2.985h5.075v2.239h-3.732s-1.343-.299-1.343.746c0 .747 1.791.747 1.791.747s3.732-.299 3.732 2.687c.15 1.642-.896 3.135-2.687 3.434h-.597c0-.15 0-.15-.15-.15zm-16.87-9.703h7.475v2.239h-5.082v1.493h4.933v2.24h-4.933v1.641h5.082v2.09h-7.474zm8.51 9.703v-2.239h3.732s1.344.15 1.344-.746-2.09-.747-2.09-.747c-1.642.299-2.986-.896-3.284-2.388v-.448c-.15-1.493 1.045-2.837 2.538-2.986h5.075v2.09h-3.732s-1.343-.299-1.343.746c0 .747 1.791.747 1.791.747s3.732-.299 3.732 2.687c.15 1.642-.896 3.135-2.687 3.434h-.597l-.15-.15zm-23.14-5.673c.449.15 1.046-.149 1.195-.597.15-.448-.15-1.045-.597-1.194a.454.454 0 0 0-.597 0h-2.538v1.791zm-13.578 3.583l2.392-2.687-2.392-2.687h-5.082v1.493h4.933v2.24H17.33v1.641zm8.652.747V14.63l-2.985 3.284zm-2.09 1.343l-2.538-2.836-2.538 2.836h-8.957V12.99h8.808l2.687 3.135 2.837-3.135h7.613c1.493-.15 2.837.746 2.986 2.239v.597c0 2.837-1.045 3.732-4.18 3.732h-2.388v3.135zm16.72-5.673c.448.15 1.045-.149 1.195-.597.149-.448-.15-1.045-.597-1.194a.454.454 0 0 0-.598 0h-2.538v1.791zm1.344 3.733c0-.896-.746-1.493-1.642-1.493h-2.389v3.433H40.62V12.99h5.822c1.493-.299 2.836.746 2.986 2.239v.597c0 .896-.448 1.792-1.344 2.24.746.447 1.194 1.343 1.194 2.239v2.388H47.04zM42.112.299h2.24v9.853h-2.24zM24.497.3h7.006v2.24h-4.77V4.03h4.621v2.24h-4.621v1.642h4.77v2.09h-7.006zM7.179 5.514L6.134 2.688 4.94 5.514zm13.735-2.229l-2.837 6.718h-1.791l-2.837-6.718v6.718H8.971l-.747-2.09h-4.18l-.746 2.09H.76L4.492.15h3.135l3.434 8.957V.3h3.583l2.538 6.121L19.719.3h3.583v9.852l-2.388-.15zm36.127 2.23l-1.045-2.827-1.194 2.826zm6.121-2.08v6.568h-4.479l-.746-2.09h-4.18l-.747 2.09h-4.777s-2.985-.448-2.985-4.628C45.248.299 47.785.15 48.83.15h2.837v2.24h-2.24c-1.044.149-1.79 1.044-1.642 2.09v.746c0 3.284 3.882 2.24 4.031 2.24L54.653.15h3.135l3.433 8.808V.299h3.135l3.583 6.42V.299h2.24v9.853l-3.434-.15zm-25.827.895c.448.15 1.045-.15 1.195-.597.149-.448-.15-1.045-.598-1.194h-2.985V4.33zm1.344 3.732c0-.746-.747-1.493-1.493-1.493h-2.09v3.434h-2.24V.299h5.524c1.344-.149 2.687.747 2.837 2.09v.747c0 .895-.448 1.791-1.344 2.24.747.447 1.194 1.343 1.045 2.238v2.389h-2.24z"/></g></g></svg>