<svg xmlns="http://www.w3.org/2000/svg" width="41" height="35" viewBox="0 0 41 35"><g><g><path fill="#aab7c4" d="M15.418 8.175A9.818 9.818 0 0 0 8.4 15.192c-1.343 5.225 1.792 10.599 7.017 11.942zm11.644 11.794c1.344-5.225-1.94-10.45-7.166-11.794v18.96c3.583-.896 6.27-3.583 7.166-7.166zm4.777-2.389c0 7.763-6.42 14.182-14.182 14.182-7.763 0-14.182-6.419-14.182-14.182 0-7.763 6.42-14.182 14.182-14.182 7.763 0 14.182 6.42 14.182 14.182zm8.957.15v-.15C40.647 8.026 32.884.263 23.33.412h-6.867C7.356.711.19 8.474.489 17.73c0 9.256 7.464 16.87 16.72 17.02h6.12c9.555 0 17.169-7.615 17.467-17.02z"/></g></g></svg>