<svg xmlns="http://www.w3.org/2000/svg" width="82" height="15" viewBox="0 0 82 15"><g><g><path fill="#aab7c4" d="M50.442 7.734c-.15 3.882-3.135 7.017-7.017 6.868-3.881-.15-6.867-3.285-6.867-7.017 0-3.882 3.135-6.867 6.867-6.867 3.882 0 6.868 3.135 7.017 7.016zM77.91 4.9c0-1.197-.747-1.945-2.389-1.945h-.746v4.038h.746c1.642 0 2.389-.747 2.389-2.093zm2.687-.151c.15 1.94-1.194 3.583-2.986 3.881l4.03 5.524h-3.134l-3.434-5.375h-.298v5.375h-2.538V.867h3.732c2.986 0 4.628 1.344 4.628 3.882zM63.43.867h7.166v2.24h-4.628v2.985h4.478v2.24h-4.478v3.583h4.628v2.239H63.43zm-7.465 8.957L59.548.867h2.688l-5.524 13.585h-1.344L49.845.867h2.687zM32.527.867c1.045 0 2.24.15 3.135.746V4.6c-.746-.896-1.94-1.493-3.135-1.493-2.388.15-4.329 2.24-4.18 4.628v.299c0 2.389 1.941 4.18 4.33 4.18 1.194 0 2.239-.597 2.985-1.493v2.986c-1.045.448-2.09.746-3.284.746-3.732 0-6.718-3.135-6.718-6.867 0-3.882 2.986-7.017 6.867-6.718zm-7.613 8.957v.448c-.15 2.389-2.09 4.18-4.479 4.031-1.791 0-3.583-.896-4.478-2.538l1.642-1.642c.448 1.045 1.493 1.792 2.687 1.792h.15c.895 0 1.79-.896 1.79-1.941 0-.597-.298-1.045-.746-1.344-.597-.298-1.194-.597-1.791-.746-2.389-.747-3.135-1.792-3.135-3.583v-.15c.149-2.09 1.94-3.732 4.03-3.582 1.344 0 2.688.597 3.733 1.492l-1.344 1.792c-.597-.597-1.344-1.045-2.09-1.045-.896-.15-1.642.597-1.791 1.493 0 .746.447 1.045 1.94 1.642 2.986 1.194 3.732 2.09 3.882 3.882zM12.374.867h2.538v13.287h-2.538zM8.642 7.436c0-1.195-.448-2.39-1.344-3.286-.896-.747-2.24-1.195-3.434-1.045h-.746v8.811h.746c1.195.15 2.538-.298 3.434-1.045.896-.896 1.344-2.091 1.344-3.435zM5.059.866c3.582.15 6.419 3.136 6.27 6.72 0 1.94-.896 3.731-2.389 5.075-1.344 1.045-2.986 1.642-4.628 1.493H.58V.867z"/></g></g></svg>