<svg xmlns="http://www.w3.org/2000/svg" width="40" height="29" viewBox="0 0 40 29"><g><g><g><path fill="#aab7c4" d="M5.267.4C2.58.4.49 2.49.49 5.177V17.12c1.194.747 2.538 1.194 4.03 1.194 1.344 0 2.39-1.045 2.539-2.388V9.357h4.03v6.27c0 2.389-1.343 4.479-5.673 4.479-1.642 0-3.284-.299-4.777-.597v9.256h7.166c2.687 0 4.777-2.09 4.777-4.778V.4H5.267z"/></g><g opacity=".3"><path fill="#aab7c4" d="M18.706.4C16.02.4 13.93 2.49 13.93 5.177v5.673c1.195-1.194 3.285-1.94 6.718-1.791 1.344.149 2.538.298 3.732.597v2.24a10.16 10.16 0 0 0-3.583-1.195c-2.09-.15-3.881 1.343-4.18 3.284-.149 2.09 1.344 3.882 3.285 4.18h.746c1.344-.15 2.538-.597 3.583-1.194v2.24c-1.194.298-2.538.596-3.732.596-3.434.15-5.524-.597-6.718-1.791v10.45h7.166c2.687 0 4.777-2.09 4.777-4.777V.4z"/></g><g opacity=".2"><path fill="#aab7c4" d="M33.48 10.85h-3.134v2.687h3.135c.597-.149 1.045-.746 1.045-1.343s-.448-1.195-1.045-1.344zm-3.134 7.315h3.426c.745-.298 1.191-1.045 1.042-1.94-.149-.448-.595-.896-1.042-1.046h-3.426zM32.137.4C29.45.4 27.36 2.49 27.36 5.177v4.18h7.315c1.344-.15 2.538 1.045 2.687 2.389v.15c0 1.343-.895 2.388-2.24 2.537 1.494 0 2.688 1.194 2.837 2.687 0 1.493-1.343 2.687-2.836 2.687H27.36v8.958h7.016c2.688 0 4.778-2.09 4.778-4.778V.4z"/></g></g></g></svg>