<svg xmlns="http://www.w3.org/2000/svg" width="126" height="23" viewBox="0 0 126 23"><g><g><g><path fill="#aab7c4" d="M17.954 20.597c-1.94 1.493-4.329 2.389-6.867 2.389C4.967 22.986.04 17.91.04 11.64.04 5.37 4.966.294 11.087.443c2.538 0 4.927.896 6.867 2.389-2.537 2.09-4.18 5.225-4.18 8.808s1.643 6.718 4.18 8.957zM123.8 11.64c0-1.344-.896-2.389-2.24-2.389-1.343 0-2.239 1.045-2.239 2.389 0 1.343.896 2.388 2.24 2.388 1.343 0 2.239-1.045 2.239-2.388zm1.493-7.315v10.898h-1.642v-.747c-.448.597-1.195 1.045-2.24 1.045-1.94 0-3.583-1.642-3.583-3.881 0-2.24 1.493-3.882 3.583-3.882 1.045 0 1.792.448 2.24 1.045V4.325zm-8.957 3.433c.447 0 .895 0 1.194.15l-.448 1.642a2.813 2.813 0 0 0-1.194-.299c-1.045 0-1.792.747-1.792 1.94v4.032h-1.642V7.908h1.642v.895c.448-.746 1.195-1.045 2.24-1.045zm-7.614 3.882c0-1.344-.896-2.389-2.24-2.389-1.343 0-2.239 1.045-2.239 2.389 0 1.343.896 2.388 2.24 2.388 1.343 0 2.239-1.045 2.239-2.388zm-.15-3.732h1.643v7.315h-1.642v-.598c-.448.598-1.195 1.045-2.24 1.045-1.94 0-3.583-1.642-3.583-3.881 0-2.24 1.493-3.881 3.583-3.881 1.045 0 1.792.447 2.24 1.045zM96.926 11.64c0 1.493.894 2.388 2.087 2.388.745 0 1.341-.298 1.788-.746l1.044 1.045c-.596.746-1.64 1.194-2.683 1.194-2.385 0-3.876-1.642-3.876-3.881 0-2.24 1.64-3.882 3.876-3.882 1.043 0 2.086.448 2.683 1.195L100.8 9.998c-.596-.448-1.043-.747-1.788-.747-1.193 0-2.087.896-2.087 2.389zm-3.133-3.882c.448 0 .896 0 1.195.15l-.448 1.642a2.813 2.813 0 0 0-1.195-.299c-1.045 0-1.791.747-1.791 1.94v4.032H89.91V7.908h1.642v.895c.448-.746 1.194-1.045 2.24-1.045zm-7.305 3.285c-.15-1.195-.748-1.792-1.796-1.792-1.198 0-1.796.747-1.946 1.792zm1.782.597v.597h-5.375c.15 1.194 1.045 1.791 2.09 1.791.747 0 1.493-.298 2.09-.746l.747 1.194c-.896.747-1.941 1.045-2.986 1.045-2.24 0-3.732-1.493-3.732-3.881 0-2.389 1.493-3.882 3.583-3.882s3.433 1.642 3.583 3.882zM79.46 13.43l.597 1.344a3.667 3.667 0 0 1-2.24.746c-1.642 0-2.537-.896-2.537-2.836V9.55h-1.493V8.057h1.493v-2.24h1.642v2.24h2.836V9.55h-2.836v3.135c0 .895.597 1.343 1.194 1.343.448 0 .896-.298 1.344-.597zm-7.017-.448c0 1.344-1.194 2.389-3.284 2.389-.747 0-2.09-.15-3.135-.896l.746-1.194c.448.448 1.195.746 2.389.746 1.045 0 1.642-.298 1.642-.895 0-.299-.299-.598-1.194-.747l-.747-.15c-1.493-.148-2.388-.895-2.388-2.09 0-1.492 1.194-2.388 2.985-2.388 1.195 0 2.24.299 2.986.747l-.746 1.194c-.448-.299-1.344-.597-2.24-.597-.895 0-1.343.448-1.343.896 0 .447.597.597 1.194.746l.747.15c1.642.298 2.537.895 2.388 2.09zM63.04 11.64c0-1.344-.896-2.389-2.24-2.389-1.343 0-2.239 1.045-2.239 2.389 0 1.343.896 2.388 2.24 2.388 1.343 0 2.24-1.045 2.24-2.388zm-.15-3.732h1.643v7.315H62.89v-.598c-.448.598-1.194 1.045-2.24 1.045-1.94 0-3.582-1.642-3.582-3.881 0-2.24 1.493-3.881 3.583-3.881 1.045 0 1.791.447 2.239 1.045zm-7.314 2.836v4.479h-1.642v-4.031c0-1.194-.598-1.94-1.643-1.94s-1.94.746-1.94 1.94v4.03h-1.642v-4.03c0-1.194-.598-1.94-1.643-1.94s-1.94.746-1.94 1.94v4.03h-1.642V7.909h1.642v.895c.597-.895 1.493-1.045 2.239-1.045 1.194 0 2.09.597 2.538 1.344.597-1.045 1.791-1.344 2.687-1.344 1.791 0 2.986 1.195 2.986 2.986z"/></g><g opacity=".2"><path fill="#aab7c4" d="M24.817.3c-2.538 0-4.926.896-6.867 2.389 2.538 2.09 4.18 5.225 4.18 8.808 0 3.582-1.642 6.717-4.18 8.807 1.94 1.493 4.33 2.39 6.867 2.39 6.121 0 11.047-5.077 11.047-11.197C35.864 5.376 30.938.3 24.817.3z"/></g><g opacity=".3"><path fill="#aab7c4" d="M22.133 11.648c0-3.583-1.642-6.718-4.18-8.808-2.538 2.09-5.673 5.225-5.673 8.808s2.986 6.718 5.673 8.808c2.538-2.09 4.18-5.225 4.18-8.808z"/></g></g></g></svg>