<svg xmlns="http://www.w3.org/2000/svg" width="46" height="29" viewBox="0 0 46 29"><g><g><g><path fill="#a9b6c4" d="M9.385.4H20.73c1.642 0 2.538 1.344 2.239 2.836l-5.225 22.692c-.299 1.642-1.94 2.837-3.583 2.837H2.816c-1.642 0-2.538-1.344-2.24-2.837L5.803 3.386C6.25 1.744 7.742.4 9.385.4"/></g><g><path fill="#bcc6d2" d="M19.835.4h12.988c1.642 0 .896 1.344.448 2.836l-5.225 22.692c-.299 1.642-.299 2.837-1.792 2.837H13.266c-1.642 0-2.538-1.344-2.24-2.837l5.226-22.542C16.7 1.744 18.192.4 19.835.4"/></g><g><path fill="#cfd6de" d="M32.375.4H43.72c1.642 0 2.538 1.344 2.239 2.836l-5.225 22.692c-.299 1.642-1.94 2.837-3.583 2.837H25.806c-1.642 0-2.538-1.344-2.24-2.837l5.226-22.542C29.09 1.744 30.732.4 32.375.4"/></g><g><path fill="#fff" d="M32.83 21.744h.298l-.299.895h-.298l-.15.299h-1.343l.15-.299H28.5l.299-.895h.298l1.344-4.628.298-.896h1.344l-.15.448s.3-.299.747-.299c.299-.149 2.24-.149 2.24-.149l-.3.896h-.447zm-1.046-4.628l-.298 1.194s.448-.15.597-.299c.15 0 .597-.149.597-.149l.299-.896h-1.195zm-.448 1.793l-.298 1.202s.448-.15.597-.3c.15 0 .597-.15.597-.15l.299-.903h-1.195zm-.895 2.843h1.045l.298-1.052H30.74z"/></g><g><path fill="#fff" d="M34.77 16.22h1.493v.597c0 .15 0 .15.298.15h.299l-.299.895h-.746c-.597 0-.896-.298-.896-.597z"/></g><g><path fill="#fff" d="M34.919 20.409h-1.344l.299-.747h1.492l.15-.746h-1.493l.298-.896h4.33l-.299.896H36.86l-.298.746h1.493l-.299.747h-1.493l-.298.298h.597l.149 1.045v.15H37.158l-.299.895h-.746c-.15 0-.299-.15-.299-.15-.149 0-.149-.148-.298-.298l-.15-1.045-.746 1.045c-.299.299-.597.597-1.045.597H32.53l.299-.895h.447c.15 0 .15 0 .299-.15 0 0 .15 0 .15-.149z"/></g><g><path fill="#fff" d="M19.986 18.31h3.583l-.299.896h-1.493l-.15.746h1.494l-.299.896H21.33l-.298 1.194c0 .15.298.15.448.15l.746-.15-.299 1.045h-2.09c-.149 0-.149-.15-.298-.15 0-.148-.15-.148-.15-.447l.448-1.642h-.746l.299-.896h.895l.15-.746h-.747z"/></g><g><path fill="#fff" d="M22.378 16.667h1.493l-.299.896h-2.09l-.15.15c-.148.148-.148 0-.298.148-.149 0-.298.15-.597.15h-.597l.299-.896H20.586s.15-.15.15-.299l.298-.746h1.493z"/></g><g><path fill="#fff" d="M24.62 16.22h1.194l-.149.597s.448-.298.746-.448c.299-.149.896-.149.896-.149h2.09l-.746 2.389c-.15.447-.299.597-.299.746l-.298.299c-.15.149-.299.149-.448.149H25.068l-.597 1.791c0 .15-.15.299 0 .299l.149.15.896-.15-.299 1.045h-1.94c-.15 0-.3 0-.448-.15-.15-.149-.299-.149-.299-.298 0-.15 0-.299.15-.448zm2.69 2.389h-2.096l-.15.447h2.096zm-2.097-.448s.45-.299 1.048-.448h1.198l.15-.448h-2.096z"/></g><g><path fill="#fff" d="M28.194 19.96l-.149.597c0 .15-.15.299-.299.448-.149.15-.298.299-.746.299h-.746v.746h.895l-.298.896h-.747c-.597 0-.895 0-1.045-.15-.149-.149-.149-.149-.149-.298v-2.389h1.194v.448H26.553l.148-.15.15-.447h1.343z"/></g><g><path fill="#fff" d="M10.735 7.71c0 .15-.896 3.881-.896 3.881-.149.747-.298 1.195-.746 1.643-.299.149-.448.298-.896.298s-.746-.298-.896-.746v-.15l.15-1.045s.895-3.284 1.045-3.732H6.555v.299l-.896 3.732v.299l-.149 1.045c0 .298 0 .597.15.746.447.746 1.492.746 2.09.746.746 0 1.492-.149 2.09-.447.895-.448 1.044-1.344 1.343-2.09l.15-.299s.895-3.434 1.044-3.881c-1.194-.299-1.642-.299-1.642-.299"/></g><g><path fill="#fff" d="M15.362 14.58H13.87c0-.298.15-.447.15-.746l.149-.298c.15-.597.298-1.195.298-1.344 0-.15 0-.448-.298-.448-.15 0-.299 0-.448.15-.15.298-.299 1.045-.299 1.492-.149.747-.149.896-.298 1.195H11.63c.15-.448.299-.896.299-1.344.298-1.194.298-1.791.447-2.388.598-.15.747-.15 1.493-.299l-.149.448c.15 0 .299-.15.299-.15.298-.149.746-.149.895-.149.299 0 .597.15.747.448.149.299 0 .747-.15 1.493l-.149.448c.15.597.15.746 0 1.493z"/></g><g><path fill="#fff" d="M17.753 14.584H16.26c.15-.298.15-.448.15-.597 0-.15.149-.298.149-.597.149-.448.149-.746.149-1.045 0-.299 0-.448.15-.746.298 0 .596-.15.746-.15.298 0 .447-.149.746-.149 0 .299-.15.597-.15.746 0 .299-.149.598-.149.747-.149.597-.149.746-.149.896 0 .447 0 .447-.15.895z"/></g><g><path fill="#fff" d="M22.824 12.49c0 .3-.149.896-.597 1.344-.448.597-1.194.747-1.791.747-.299 0-.597 0-.896-.15-.896-.298-.746-1.194-.597-1.791.15-.597.298-1.045.746-1.493.597-.597 1.344-.597 1.642-.597.598 0 1.045 0 1.344.448.15.15.299.597.15 1.493m-1.494 0c.15-.597.15-1.045-.149-1.045-.448 0-.597.597-.746 1.194-.15.15-.15.448-.15.597 0 .448.299.448.299.448.15 0 .299-.15.448-.299.15-.149.298-.746.298-.895"/></g><g><path fill="#fff" d="M36.853 14.58H35.36c.15-.596.299-1.343.448-1.94.15-.896.298-1.194.298-1.791.747-.15.896-.15 1.643-.299-.15.597-.299 1.045-.448 1.642a17.324 17.324 0 0 1-.448 2.389z"/></g><g><path fill="#fff" d="M37.154 12.645c0 .298-.15-.299-.598.149-.597.597-1.194 1.94-2.09 1.94-.149 0-.447 0-.746-.149-.896-.298-.746-1.194-.597-1.791.15-.597.298-1.045.746-1.493.597-.597 1.344-.746 1.642-.597.896.298.747 1.194.896 1.642.15.15.896-.597.747.299m-1.346 0c.149-.747 0-1.195-.297-1.045-.446 0-.595.597-.744 1.194-.148.15-.148.448-.148.597 0 .448.297.448.297.448.149 0 .446-.15.595-.299.148-.149.297-.746.297-.895"/></g><g><path fill="#fff" d="M26.702 14.58H25.21c0-.298.15-.447.15-.746l.149-.298c.15-.597.298-1.195.298-1.344 0-.15 0-.448-.298-.448-.15 0-.299 0-.448.15-.15.298-.299 1.045-.299 1.492-.149.747-.149.896-.298 1.195H22.97c.15-.448.15-.896.299-1.344.298-1.194.298-1.791.447-2.388.598-.15.747-.15 1.493-.299l-.149.448c.15 0 .299-.15.299-.15.298-.149.746-.149.895-.149.299 0 .597.15.747.448.149.299 0 .747-.15 1.493l-.149.448c.299.597.299.746 0 1.493z"/></g><g><path fill="#fff" d="M32.379 9.795c-.15.446-.448.892-.747 1.04-.298.15-.746.15-1.045.15h-.298v-.15l.447-2.081v-.298h.15s.895.15 1.045.15c.298.297.448.743.448 1.189M31.78 7.71h-2.388v.299l-.448 2.09S27.9 14.428 27.9 14.726h1.642c0-.149.299-1.492.299-1.492s.149-.896.298-.896c0 0 0-.15.15-.15h.149c.896 0 1.94 0 2.836-.597.597-.447.896-1.045 1.045-1.791 0-.15.15-.448.15-.597 0-.299 0-.597-.299-.747-.597-.746-1.493-.746-2.389-.746"/></g><g><path fill="#fff" d="M42.378 10.55c-.747.149-.896.149-1.493.149-.448 1.045-.448.895-.896 1.791v-.15l-.149-1.94-1.493.299v.149c.15.448 0 .298.15 1.045 0 .298.149.746.149 1.045 0 .597.149.896.149 1.642-.448.746-.597 1.045-1.045 1.642h1.344l.149-.15c.448-.596 3.135-5.523 3.135-5.523"/></g><g><path fill="#fff" d="M18.342 10.995c.448-.299.448-.597.15-.746-.299-.15-.896-.15-1.195.149-.447.298-.447.597-.149.746.299.15.896.15 1.194-.149"/></g><g><path fill="#fff" d="M39.248 16.22l-.597.896c-.15.298-.448.597-1.045.597h-.896l.299-.896h.299s.148 0 .148-.15l.299-.447z"/></g></g></g></svg>