<svg xmlns="http://www.w3.org/2000/svg" width="63" height="21" viewBox="0 0 63 21"><g><g><path fill="#aab7c4" d="M23.737.788l-8.061 19.407h-5.374L6.27 4.67c0-.746-.597-1.343-1.195-1.642C3.584 2.281 1.941 1.684.15 1.385L.3.788h8.509a2.26 2.26 0 0 1 2.239 1.94l2.09 11.197L18.512.788zM44.48 13.776c0 4.03-3.432 6.718-8.952 6.568-1.79 0-3.73-.298-5.52-1.045l.896-4.18c1.64.747 3.43 1.195 5.221 1.195 1.492 0 2.984-.597 2.984-1.941.15-.896-.597-1.493-2.536-2.389-1.79-.895-4.327-2.388-4.327-5.225 0-3.732 3.58-6.419 8.504-6.419 1.492 0 3.133.299 4.625.896l-.895 4.18c-1.492-.747-3.282-1.045-4.923-.896-1.045 0-1.94.597-2.09 1.642 0 2.24 7.013 2.538 7.013 7.614zm12.55 3.583h-6.42l-1.045 2.836h-5.225l7.464-17.914c.299-.896 1.195-1.493 2.09-1.493h4.33l4.03 19.407h-4.628zm-.896-4.031L54.64 6.013l-2.687 7.315zM30.893.788l-4.175 19.407h-5.07L25.822.788z"/></g></g></svg>