<svg width="40" height="40" viewBox="0 0 40 40" xmlns="http://www.w3.org/2000/svg" xmlns:xlink="http://www.w3.org/1999/xlink">
    <defs>
        <linearGradient x1="50%" y1="0%" x2="50%" y2="100%" id="b">
            <stop stop-color="#19E6FF" offset="0%"/>
            <stop stop-color="#1E51EE" offset="100%"/>
        </linearGradient>
        <path d="M26.05 0c4.02 0 6.03 0 8.19.68a8.5 8.5 0 015.08 5.08c.68 2.16.68 4.17.68 8.19v12.1c0 4.02 0 6.03-.68 8.19a8.5 8.5 0 01-5.08 5.08c-2.16.68-4.17.68-8.19.68h-12.1c-4.02 0-6.03 0-8.19-.68a8.5 8.5 0 01-5.08-5.08C0 32.08 0 30.07 0 26.05v-12.1c0-4.02 0-6.03.68-8.19A8.5 8.5 0 015.76.68C7.92 0 9.93 0 13.95 0h12.1z" id="a"/>
    </defs>
    <g fill="none" fill-rule="evenodd">
        <mask id="c" fill="#fff">
            <use xlink:href="#a"/>
        </mask>
        <use fill="url(#b)" xlink:href="#a"/>
        <path d="M10.3 27.8c.97 0 1.86.37 2.58.99.09.07.1.2.05.3l-1.82 3.13a1.94 1.94 0 01-2.83.58c-.8-.6-.98-1.73-.48-2.59L9 28.13a.38.38 0 01.22-.17c.35-.1.7-.16 1.08-.16zm12.1-13.67c.1-.15.3-.15.4 0l5.43 9.25h4.51a2 2 0 012.01 1.75 1.94 1.94 0 01-1.92 2.12h-2.36l1.72 2.96c.5.86.32 2-.48 2.59a1.93 1.93 0 01-2.83-.58l-4.2-7.23-3.28-5.68a.37.37 0 01-.05-.16 8.6 8.6 0 011.05-5.02zM20.52 8.3a1.94 1.94 0 012.8-.6 2 2 0 01.51 2.62l-7.58 13.06h5.94c.12 0 .24.03.33.09a3.43 3.43 0 011.53 3.68.13.13 0 01-.13.1H7.27a1.94 1.94 0 01-1.93-2.12 2 2 0 012.01-1.75h4.41l6-10.33-1.63-2.8A1.94 1.94 0 0117 7.5a2 2 0 012.52.86l.47.82z" fill="#FFF" mask="url(#c)"/>
    </g>
</svg>
