<svg width="419" height="250" xmlns="http://www.w3.org/2000/svg" xmlns:xlink="http://www.w3.org/1999/xlink">
    <defs>
        <rect id="c" width="50" height="50" rx="8.75"/>
        <path d="M12.5 0h393.75c6.9 0 12.5 5.6 12.5 12.5V235c0 6.9-5.6 12.5-12.5 12.5H12.5C5.6 247.5 0 241.9 0 235V12.5C0 5.6 5.6 0 12.5 0z" id="a"/>
    </defs>
    <g fill="none" fill-rule="evenodd">
        <path d="M18.75 2.5H400c10.36 0 18.75 8.4 18.75 18.75v210c0 10.36-8.4 18.75-18.75 18.75H18.75A18.75 18.75 0 010 231.25v-210C0 10.89 8.4 2.5 18.75 2.5z" fill="#3E4044"/>
        <mask id="b" fill="#fff">
            <use xlink:href="#a"/>
        </mask>
        <use fill="#0B0C0D" xlink:href="#a"/>
        <path d="M68 272V167.5h22.68v11.56C96.2 171.56 103.8 166 115.6 166c18.65 0 36.4 14.71 36.4 41.89 0 26.87-17.46 41.59-36.4 41.59-12.09 0-19.55-5.56-24.92-12.01V272H68zm41.43-41c10.6 0 19.57-8.76 19.57-22.65 0-13.44-8.97-22.35-19.57-22.35C98.82 186 90 194.9 90 208.65 90 222.1 98.82 231 109.43 231zM163 248V139h23v109h-23zm61.25 1c-14.96 0-27.25-8.62-27.25-24.66 0-17.38 13.18-25.4 31.98-25.4 8 0 13.77 1.34 19.4 3.27v-1.34c0-9.36-5.77-14.56-17.03-14.56-8.59 0-14.66 1.64-21.91 4.31l-5.63-17.23c8.74-3.86 17.33-6.39 30.8-6.39 12.3 0 21.17 3.27 26.8 8.91 5.92 5.95 8.59 14.71 8.59 25.4v46.2h-21.77v-8.61c-5.48 6.09-13.03 10.1-23.98 10.1zm7.08-15c10.54 0 17.67-5.8 17.67-14v-4.02a34.92 34.92 0 00-14.4-2.98c-9.66 0-15.6 3.87-15.6 11.32 0 6.1 5.05 9.68 12.33 9.68zM284 248v-80.46h22.59v16.2c4.6-11.1 12.04-18.3 25.41-17.7v23.86h-1.19c-15 0-24.22 9.16-24.22 28.38V248H284zm59 0V139h22.55v58.08l26.41-29.11h27l-30.26 31.5L420 248h-25.82l-20.77-32.7-7.86 8.36V248H343z" fill="#16181A" mask="url(#b)"/>
        <g mask="url(#b)">
            <path d="M323.73 203.88h5.14c.96 0 1.75.8 1.75 1.75v10.12c0 .98-.75 1.75-1.75 1.75h-5.14c-1 0-1.75-.77-1.75-1.75v-10.12c0-.96.78-1.75 1.75-1.75zm0 11.87h5.14v-10.12h-5.14v10.12zm17.74-10.12h-6.02c-.45 0-.87-.24-.87-.87s.42-.88.87-.88h6.02c1 0 1.75.76 1.75 1.75V209c0 .7-.14 1.2-.68 1.7.54.48.68.99.68 1.69v3.36c0 1-.75 1.75-1.75 1.75h-6.02c-.45 0-.87-.25-.87-.88s.42-.87.87-.87h6.02v-2.9c0-.98-.38-1.28-.87-1.28h-3.43c-.46 0-.88-.25-.88-.88s.42-.87.88-.87h3.43c.49 0 .87-.3.87-1.28v-2.9zm14.16-.24l-6.72 11.5c-.21.37-.42.61-.86.61s-.87-.37-.87-.82c0-.34.2-.63.38-.91l6.55-11.22c.2-.35.42-.67.85-.67.46 0 .86.37.86.83 0 .28-.08.49-.19.68zm5.9 6.18v4.18h6.02c.45 0 .87.25.87.88s-.42.87-.87.87h-7.77v-5.7c0-1.32.66-1.98 1.98-1.98h4.91v-4.19h-6.02c-.45 0-.87-.24-.87-.87s.42-.88.87-.88h5.81c.58 0 .98.1 1.42.5.49.45.54.92.54 1.55v3.59c0 .63-.05 1.1-.54 1.56-.44.4-.84.49-1.42.49h-4.93zm13.47-.26h3.4v-5.06c0-.44.2-.88.87-.88.67 0 .88.44.88.88v5.06c.45 0 .87.24.87.87s-.42.88-.87.88v3.56c0 .56-.25.88-.88.88s-.87-.31-.87-.88v-3.56h-5.15v-8.3c0-.44.21-.88.88-.88.66 0 .87.44.87.88v6.55z" fill="#CDD2DB" fill-rule="nonzero"/>
            <path d="M325.43 188.44v1.06h-4.56v-7.05h4.56v1.06h-3.3v1.91h3.12v1h-3.12v2.02h3.3zm3.13 1.06l2.3-3.55-2.28-3.5h1.49l1.6 2.61h.09l1.63-2.6h1.41l-2.36 3.52 2.32 3.52h-1.45l-1.64-2.55h-.08l-1.66 2.55h-1.37zm9.54-7.05h2.84c1.41 0 2.37.96 2.37 2.38 0 1.39-1 2.34-2.42 2.34h-1.53v2.33h-1.26v-7.05zm1.26 1.03v2.68h1.25c.9 0 1.42-.48 1.42-1.33 0-.88-.51-1.35-1.42-1.35h-1.25zm8.6 6.02h-1.26v-7.05h1.26v7.05zm5-2.65v2.65h-1.26v-7.05h2.86c1.48 0 2.4.85 2.4 2.2 0 .93-.48 1.7-1.32 2l1.53 2.85h-1.44l-1.38-2.65h-1.4zm0-3.38v2.4h1.45c.8 0 1.26-.44 1.26-1.2 0-.74-.49-1.2-1.29-1.2h-1.42zm12.09 4.97v1.06h-4.56v-7.05h4.56v1.06h-3.3v1.91h3.12v1h-3.12v2.02h3.3zm3.24-.85h1.23c.08.65.7 1.06 1.6 1.06.83 0 1.43-.44 1.43-1.04 0-.51-.39-.82-1.3-1.03l-.9-.21c-1.28-.3-1.89-.93-1.89-1.97 0-1.27 1.05-2.12 2.63-2.12 1.48 0 2.55.84 2.6 2.05h-1.2c-.09-.63-.64-1.03-1.4-1.03-.82 0-1.36.4-1.36 1.01 0 .49.36.77 1.23.97l.82.19c1.43.32 2.03.92 2.03 1.99 0 1.37-1.06 2.22-2.77 2.22-1.62 0-2.69-.81-2.75-2.09z" fill="#6D7278" fill-rule="nonzero"/>
            <g transform="translate(31.25 25)">
                <mask id="d" fill="#fff">
                    <use xlink:href="#c"/>
                </mask>
                <use fill="#B4BBC4" xlink:href="#c"/>
                <rect stroke="#6D7278" stroke-width="1.25" mask="url(#d)" x="5.63" y="5.63" width="38.75" height="38.75" rx="5"/>
                <g mask="url(#d)" stroke="#6D7278" stroke-width="1.25">
                    <path d="M0 18.75h50M25 52.5V.17"/>
                    <path d="M20 9.38a.62.62 0 00-.63.62v3.4c0 1.04-.83 1.88-1.87 1.88h-1.25a.62.62 0 00-.63.63v17.95c0 .35.28.63.63.63h1.25c1.04 0 1.88.84 1.88 1.87V40c0 .35.27.63.62.63h10c.35 0 .63-.28.63-.63v-3.64c0-1.03.83-1.87 1.87-1.87h1.25c.35 0 .63-.28.63-.63V15.91a.62.62 0 00-.63-.63H32.5a1.88 1.88 0 01-1.88-1.87V10a.62.62 0 00-.62-.63H20z" fill="#B4BBC4"/>
                    <path d="M0 25.63h15m20 0h15M0 31.88h15m20 0h15"/>
                </g>
            </g>
            <path d="M33.23 216.63v-12.75H41c.45 0 .87.25.87.88s-.42.88-.87.88h-6.02v2.69h4.3c.46 0 .88.24.88.88 0 .63-.42.87-.88.87h-4.3v6.54c0 .56-.25.88-.88.88s-.87-.31-.87-.88zm14.35-6.51v6.5c0 .56-.25.88-.88.88s-.87-.31-.87-.88v-12.74h5.88c1.38 0 2.76.99 2.76 2.54v1.21c0 1.65-1.36 2.49-2.76 2.49H50.1l3.93 5.63c.2.26.44.6.44.93 0 .49-.4.82-.89.82-.35 0-.58-.21-.77-.49l-4.83-6.9h-.4zm0-4.49v2.74h3.88c.5 0 1.26-.04 1.26-.74v-1.2c0-.7-.72-.8-1.24-.8h-3.9zm12.6 10.12h6.02c.45 0 .87.25.87.88s-.42.87-.87.87h-7.77v-10.64h7.77c.45 0 .87.24.87.88 0 .63-.42.87-.87.87h-6.02v2.47h2.57c.45 0 .88.24.88.87s-.43.88-.88.88h-2.57v2.92zm.8-11.08l3.28-1.4a.86.86 0 01.38-.09c.47 0 .87.51.87 1 0 .32-.07.58-.42.74l-3.53 1.2a.98.98 0 01-.33.07c-.37 0-.67-.45-.67-.9a.7.7 0 01.42-.62zm11.76 11.08v-10.12h-.64c-.58 0-1.07-.2-1.07-.87 0-.63.47-.88 1.01-.88h2.92c1.37 0 2.05.56 2.65 1.75l1.54 3.09a4.1 4.1 0 01.02 3.95l-1.6 3.19c-.61 1.24-1.4 1.64-2.76 1.64h-2.9c-.46 0-.88-.25-.88-.88s.42-.87.87-.87h.84zm1.75-10.12v10.12h.34c.73 0 .9-.09 1.22-.74l1.54-3.11c.2-.4.33-.7.33-1.14 0-.6-.19-.92-.43-1.43l-1.46-2.96c-.36-.75-.52-.74-1.33-.74h-.2zm10.89 10.12h6.02c.45 0 .87.25.87.88s-.42.87-.87.87h-7.77v-10.64h7.77c.45 0 .87.24.87.88 0 .63-.42.87-.87.87h-6.02v2.47h2.57c.45 0 .88.24.88.87s-.42.88-.88.88h-2.57v2.92zm.8-11.08l3.27-1.4a.86.86 0 01.39-.09c.47 0 .88.51.88 1 0 .32-.07.58-.42.74l-3.54 1.2a.98.98 0 01-.33.07c-.37 0-.67-.45-.67-.9a.7.7 0 01.42-.62zm11.8 5.45v6.5c0 .56-.25.88-.88.88s-.87-.31-.87-.88v-12.74h5.88c1.38 0 2.76.99 2.76 2.54v1.21c0 1.65-1.36 2.49-2.76 2.49h-1.61l3.94 5.63c.19.26.43.6.43.93 0 .49-.4.82-.89.82-.35 0-.58-.21-.77-.49l-4.83-6.9h-.4zm0-4.49v2.74h3.88c.5 0 1.26-.04 1.26-.74v-1.2c0-.7-.71-.8-1.24-.8h-3.9zm16.05 0v10.12h2.57c.45 0 .87.25.87.88s-.42.87-.87.87h-6.9c-.45 0-.87-.25-.87-.88s.42-.87.87-.87h2.58v-10.12h-2.58c-.45 0-.87-.24-.87-.87s.42-.88.87-.88h6.9c.45 0 .87.25.87.88s-.42.88-.87.88h-2.57zm12.88 11.87l-.63-1.6-1.16.99c-.49.42-.9.61-1.57.61-.6 0-1.14-.23-1.54-.66-.5-.55-.58-1.02-.58-1.72v-4.59c0-1.27.45-2.08 1.4-2.88l3.57-3.05c.45-.4.86-.72 1.49-.72 1.33 0 2.18.99 2.18 2.28v4.64c0 1.34-.35 2.11-1.38 3l-1.03.9.44 1.05h1.03c.52 0 .94.31.94.88 0 .73-.54.87-1.15.87h-2.02zm-.13-5.02l.21.5.4-.33c.81-.66.93-.9.93-1.96v-4.35c0-.28.04-.7-.35-.7-.2 0-.33.17-.49.3l-3.51 3.04c-.6.5-.8.84-.8 1.63v4.53c0 .28-.01.61.4.61.19 0 .38-.14.52-.26l1.5-1.31-.45-1.16c-.1-.25-.25-.56-.25-.82 0-.47.42-.84.88-.84.68 0 .79.6 1.01 1.12zm13.06 5.02h-2.98c-.87 0-1.55-.21-2.17-.9-.58-.64-.66-1.27-.66-2.07v-9.77c0-.56.24-.88.87-.88s.88.32.88.88v9.77c0 .97.3 1.22 1.08 1.22h2.98c.79 0 1.08-.25 1.08-1.22v-9.77c0-.56.25-.88.88-.88s.87.32.87.88v9.77c0 .8-.08 1.43-.66 2.08-.61.68-1.3.89-2.17.89zm8.54-1.75h6.02c.45 0 .87.25.87.88s-.42.87-.87.87h-7.77v-13.62h7.77c.45 0 .87.25.87.88s-.42.88-.87.88h-6.02v4.18h2.57c.46 0 .88.24.88.87s-.42.88-.88.88h-2.57v4.18zm25.2 0h6.02c.45 0 .87.25.87.88s-.42.87-.87.87h-7.77v-12.74c0-.56.24-.88.87-.88s.88.32.88.88v10.99zm12.6 0h6.02c.45 0 .87.25.87.88s-.42.87-.87.87h-7.77v-13.62h7.77c.45 0 .87.25.87.88s-.42.88-.87.88h-6.02v4.18h2.57c.46 0 .88.24.88.87s-.42.88-.88.88h-2.57v4.18zm12.56 0v-10.12h-.64c-.58 0-1.07-.2-1.07-.87 0-.63.47-.88 1.01-.88h2.93c1.36 0 2.04.56 2.64 1.75l1.54 3.09a4.1 4.1 0 01.02 3.95l-1.6 3.19c-.61 1.24-1.4 1.64-2.76 1.64h-2.9c-.46 0-.88-.25-.88-.88s.42-.87.87-.87h.84zm1.75-10.12v10.12h.34c.73 0 .9-.09 1.22-.74l1.54-3.11c.2-.4.33-.7.33-1.14 0-.6-.19-.92-.43-1.43l-1.46-2.96c-.36-.75-.52-.74-1.33-.74h-.2zm14.95 11.87h-2.98c-.87 0-1.55-.21-2.17-.9-.57-.64-.66-1.27-.66-2.07v-9.77c0-.56.24-.88.87-.88s.88.32.88.88v9.77c0 .97.3 1.22 1.08 1.22h2.98c.79 0 1.08-.25 1.08-1.22v-9.77c0-.56.25-.88.88-.88s.87.32.87.88v9.77c0 .8-.08 1.43-.66 2.08-.61.68-1.3.89-2.17.89zm14.56 0h-3.06c-1.32 0-2.07-.53-2.63-1.66l-1.61-3.26a3.93 3.93 0 01.02-3.78l1.6-3.24c.6-1.2 1.36-1.68 2.7-1.68H230c.38 0 .87.22.87.88 0 .63-.47.88-.87.88h-2.92c-.76 0-.88.07-1.21.73l-1.52 3.04c-.23.48-.37.8-.37 1.34 0 .49.16.78.37 1.2l1.48 3.03c.35.72.53.77 1.32.77H230c.38 0 .87.21.87.88 0 .63-.47.87-.87.87zM37.17 124.53h4.36v-6.5c0-.56.27-1.12 1.13-1.12.85 0 1.12.56 1.12 1.12v6.5c.59 0 1.13.32 1.13 1.13 0 .81-.54 1.13-1.13 1.13v4.58c0 .72-.31 1.13-1.12 1.13s-1.13-.4-1.13-1.13v-4.59h-6.61v-10.66c0-.56.27-1.13 1.12-1.13.86 0 1.13.57 1.13 1.13v8.41zm19.5 5.72h2.19v-4.55c0-.65.29-1.12 1.12-1.12.84 0 1.13.47 1.13 1.13v5.67c0 .8-.54 1.12-1.13 1.12h-8.86c-.59 0-1.13-.31-1.13-1.13 0-.8.54-1.12 1.13-1.12h3.3v-13h-3.3c-.59 0-1.13-.32-1.13-1.13 0-.81.54-1.13 1.13-1.13h5.55v15.26zm11.77-5.38v5.38h7.74c.59 0 1.13.31 1.13 1.13 0 .8-.54 1.12-1.13 1.12H66.2v-7.33c0-1.7.86-2.55 2.55-2.55h6.32v-5.38h-7.74c-.59 0-1.13-.31-1.13-1.12s.54-1.13 1.13-1.13h7.47c.74 0 1.26.12 1.82.64.63.58.7 1.19.7 2v4.61c0 .81-.07 1.42-.7 2-.56.52-1.08.63-1.82.63h-6.35zm22.82 5.38V123h-7.74c-.63 0-1.13-.53-1.13-1.12v-5.76c0-.59.5-1.13 1.13-1.13h8.86c.63 0 1.13.55 1.13 1.13v15.25a1.1 1.1 0 01-1.13 1.13h-1.12a1.1 1.1 0 01-1.13-1.13c0-.67.48-1.12 1.13-1.12zm-6.62-9.5h6.62v-3.5h-6.62v3.5zm50.83-3.5v5.37h4.14c.72 0 1.26.11 1.8.63.63.59.7 1.13.7 1.92v4.81c0 .7-.07 1.2-.54 1.76-.56.67-1.15.76-1.96.76h-5c-.58 0-.92-.16-1.48-.4l-.85-.39c-.61-.27-1.29-.47-1.29-1.26 0-.58.5-1.12 1.08-1.12.27 0 .47.06.72.18l.68.29c.31.14.83.45 1.19.45h5.2v-5.38h-6.64V115h7.76c.59 0 1.13.32 1.13 1.13 0 .81-.54 1.13-1.13 1.13h-5.51zm13.97 7.62v5.38h7.74c.59 0 1.13.31 1.13 1.13 0 .8-.54 1.12-1.13 1.12h-9.99v-7.33c0-1.7.86-2.55 2.55-2.55h6.32v-5.38h-7.74c-.59 0-1.13-.31-1.13-1.12s.54-1.13 1.13-1.13h7.47c.74 0 1.26.12 1.82.64.63.58.7 1.19.7 2v4.61c0 .81-.07 1.42-.7 2-.56.52-1.08.63-1.82.63h-6.35zm16.2 0v5.38h7.74c.59 0 1.13.31 1.13 1.13 0 .8-.54 1.12-1.13 1.12h-9.99v-7.33c0-1.7.86-2.55 2.55-2.55h6.32v-5.38h-7.74c-.59 0-1.13-.31-1.13-1.12s.54-1.13 1.13-1.13h7.47c.74 0 1.26.12 1.82.64.63.58.7 1.19.7 2v4.61c0 .81-.07 1.42-.7 2-.56.52-1.08.63-1.82.63h-6.35zm22.82 5.38V123h-7.74c-.63 0-1.13-.53-1.13-1.12v-5.76c0-.59.5-1.13 1.13-1.13h8.86c.63 0 1.13.55 1.13 1.13v15.25a1.1 1.1 0 01-1.13 1.13h-1.12a1.1 1.1 0 01-1.13-1.13c0-.67.48-1.12 1.13-1.12zm-6.62-9.5h6.62v-3.5h-6.62v3.5zm50.85 1.87h2.12v-5.38h-2.12v5.38zm-1.12-7.63h4.36c.77 0 1.13.55 1.13 1.13v6.5c.7 0 1.24.25 1.64.63.4.39.6.95.6 1.64v5.36c0 1.37-.85 2.25-2.24 2.25h-6.62c-1.4 0-2.25-.88-2.25-2.25v-5.36c0-.7.2-1.25.61-1.64.4-.38.95-.63 1.64-.63v-6.5c0-.59.36-1.13 1.13-1.13zm-1.13 15.26h6.62v-5.38h-6.62v5.38zm22.82-13h-7.74c-.59 0-1.13-.32-1.13-1.13 0-.81.54-1.13 1.13-1.13h7.74a2.2 2.2 0 012.25 2.26v4.31c0 .9-.18 1.56-.88 2.19.7.63.88 1.28.88 2.18v4.32a2.2 2.2 0 01-2.25 2.25h-7.74c-.59 0-1.13-.31-1.13-1.13 0-.8.54-1.12 1.13-1.12h7.74v-3.73c0-1.27-.5-1.65-1.13-1.65h-4.4c-.6 0-1.13-.31-1.13-1.12s.54-1.13 1.12-1.13h4.41c.63 0 1.13-.38 1.13-1.64v-3.73zm10.7 7.28h4.37v-6.5c0-.56.27-1.12 1.13-1.12.85 0 1.12.56 1.12 1.12v6.5c.59 0 1.13.32 1.13 1.13 0 .81-.54 1.13-1.13 1.13v4.58c0 .72-.31 1.13-1.12 1.13s-1.13-.4-1.13-1.13v-4.59h-6.61v-10.66c0-.56.27-1.13 1.12-1.13.86 0 1.13.57 1.13 1.13v8.41zm17.33-1.9h2.12v-5.38h-2.12v5.37zm-1.12-7.63h4.36c.77 0 1.13.53 1.13 1.12v6.5c.7 0 1.24.25 1.64.63.4.39.6.95.6 1.64v5.36c0 1.37-.85 2.25-2.24 2.25h-6.62c-1.4 0-2.25-.88-2.25-2.25v-5.36c0-.7.2-1.25.61-1.64.4-.38.95-.63 1.64-.63v-6.5c0-.59.36-1.13 1.13-1.13zm-1.13 15.25h6.62v-5.38h-6.62v5.38zm55.22-13h-7.74c-.59 0-1.13-.32-1.13-1.13 0-.81.54-1.13 1.13-1.13h7.74a2.2 2.2 0 012.25 2.26v4.31c0 .9-.18 1.56-.88 2.19.7.63.88 1.28.88 2.18v4.32a2.2 2.2 0 01-2.25 2.25h-7.74c-.59 0-1.13-.31-1.13-1.13 0-.8.54-1.12 1.13-1.12h7.74v-3.73c0-1.27-.5-1.65-1.13-1.65h-4.4c-.6 0-1.13-.31-1.13-1.12s.54-1.13 1.12-1.13h4.41c.63 0 1.13-.38 1.13-1.64v-3.73zm16.2 0h-6.62c0 .49-.4 1.12-1.12 1.12-.72 0-1.13-.63-1.13-1.13v-1.12c0-.5.4-1.13 1.13-1.13h9.99v6.53c0 .79.02.88-.61 1.42l-3.15 2.72c-.58.52-.63.56-.63 1.35v4.36c0 .72-.31 1.13-1.12 1.13s-1.13-.4-1.13-1.13v-5.42c0-.74.02-.8.59-1.3l3.1-2.68c.74-.65.7-.63.7-1.62v-3.1zm11.81 0v5.37h4.14c.72 0 1.26.11 1.8.63.63.59.7 1.13.7 1.92v4.81c0 .7-.07 1.2-.54 1.76-.56.67-1.15.76-1.96.76h-5c-.58 0-.92-.16-1.48-.4l-.85-.39c-.61-.27-1.29-.47-1.29-1.26 0-.58.5-1.12 1.08-1.12.27 0 .48.06.72.18l.68.29c.31.14.83.45 1.19.45h5.2v-5.38h-6.64V115h7.76c.59 0 1.13.32 1.13 1.13 0 .81-.54 1.13-1.13 1.13h-5.51zm15.1 7.28h4.36v-6.5c0-.56.27-1.12 1.13-1.12.85 0 1.12.56 1.12 1.12v6.5c.59 0 1.13.32 1.13 1.13 0 .81-.54 1.13-1.13 1.13v4.58c0 .72-.31 1.13-1.12 1.13s-1.13-.4-1.13-1.13v-4.59h-6.61v-10.66c0-.56.27-1.13 1.12-1.13.86 0 1.13.57 1.13 1.13v8.41z" fill="#CDD2DB" fill-rule="nonzero"/>
            <path d="M35.06 189.68c-2 0-3.24-1.42-3.24-3.7 0-2.3 1.24-3.7 3.23-3.7 1.6 0 2.84 1.03 2.99 2.5H36.8a1.71 1.71 0 00-1.75-1.4c-1.2 0-1.94 1-1.94 2.6s.75 2.6 1.95 2.6c.9 0 1.57-.5 1.74-1.3h1.24c-.16 1.43-1.36 2.4-2.98 2.4zm10.71-.18l-.6-1.82H42.6l-.61 1.82h-1.27l2.5-7.05h1.41l2.5 7.05h-1.35zm-1.92-5.72l-.97 2.93h2l-.95-2.93h-.08zm7.75 3.07v2.65h-1.26v-7.05h2.86c1.48 0 2.4.85 2.4 2.2 0 .93-.48 1.7-1.32 2l1.54 2.85h-1.44l-1.39-2.65h-1.4zm0-3.38v2.4h1.45c.8 0 1.26-.44 1.26-1.2 0-.74-.49-1.2-1.29-1.2H51.6zm7.53-1.02h2.64c2.1 0 3.32 1.28 3.32 3.5 0 2.26-1.2 3.55-3.32 3.55h-2.64v-7.05zm1.26 1.06v4.93h1.22c1.4 0 2.2-.89 2.2-2.48 0-1.55-.82-2.45-2.2-2.45h-1.22zm18.75 5.99h-1.26v-3.06h-3.43v3.06H73.2v-7.05h1.26v2.93h3.43v-2.93h1.26v7.05zm6.77-7.22c2.05 0 3.33 1.42 3.33 3.7 0 2.27-1.27 3.7-3.33 3.7s-3.33-1.43-3.33-3.7c0-2.28 1.29-3.7 3.33-3.7zm0 1.09c-1.25 0-2.04 1-2.04 2.6s.77 2.62 2.04 2.62c1.26 0 2.05-1.03 2.05-2.62 0-1.6-.8-2.6-2.05-2.6zm11.26 5.05v1.08h-4.49v-7.05h1.26v5.97h3.23zm3.36-5.97h2.64c2.1 0 3.32 1.28 3.32 3.5 0 2.26-1.2 3.55-3.32 3.55h-2.64v-7.05zm1.26 1.06v4.93h1.22c1.4 0 2.2-.89 2.2-2.48 0-1.55-.82-2.45-2.2-2.45h-1.22zm12.7 4.93v1.06h-4.56v-7.05h4.56v1.06h-3.3v1.91h3.12v1h-3.12v2.02h3.3zm4.82-1.6v2.66h-1.26v-7.05h2.86c1.48 0 2.41.85 2.41 2.2 0 .93-.49 1.7-1.33 2l1.54 2.85h-1.44l-1.38-2.65h-1.4zm0-3.37v2.4h1.46c.8 0 1.26-.44 1.26-1.2 0-.74-.5-1.2-1.3-1.2h-1.42z" fill="#6D7278" fill-rule="nonzero"/>
            <g fill-rule="nonzero">
                <path d="M309.15 55.54v-5.06c0-1.9-1.21-3.18-3.17-3.2a3.12 3.12 0 00-2.83 1.43 2.96 2.96 0 00-2.67-1.43 2.67 2.67 0 00-2.35 1.2v-1.01h-1.76v8.07h1.77v-4.47c0-1.4.78-2.14 1.98-2.14s1.75.75 1.75 2.12v4.49h1.76v-4.47c0-1.4.81-2.14 1.98-2.14 1.16 0 1.77.75 1.77 2.12v4.49h1.77zm26.2-8.07h-2.86v-2.44h-1.77v2.44h-1.64v1.6h1.64v3.68c0 1.87.72 2.99 2.8 2.99.77 0 1.53-.22 2.19-.63l-.5-1.5c-.48.28-1.01.44-1.56.46-.87 0-1.16-.54-1.16-1.35v-3.64h2.86v-1.6zm14.97-.2a2.38 2.38 0 00-2.13 1.18v-.98h-1.74v8.07h1.76v-4.52c0-1.35.57-2.08 1.72-2.08.37 0 .75.07 1.1.2l.53-1.65c-.4-.14-.82-.22-1.24-.22zm-22.62.84c-1-.59-2.14-.88-3.29-.84-2.04 0-3.37.98-3.37 2.58 0 1.32.98 2.13 2.78 2.38l.83.12c.96.13 1.42.38 1.42.84 0 .62-.64.98-1.84.98a4.3 4.3 0 01-2.7-.84l-.8 1.36a5.81 5.81 0 003.5 1.05c2.32 0 3.67-1.1 3.67-2.63 0-1.42-1.06-2.16-2.81-2.41l-.82-.12c-.76-.1-1.37-.25-1.37-.8 0-.58.57-.93 1.53-.93a5.2 5.2 0 012.52.69l.75-1.43zm46.98-.84a2.38 2.38 0 00-2.13 1.18v-.98h-1.74v8.07h1.76v-4.52c0-1.35.57-2.08 1.72-2.08.37 0 .75.07 1.1.2l.54-1.65c-.4-.14-.83-.22-1.25-.22zm-22.6 4.24c0 2.44 1.71 4.23 4.3 4.23 1.06.05 2.1-.3 2.9-.97l-.84-1.41c-.6.46-1.34.71-2.1.72-1.4 0-2.43-1.03-2.43-2.58s1.03-2.56 2.43-2.58c.76.01 1.5.26 2.1.73l.85-1.42a4.22 4.22 0 00-2.9-.96c-2.6 0-4.3 1.78-4.3 4.23zm16.43 0v-4.05h-1.75v.98a3.06 3.06 0 00-2.55-1.18c-2.26 0-4.04 1.77-4.04 4.23 0 2.47 1.77 4.24 4.04 4.24 1 .04 1.94-.4 2.55-1.18v.97h1.75v-4.01zm-6.52 0c0-1.42.92-2.58 2.44-2.58 1.45 0 2.43 1.11 2.43 2.58 0 1.46-.98 2.57-2.43 2.57-1.52 0-2.44-1.16-2.44-2.57zm-21.17-4.24c-2.36 0-4.01 1.72-4.01 4.24 0 2.56 1.72 4.23 4.13 4.23a4.9 4.9 0 003.3-1.13l-.85-1.3c-.67.53-1.5.83-2.36.84-1.13 0-2.16-.52-2.41-1.97h5.99c.01-.22.03-.44.03-.68 0-2.51-1.57-4.23-3.83-4.23h.01zm-.03 1.57c1.13 0 1.85.7 2.04 1.96h-4.18c.18-1.17.9-1.96 2.14-1.96zm43.99 2.67v-7.27h-1.76v4.21a3.06 3.06 0 00-2.54-1.18c-2.26 0-4.04 1.77-4.04 4.23 0 2.46 1.77 4.23 4.04 4.23.99.05 1.94-.4 2.54-1.18v.98h1.76V51.5zm2.05 3.28a.52.52 0 01.48.71.52.52 0 01-.48.31.52.52 0 01-.49-.3.51.51 0 01.5-.71h-.01zm0 .91a.38.38 0 00.28-.11.4.4 0 00-.13-.65.39.39 0 00-.15-.03.4.4 0 00-.29.68.4.4 0 00.3.11h-.01zm.03-.64c.05 0 .1.01.14.04.03.03.05.07.05.11 0 .04-.01.07-.04.1a.19.19 0 01-.11.05l.15.18h-.12l-.14-.18h-.05v.18h-.1v-.48h.22zm-.12.09v.13h.18a.05.05 0 00.03-.05.05.05 0 00-.03-.05h-.06l-.12-.03zm-8.48-3.64c0-1.42.92-2.58 2.44-2.58 1.45 0 2.43 1.11 2.43 2.58 0 1.46-.98 2.57-2.43 2.57-1.52 0-2.44-1.16-2.44-2.57zm-59.23 0v-4.05h-1.75v.98a3.06 3.06 0 00-2.54-1.17c-2.26 0-4.04 1.77-4.04 4.24 0 2.46 1.77 4.23 4.04 4.23 1 .04 1.94-.4 2.55-1.18v.97h1.75v-4.02zm-6.52 0c0-1.42.92-2.58 2.44-2.58 1.45 0 2.43 1.11 2.43 2.58 0 1.46-.98 2.57-2.43 2.57-1.52 0-2.44-1.16-2.44-2.57z" fill="#CDD2DB"/>
                <path fill="#FF5F00" d="M263.38 41.92h10.61v19.06h-10.61z"/>
                <path d="M264.06 51.46c0-3.72 1.7-7.23 4.63-9.53a12.12 12.12 0 100 19.06 12.1 12.1 0 01-4.63-9.53z" fill="#EB001B"/>
                <path d="M288.3 51.46a12.12 12.12 0 01-19.61 9.53 12.12 12.12 0 000-19.06 12.12 12.12 0 0119.6 9.53z" fill="#F79E1B"/>
            </g>
            <path d="M105.02 58.2a11.84 11.84 0 00-.02-14.16m6.8 18.04a19.6 19.6 0 003.32-10.95c0-4.04-1.22-7.8-3.3-10.91m6.73 25.73a27.31 27.31 0 004.34-14.82c0-5.45-1.58-10.52-4.32-14.79m6.73 33.5a35.05 35.05 0 005.37-18.71 35 35 0 00-5.33-18.63" stroke-linecap="round" stroke="#B4BBC4" stroke-width="4.12"/>
        </g>
    </g>
</svg>
