<svg width="509" height="304" viewBox="0 0 509 304" xmlns="http://www.w3.org/2000/svg" xmlns:xlink="http://www.w3.org/1999/xlink">
    <defs>
        <path d="M62.93 228.6c17.55 0 29.43 8.15 34.77 19.13v27.69a31.2 31.2 0 01-7.76 9.18h7.76v.88c0 8.38-6.8 15.18-15.19 15.18H26.04V284.6H36.6c-6.86-5.04-11.94-12-11.94-22.76 0-17.03 13.44-33.25 38.27-33.25zm.42 21c-12.28 0-20.42 8.19-20.42 17.88s8.14 17.74 20.7 17.74c12.27 0 20.4-8.05 20.4-17.74 0-9.7-8-17.88-20.68-17.88zm34.35-52.06v21H0v-21h97.7zm0-76.73v19.88h-6.45a27.01 27.01 0 016.45 8.53v26.32c-3.48 7.15-10.16 11.95-19.75 11.95-15.87 0-23.2-12.04-23.2-29.21 0-7.3 1.22-12.58 2.98-17.72h-1.22c-8.54 0-13.3 5.27-13.3 15.55 0 7.85 1.5 13.4 3.94 20.02l-15.74 5.14c-3.53-7.98-5.83-15.83-5.83-28.13 0-11.23 2.98-19.34 8.14-24.48 5.43-5.41 13.43-7.85 23.2-7.85H97.7zM73.99 140H70.3a31.9 31.9 0 00-2.72 13.16c0 8.82 3.54 14.25 10.34 14.25 5.58 0 8.84-4.62 8.84-11.26 0-9.63-5.3-16.15-12.78-16.15zm-27.5-75.8v1.08c0 13.7 8.37 22.12 25.92 22.12H97.7v20.63H26.07V87.4h14.8c-10.14-4.2-16.72-11-16.17-23.2h21.8zM82.52 0c6.3 0 11.72 3.84 14.01 9.32L69.7 26.36l7.64 7.18H97.7v20.6H0v-20.6h53.06L26.46 9.42V0h15.87l12.9 12.4L74.47 0h8.05z" id="a"/>
        <path d="M361.55 232.92a2.1 2.1 0 002.13-2.12v-12.3c0-1.16-.96-2.12-2.13-2.12h-6.25c-1.17 0-2.13.96-2.13 2.13v12.29c0 1.19.92 2.12 2.13 2.12h6.25zm0-2.12h-6.25v-12.3h6.25v12.3zm15.3 2.12c1.22 0 2.13-.91 2.13-2.12v-4.09c0-.85-.17-1.46-.83-2.06.66-.6.83-1.2.83-2.06v-4.08c0-1.21-.91-2.13-2.12-2.13h-7.32c-.55 0-1.06.3-1.06 1.07 0 .76.51 1.06 1.06 1.06h7.32v3.53c0 1.19-.47 1.55-1.07 1.55h-4.16c-.56 0-1.07.3-1.07 1.06 0 .77.51 1.07 1.07 1.07h4.16c.6 0 1.07.36 1.07 1.55v3.53h-7.32c-.55 0-1.06.3-1.06 1.06s.51 1.06 1.06 1.06h7.32zm8 0c.53 0 .79-.3 1.04-.74l8.17-13.97c.12-.23.23-.49.23-.83 0-.55-.49-1-1.04-1-.53 0-.79.39-1.04.81l-7.95 13.63c-.22.34-.47.7-.47 1.1 0 .56.53 1 1.06 1zm23.68 0c.56 0 1.07-.3 1.07-1.06 0-.77-.51-1.06-1.07-1.06h-7.31v-5.08h6c.7 0 1.19-.11 1.72-.6.6-.55.66-1.13.66-1.9v-4.35c0-.77-.07-1.34-.66-1.9-.53-.48-1.02-.59-1.72-.59h-7.06c-.56 0-1.07.3-1.07 1.07 0 .76.51 1.06 1.07 1.06h7.31v5.08h-5.97c-1.6 0-2.4.8-2.4 2.4v6.93h9.43zm14.25 0c.76 0 1.06-.38 1.06-1.06v-4.34c.55 0 1.06-.3 1.06-1.06 0-.77-.5-1.06-1.06-1.06v-6.15c0-.53-.26-1.06-1.06-1.06-.81 0-1.07.53-1.07 1.06v6.15h-4.12v-7.95c0-.54-.26-1.07-1.06-1.07-.81 0-1.07.53-1.07 1.07v10.07h6.25v4.34c0 .68.3 1.06 1.07 1.06z" id="c"/>
        <path d="M3.47 232.92c.76 0 1.06-.38 1.06-1.06v-7.95h5.23c.55 0 1.06-.3 1.06-1.06 0-.77-.5-1.07-1.06-1.07H4.53v-3.27h7.31c.55 0 1.06-.3 1.06-1.06 0-.77-.5-1.07-1.06-1.07H2.4v15.48c0 .68.3 1.06 1.07 1.06zm23.66 0c.6 0 1.08-.4 1.08-1 0-.4-.3-.8-.53-1.12l-4.78-6.85h1.95c1.7 0 3.36-1.02 3.36-3.02v-1.46c0-1.9-1.68-3.09-3.36-3.09h-7.14v15.48c0 .68.3 1.06 1.06 1.06.77 0 1.06-.38 1.06-1.06v-7.9h.5l5.86 8.37c.23.34.51.6.94.6zm-2.47-11.1h-4.83v-3.31h4.75c.63 0 1.5.1 1.5.96v1.46c0 .8-.83.89-1.42.9zm11.76-2.63c.12 0 .27-.04.4-.09l4.3-1.46c.42-.2.5-.51.5-.9 0-.6-.48-1.2-1.06-1.2-.13 0-.3.01-.47.1l-3.97 1.7a.83.83 0 00-.51.74c0 .56.36 1.1.8 1.1zm6.03 13.73c.56 0 1.07-.3 1.07-1.06 0-.77-.51-1.06-1.07-1.06h-7.3v-3.55h3.12c.55 0 1.06-.3 1.06-1.07 0-.76-.51-1.06-1.06-1.06h-3.13v-3h7.31c.56 0 1.07-.3 1.07-1.06 0-.77-.51-1.06-1.07-1.06h-9.43v12.92h9.43zm10.46 0c1.66 0 2.62-.49 3.36-2l1.94-3.87c.38-.76.61-1.48.61-2.33 0-.98-.2-1.6-.63-2.47l-1.88-3.74c-.72-1.45-1.55-2.13-3.2-2.13h-3.56c-.65 0-1.23.3-1.23 1.07 0 .8.6 1.06 1.3 1.06h.78v12.29h-1.02c-.55 0-1.06.3-1.06 1.06s.51 1.06 1.06 1.06h3.53zm.02-2.12h-.4v-12.3h.55c.73.02.92.09 1.32.9l1.77 3.6c.3.61.53 1.01.53 1.74 0 .53-.17.9-.4 1.38l-1.88 3.78c-.38.79-.6.9-1.49.9zm14.1-11.61c.13 0 .28-.04.4-.09l4.3-1.46c.42-.2.5-.51.5-.9 0-.6-.48-1.2-1.06-1.2-.12 0-.3.01-.46.1l-3.98 1.7a.83.83 0 00-.5.74c0 .56.35 1.1.8 1.1zm6.04 13.73c.55 0 1.06-.3 1.06-1.06 0-.77-.51-1.06-1.06-1.06h-7.32v-3.55h3.13c.55 0 1.06-.3 1.06-1.07 0-.76-.5-1.06-1.06-1.06h-3.13v-3h7.32c.55 0 1.06-.3 1.06-1.06 0-.77-.51-1.06-1.06-1.06h-9.44v12.92h9.44zm15.28 0c.6 0 1.09-.4 1.09-1 0-.4-.3-.8-.54-1.12l-4.78-6.85h1.96c1.7 0 3.36-1.02 3.36-3.02v-1.46c0-1.9-1.68-3.09-3.36-3.09h-7.15v15.48c0 .68.3 1.06 1.07 1.06.76 0 1.06-.38 1.06-1.06v-7.9h.49l5.87 8.37c.23.34.5.6.93.6zm-2.47-11.1h-4.82v-3.31h4.74c.64 0 1.51.1 1.51.96v1.46c0 .8-.83.89-1.43.9zm17.8 11.1c.55 0 1.06-.3 1.06-1.06 0-.77-.5-1.06-1.06-1.06h-3.13v-12.3h3.13c.55 0 1.06-.29 1.06-1.05 0-.77-.5-1.07-1.06-1.07H95.3c-.55 0-1.06.3-1.06 1.07 0 .76.51 1.06 1.06 1.06h3.13v12.29H95.3c-.55 0-1.06.3-1.06 1.06s.51 1.06 1.06 1.06h8.38zm14.97 0c.74 0 1.4-.17 1.4-1.06 0-.68-.51-1.06-1.15-1.06h-1.25l-.53-1.28 1.25-1.08a4.2 4.2 0 001.68-3.66v-5.63c0-1.58-1.04-2.77-2.66-2.77-.76 0-1.25.39-1.8.87l-4.34 3.7a4.19 4.19 0 00-1.7 3.51v5.57c0 .85.1 1.43.7 2.08.49.54 1.15.81 1.87.81.83 0 1.32-.23 1.91-.74l1.4-1.2.77 1.94h2.45zm-6.5-2.12c-.42 0-.47-.3-.48-.59v-5.66c0-.96.24-1.36.96-1.98l4.27-3.7c.2-.15.34-.36.6-.36.43 0 .43.44.42.77v5.37c0 1.28-.15 1.58-1.12 2.38l-.5.4-.25-.6c-.27-.65-.4-1.37-1.23-1.37-.55 0-1.06.45-1.06 1.02 0 .32.17.7.3 1l.55 1.4-1.83 1.6c-.17.15-.4.32-.64.32zm19.76 2.12c1.06 0 1.9-.25 2.64-1.08.7-.79.8-1.55.8-2.53v-11.86c0-.68-.3-1.07-1.06-1.07s-1.06.39-1.06 1.07v11.86c0 1.19-.36 1.49-1.32 1.49h-3.61c-.96 0-1.32-.3-1.32-1.5v-11.85c0-.68-.3-1.07-1.06-1.07-.77 0-1.07.39-1.07 1.07v11.86c0 .98.11 1.74.81 2.53a3.22 3.22 0 002.64 1.08h3.61zm17.69 0c.55 0 1.06-.3 1.06-1.06 0-.77-.5-1.06-1.06-1.06h-7.31v-5.08h3.12c.55 0 1.06-.3 1.06-1.07 0-.76-.5-1.06-1.06-1.06h-3.12v-5.08h7.3c.56 0 1.07-.3 1.07-1.06 0-.77-.5-1.07-1.06-1.07h-9.44v16.54h9.44zm30.61 0c.55 0 1.07-.3 1.07-1.06 0-.77-.52-1.06-1.07-1.06h-7.31v-13.35c0-.68-.3-1.07-1.06-1.07-.77 0-1.07.39-1.07 1.07v15.47h9.44zm15.3 0c.56 0 1.07-.3 1.07-1.06 0-.77-.5-1.06-1.06-1.06h-7.31v-5.08h3.12c.55 0 1.06-.3 1.06-1.07 0-.76-.5-1.06-1.06-1.06h-3.12v-5.08h7.3c.56 0 1.07-.3 1.07-1.06 0-.77-.5-1.07-1.06-1.07h-9.44v16.54h9.44zm10.47 0c1.66 0 2.61-.49 3.36-2l1.93-3.87c.38-.76.62-1.48.62-2.33 0-.98-.21-1.6-.64-2.47l-1.87-3.74c-.72-1.45-1.55-2.13-3.21-2.13h-3.55c-.66 0-1.23.3-1.23 1.07 0 .8.6 1.06 1.3 1.06h.78v12.29h-1.02c-.55 0-1.06.3-1.06 1.06s.5 1.06 1.06 1.06h3.53zm.02-2.12h-.4v-12.3h.55c.72.02.92.09 1.32.9l1.76 3.6c.3.61.53 1.01.53 1.74 0 .53-.17.9-.4 1.38l-1.87 3.78c-.39.79-.6.9-1.5.9zm17.75 2.12c1.06 0 1.9-.25 2.64-1.08.7-.79.8-1.55.8-2.53v-11.86c0-.68-.3-1.07-1.06-1.07s-1.06.39-1.06 1.07v11.86c0 1.19-.36 1.49-1.32 1.49h-3.61c-.96 0-1.32-.3-1.32-1.5v-11.85c0-.68-.3-1.07-1.06-1.07-.77 0-1.07.39-1.07 1.07v11.86c0 .98.1 1.74.81 2.53a3.22 3.22 0 002.64 1.08h3.61zm17.69 0c.49 0 1.06-.3 1.06-1.06 0-.8-.6-1.06-1.06-1.06h-3.47c-.95 0-1.17-.07-1.6-.94l-1.8-3.68c-.25-.5-.45-.87-.45-1.46 0-.66.17-1.05.45-1.62l1.85-3.7c.4-.8.55-.9 1.47-.9h3.55c.49 0 1.06-.29 1.06-1.05 0-.81-.6-1.07-1.06-1.07h-3.62c-1.63 0-2.55.58-3.27 2.04l-1.96 3.94a4.77 4.77 0 00-.02 4.6l1.96 3.94c.68 1.38 1.6 2.02 3.19 2.02h3.72z" id="e"/>
        <path d="M13.86 137.52c.98 0 1.36-.49 1.36-1.36v-5.58c.72 0 1.37-.38 1.37-1.37 0-.98-.65-1.36-1.37-1.36v-7.9c0-.68-.32-1.37-1.36-1.37s-1.37.69-1.37 1.37v7.9H7.2v-10.22c0-.69-.33-1.37-1.37-1.37s-1.36.68-1.36 1.37v12.95h8.03v5.58c0 .87.38 1.36 1.37 1.36zm21.04 0c.71 0 1.37-.38 1.37-1.36v-6.9c0-.78-.35-1.36-1.37-1.36-1 0-1.36.58-1.36 1.37v5.52h-2.65v-18.53h-6.76c-.7 0-1.36.38-1.36 1.37 0 .98.65 1.36 1.36 1.36h4.02v15.8h-4.02c-.7 0-1.36.38-1.36 1.37 0 .98.65 1.36 1.36 1.36H34.9zm19.68 0c.71 0 1.37-.38 1.37-1.36 0-.99-.66-1.37-1.37-1.37h-9.4v-6.53h7.7c.91 0 1.54-.14 2.22-.77.77-.7.85-1.45.85-2.43v-5.6c0-.99-.08-1.73-.85-2.44-.68-.62-1.3-.76-2.21-.76H43.8c-.7 0-1.36.38-1.36 1.37 0 .98.65 1.36 1.36 1.36h9.4v6.53h-7.67c-2.05 0-3.1 1.04-3.1 3.1v8.9h12.14zm19.68 0c.82 0 1.37-.62 1.37-1.36v-18.53c0-.72-.6-1.37-1.37-1.37H63.5c-.76 0-1.36.65-1.36 1.37v7c0 .7.6 1.36 1.36 1.36h9.4v8.8c-.79 0-1.36.55-1.36 1.37 0 .74.55 1.36 1.37 1.36h1.36zm-1.36-14.26h-8.04v-4.27h8.04v4.27zm58.74 14.26c.98 0 1.69-.1 2.37-.93.58-.68.66-1.28.66-2.13v-5.85c0-.95-.08-1.6-.85-2.32-.65-.63-1.31-.77-2.18-.77h-5.03V119h6.7c.7 0 1.36-.38 1.36-1.36 0-.99-.66-1.37-1.37-1.37h-9.43v12h8.07v6.53h-6.32c-.44 0-1.06-.38-1.45-.55l-.82-.35c-.3-.14-.54-.22-.87-.22-.71 0-1.31.66-1.31 1.37 0 .95.82 1.2 1.55 1.53l1.04.46c.69.3 1.1.5 1.8.5h6.08zm21.34 0c.71 0 1.37-.38 1.37-1.36 0-.99-.66-1.37-1.37-1.37h-9.4v-6.53h7.7c.91 0 1.54-.14 2.22-.77.77-.7.85-1.45.85-2.43v-5.6c0-.99-.08-1.73-.85-2.44-.68-.62-1.31-.76-2.21-.76h-9.08c-.7 0-1.36.38-1.36 1.37 0 .98.65 1.36 1.36 1.36h9.4v6.53h-7.67c-2.05 0-3.1 1.04-3.1 3.1v8.9h12.14zm19.68 0c.71 0 1.37-.38 1.37-1.36 0-.99-.66-1.37-1.37-1.37h-9.4v-6.53h7.7c.9 0 1.54-.14 2.22-.77.77-.7.85-1.45.85-2.43v-5.6c0-.99-.08-1.73-.85-2.44-.68-.62-1.31-.76-2.21-.76h-9.08c-.7 0-1.36.38-1.36 1.37 0 .98.65 1.36 1.36 1.36h9.4v6.53h-7.68c-2.05 0-3.08 1.04-3.08 3.1v8.9h12.13zm19.68 0c.82 0 1.37-.62 1.37-1.36v-18.53c0-.72-.6-1.37-1.37-1.37h-10.77c-.76 0-1.36.65-1.36 1.37v7c0 .7.6 1.36 1.36 1.36h9.4v8.8c-.79 0-1.36.55-1.36 1.37 0 .74.55 1.36 1.37 1.36h1.36zm-1.36-14.26h-8.04v-4.27h8.04v4.27zM250 137.52c1.7 0 2.74-1.06 2.74-2.73v-6.5c0-.85-.25-1.54-.74-2a2.81 2.81 0 00-2-.77v-7.9c0-.7-.43-1.36-1.36-1.36h-5.3c-.93 0-1.37.65-1.37 1.37v7.9c-.85 0-1.5.3-2 .76-.49.46-.73 1.15-.73 2v6.5c0 1.67 1.03 2.73 2.73 2.73H250zm-2.73-12h-2.57V119h2.57v6.53zm2.73 9.27h-8.03v-6.53H250v6.53zm19.68 2.73a2.67 2.67 0 002.74-2.73v-5.25c0-1.1-.22-1.88-1.07-2.65.85-.76 1.07-1.56 1.07-2.65v-5.25a2.67 2.67 0 00-2.74-2.73h-9.4c-.7 0-1.37.38-1.37 1.37 0 .98.66 1.36 1.37 1.36h9.4v4.54c0 1.53-.6 2-1.36 2h-5.36c-.71 0-1.37.38-1.37 1.36 0 .99.66 1.37 1.37 1.37h5.36c.76 0 1.36.46 1.36 2v4.53h-9.4c-.7 0-1.37.38-1.37 1.37 0 .98.66 1.36 1.37 1.36h9.4zm19.68 0c.99 0 1.37-.49 1.37-1.36v-5.58c.71 0 1.37-.38 1.37-1.37 0-.98-.66-1.36-1.37-1.36v-7.9c0-.68-.33-1.37-1.37-1.37-1.03 0-1.36.69-1.36 1.37v7.9h-5.3v-10.22c0-.69-.33-1.37-1.37-1.37s-1.37.68-1.37 1.37v12.95h8.04v5.58c0 .87.38 1.36 1.36 1.36zm19.68 0c1.7 0 2.74-1.06 2.74-2.73v-6.5c0-.85-.25-1.54-.74-2a2.81 2.81 0 00-2-.77v-7.9c0-.7-.43-1.36-1.36-1.36h-5.3c-.94 0-1.37.65-1.37 1.37v7.9c-.85 0-1.5.3-2 .76-.49.46-.74 1.15-.74 2v6.5c0 1.67 1.04 2.73 2.74 2.73h8.03zm-2.73-12h-2.57V119h2.57v6.53zm2.73 9.27h-8.03v-6.53h8.03v6.53zm59.04 2.73a2.67 2.67 0 002.74-2.73v-5.25c0-1.1-.22-1.88-1.07-2.65.85-.76 1.07-1.56 1.07-2.65v-5.25a2.67 2.67 0 00-2.74-2.73h-9.4c-.71 0-1.37.38-1.37 1.37 0 .98.66 1.36 1.37 1.36h9.4v4.54c0 1.53-.6 2-1.36 2h-5.36c-.71 0-1.37.38-1.37 1.36 0 .99.66 1.37 1.37 1.37h5.36c.76 0 1.36.46 1.36 2v4.53h-9.4c-.71 0-1.37.38-1.37 1.37 0 .98.66 1.36 1.37 1.36h9.4zm15.72 0c.98 0 1.37-.49 1.37-1.36v-5.3c0-.96.05-1.02.76-1.65l3.83-3.3c.67-.58.73-.73.74-1.42v-8.23h-12.14c-.87 0-1.37.76-1.37 1.37v1.36c0 .6.5 1.37 1.37 1.37.87 0 1.37-.77 1.37-1.37h8.03v4.24c0 .75-.08.83-.84 1.5l-3.78 3.25c-.64.57-.7.68-.7 1.43v6.75c0 .87.38 1.36 1.36 1.36zm23.34 0c.99 0 1.7-.1 2.38-.93.57-.68.66-1.28.66-2.13v-5.85c0-.95-.09-1.6-.85-2.32-.66-.63-1.31-.77-2.19-.77h-5.03V119h6.7c.7 0 1.37-.38 1.37-1.36 0-.99-.66-1.37-1.37-1.37h-9.43v12h8.06v6.53h-6.31c-.44 0-1.07-.38-1.45-.55l-.82-.35c-.3-.14-.55-.22-.88-.22-.7 0-1.3.66-1.3 1.37 0 .95.81 1.2 1.55 1.53l1.04.46c.68.3 1.1.5 1.8.5h6.07zm19.98 0c.99 0 1.37-.49 1.37-1.36v-5.58c.7 0 1.37-.38 1.37-1.37 0-.98-.66-1.36-1.37-1.36v-7.9c0-.68-.33-1.37-1.37-1.37s-1.36.69-1.36 1.37v7.9h-5.3v-10.22c0-.69-.34-1.37-1.37-1.37-1.04 0-1.37.68-1.37 1.37v12.95h8.04v5.58c0 .87.38 1.36 1.36 1.36z" id="g"/>
        <filter x="-.7%" y="-3%" width="102.8%" height="112.1%" filterUnits="objectBoundingBox" id="b">
            <feOffset dx="1" dy="1" in="SourceAlpha" result="shadowOffsetOuter1"/>
            <feColorMatrix values="0 0 0 0 1 0 0 0 0 1 0 0 0 0 1 0 0 0 1 0" in="shadowOffsetOuter1"/>
        </filter>
        <filter x="-.2%" y="-2.9%" width="100.8%" height="111.5%" filterUnits="objectBoundingBox" id="d">
            <feOffset dx="1" dy="1" in="SourceAlpha" result="shadowOffsetOuter1"/>
            <feColorMatrix values="0 0 0 0 1 0 0 0 0 1 0 0 0 0 1 0 0 0 1 0" in="shadowOffsetOuter1"/>
        </filter>
        <filter x="-.1%" y="-2.4%" width="100.5%" height="109.4%" filterUnits="objectBoundingBox" id="f">
            <feOffset dx="1" dy="1" in="SourceAlpha" result="shadowOffsetOuter1"/>
            <feColorMatrix values="0 0 0 0 1 0 0 0 0 1 0 0 0 0 1 0 0 0 1 0" in="shadowOffsetOuter1"/>
        </filter>
    </defs>
    <g fill="none" fill-rule="evenodd">
        <path d="M22.78 3.04h463.14A22.78 22.78 0 01508.7 25.8v255.11a22.78 22.78 0 01-22.78 22.78H22.78A22.78 22.78 0 010 280.92V25.82A22.78 22.78 0 0122.78 3.03z" fill="#B4BBC4"/>
        <path d="M15.18 0h478.33c8.39 0 15.19 6.8 15.19 15.18v270.3c0 8.38-6.8 15.18-15.19 15.18H15.18C6.8 300.66 0 293.86 0 285.48V15.18C0 6.8 6.8 0 15.18 0z" fill="#EEF1F5"/>
        <use fill="#DFE4EB" xlink:href="#a" transform="translate(411)"/>
        <g fill-rule="nonzero" transform="translate(37.96 30.37)">
            <use fill="#000" filter="url(#b)" xlink:href="#c"/>
            <use fill="#3E4044" xlink:href="#c"/>
        </g>
        <path d="M395.33 230.35v-1.29h-4v-2.44h3.78v-1.22h-3.79v-2.32h4.01v-1.29h-5.54v8.56h5.54zm5.47 0l2.01-3.1h.1l2 3.1h1.76l-2.82-4.27 2.87-4.29H405l-1.98 3.17h-.1l-1.96-3.17h-1.8l2.77 4.25-2.8 4.31h1.67zm11.46 0v-2.83h1.85c1.73 0 2.94-1.15 2.94-2.84a2.74 2.74 0 00-2.87-2.89h-3.46v8.56h1.54zm1.5-4.06h-1.5v-3.25h1.51c1.1 0 1.73.57 1.73 1.64 0 1.03-.64 1.6-1.73 1.6zm8.94 4.06v-8.56h-1.53v8.56h1.53zm6.07 0v-3.22h1.7l1.68 3.22h1.74l-1.86-3.45c1.02-.37 1.61-1.31 1.61-2.44 0-1.64-1.13-2.67-2.92-2.67h-3.48v8.56h1.53zm1.77-4.42h-1.77v-2.9h1.73c.97 0 1.57.55 1.57 1.46 0 .92-.56 1.44-1.53 1.44zm12.92 4.42v-1.29h-4.01v-2.44h3.8v-1.22h-3.8v-2.32h4.01v-1.29h-5.54v8.56h5.54zm7.28.22c2.07 0 3.36-1.04 3.36-2.7 0-1.3-.73-2.02-2.47-2.42l-.98-.22c-1.06-.25-1.5-.59-1.5-1.18 0-.74.65-1.23 1.64-1.23.94 0 1.6.49 1.7 1.25h1.47c-.07-1.46-1.37-2.5-3.16-2.5-1.92 0-3.19 1.04-3.19 2.58 0 1.27.73 2.04 2.28 2.4l1.11.25c1.1.25 1.57.63 1.57 1.26 0 .73-.73 1.25-1.74 1.25-1.08 0-1.84-.5-1.94-1.28h-1.5c.08 1.55 1.38 2.54 3.35 2.54z" fill="#959BA3" fill-rule="nonzero"/>
        <g transform="translate(37.96 30.37)">
            <rect fill="#D3C69A" width="60.74" height="60.74" rx="10.63"/>
            <rect stroke="#9D8F63" stroke-width="1.52" x="6.83" y="6.83" width="47.07" height="47.07" rx="6.07"/>
            <g stroke="#9D8F63" stroke-width="1.52">
                <path d="M0 22.78h60.74M30.37 60.73V0M0 32.2h60.74M0 39.77h60.74"/>
                <path d="M24.3 11.39a.76.76 0 00-.76.76v4.14a2.28 2.28 0 01-2.28 2.28h-1.52a.76.76 0 00-.76.76v21.8c0 .43.34.77.76.77h1.52a2.28 2.28 0 012.28 2.27v4.42c0 .42.34.76.76.76h12.14c.42 0 .76-.34.76-.76v-4.42a2.28 2.28 0 012.28-2.27H41c.42 0 .76-.34.76-.76V19.33a.76.76 0 00-.76-.76h-1.52a2.28 2.28 0 01-2.28-2.28v-4.14a.76.76 0 00-.76-.76H24.3z" fill="#D3C69A"/>
            </g>
        </g>
        <g fill-rule="nonzero" transform="translate(37.96 30.37)">
            <use fill="#000" filter="url(#d)" xlink:href="#e"/>
            <use fill="#3E4044" xlink:href="#e"/>
        </g>
        <g fill-rule="nonzero" transform="translate(37.96 30.37)">
            <use fill="#000" filter="url(#f)" xlink:href="#g"/>
            <use fill="#3E4044" xlink:href="#g"/>
        </g>
        <path d="M42.59 230.57c1.97 0 3.42-1.17 3.62-2.9h-1.5c-.21.96-1.04 1.57-2.12 1.57-1.46 0-2.37-1.22-2.37-3.17s.91-3.16 2.36-3.16c1.08 0 1.9.67 2.12 1.7h1.5c-.17-1.77-1.67-3.03-3.62-3.03-2.42 0-3.92 1.71-3.92 4.5 0 2.77 1.5 4.49 3.93 4.49zm8.4-.22l.74-2.21h3.15l.73 2.21h1.64l-3.04-8.56h-1.72l-3.04 8.56H51zm3.54-3.4h-2.44l1.17-3.55h.1l1.17 3.56zm8.15 3.4v-3.22h1.7l1.68 3.22h1.75l-1.87-3.45c1.02-.37 1.61-1.31 1.61-2.44 0-1.64-1.13-2.67-2.92-2.67h-3.48v8.56h1.53zm1.77-4.42h-1.77v-2.9h1.73c.98 0 1.57.55 1.57 1.46 0 .92-.56 1.44-1.53 1.44zm10.59 4.42c2.56 0 4.03-1.57 4.03-4.32 0-2.68-1.49-4.24-4.03-4.24h-3.2v8.56h3.2zm-.2-1.29h-1.48v-5.98h1.48c1.68 0 2.67 1.1 2.67 2.98 0 1.93-.97 3-2.67 3zm15.6 1.3v-3.72h4.17v3.71h1.52v-8.56h-1.52v3.56h-4.16v-3.56h-1.53v8.56h1.53zm13.92.2c2.5 0 4.05-1.73 4.05-4.5 0-2.75-1.55-4.48-4.05-4.48-2.48 0-4.05 1.73-4.05 4.49 0 2.76 1.55 4.5 4.05 4.5zm0-1.32c-1.54 0-2.48-1.24-2.48-3.17 0-1.94.97-3.17 2.48-3.17 1.52 0 2.49 1.23 2.49 3.17 0 1.93-.96 3.17-2.49 3.17zm13.69 1.11v-1.3h-3.93v-7.26h-1.53v8.56h5.46zm7.28 0c2.57 0 4.03-1.57 4.03-4.32 0-2.68-1.48-4.24-4.03-4.24h-3.2v8.56h3.2zm-.2-1.29h-1.47v-5.98h1.47c1.68 0 2.67 1.1 2.67 2.98 0 1.93-.97 3-2.67 3zm13.95 1.3v-1.3h-4v-2.44h3.78v-1.22h-3.79v-2.32h4.01v-1.29h-5.54v8.56h5.54zm5.86 0v-3.23h1.7l1.67 3.22h1.75l-1.86-3.45c1.02-.37 1.6-1.31 1.6-2.44 0-1.64-1.12-2.67-2.92-2.67h-3.47v8.56h1.53zm1.77-4.43h-1.77v-2.9h1.73c.97 0 1.57.55 1.57 1.46 0 .92-.56 1.44-1.53 1.44z" fill="#959BA3" fill-rule="nonzero"/>
        <g fill-rule="nonzero">
            <path d="M375.56 67.46v-6.13c0-2.32-1.48-3.87-3.86-3.9a3.8 3.8 0 00-3.44 1.75 3.6 3.6 0 00-3.23-1.75 3.24 3.24 0 00-2.87 1.46v-1.23h-2.13v9.8h2.15v-5.42c0-1.7.95-2.6 2.4-2.6 1.46 0 2.13.92 2.13 2.58v5.44h2.14v-5.42c0-1.7.98-2.6 2.4-2.6 1.41 0 2.15.92 2.15 2.58v5.44h2.16zm31.83-9.79h-3.48V54.7h-2.15v2.97h-2v1.95h2v4.46c0 2.28.88 3.63 3.4 3.63a5 5 0 002.66-.76l-.61-1.82c-.58.34-1.22.53-1.89.55-1.06 0-1.42-.65-1.42-1.64v-4.42h3.49v-1.95zm18.17-.24a2.89 2.89 0 00-2.58 1.43v-1.19h-2.1v9.8H423v-5.5c0-1.63.7-2.51 2.1-2.51.45-.01.9.07 1.33.24l.65-2c-.49-.18-1-.27-1.52-.27zm-27.47 1.02a7.32 7.32 0 00-4-1.02c-2.48 0-4.09 1.19-4.09 3.13 0 1.6 1.19 2.58 3.38 2.89l1 .14c1.17.16 1.72.47 1.72 1.02 0 .76-.77 1.2-2.23 1.2a5.22 5.22 0 01-3.27-1.03l-.97 1.66a7.06 7.06 0 004.24 1.27c2.83 0 4.47-1.33 4.47-3.2 0-1.72-1.3-2.62-3.42-2.92l-1-.15c-.92-.12-1.66-.3-1.66-.96 0-.71.7-1.14 1.86-1.14 1.07.01 2.12.3 3.05.84l.92-1.73zm57.07-1.02a2.89 2.89 0 00-2.59 1.43v-1.19h-2.1v9.8h2.12v-5.5c0-1.63.7-2.51 2.1-2.51.45-.01.9.07 1.33.24l.65-2c-.48-.18-1-.27-1.51-.27zm-27.45 5.14c0 2.97 2.07 5.14 5.23 5.14a5.13 5.13 0 003.52-1.17l-1.02-1.72a4.3 4.3 0 01-2.56.88c-1.7 0-2.95-1.25-2.95-3.14 0-1.88 1.25-3.1 2.95-3.13a4.3 4.3 0 012.56.88l1.02-1.72a5.13 5.13 0 00-3.52-1.17c-3.16 0-5.23 2.17-5.23 5.14zm19.96 0v-4.91h-2.13v1.19a3.71 3.71 0 00-3.1-1.44c-2.74 0-4.9 2.16-4.9 5.15s2.15 5.14 4.9 5.14c1.2.05 2.36-.49 3.1-1.44v1.19h2.13v-4.88zm-7.93 0c0-1.72 1.12-3.13 2.97-3.13 1.76 0 2.95 1.35 2.95 3.13 0 1.78-1.19 3.13-2.95 3.13-1.85 0-2.97-1.41-2.97-3.13zm-25.71-5.14c-2.87 0-4.88 2.09-4.88 5.14 0 3.11 2.1 5.14 5.02 5.14 1.46.05 2.9-.44 4.02-1.37l-1.05-1.58a4.67 4.67 0 01-2.86 1.02c-1.37 0-2.62-.63-2.93-2.4h7.28c.02-.26.04-.53.04-.82 0-3.05-1.91-5.14-4.65-5.14zm-.04 1.9c1.37 0 2.25.86 2.48 2.38h-5.08c.22-1.42 1.08-2.38 2.6-2.38zm53.44 3.24v-8.83h-2.14v5.12a3.71 3.71 0 00-3.09-1.44c-2.74 0-4.9 2.15-4.9 5.14 0 3 2.15 5.15 4.9 5.15 1.2.05 2.36-.49 3.1-1.44v1.19h2.13v-4.9zm2.49 3.99a.63.63 0 01.58.86.63.63 0 01-.58.38.63.63 0 01-.6-.38.61.61 0 01.34-.81.64.64 0 01.27-.05h-.01zm0 1.1a.46.46 0 00.34-.13.49.49 0 00-.15-.8.47.47 0 00-.2-.03.49.49 0 00-.35.83.49.49 0 00.37.13h-.01zm.03-.77c.06 0 .13.01.18.05.04.03.06.08.06.13s-.02.09-.05.12a.23.23 0 01-.14.06l.2.21h-.16l-.17-.21h-.06v.21h-.12v-.57h.26zm-.14.1v.16H470.03a.07.07 0 00.03-.06.07.07 0 00-.03-.06h-.08l-.14-.04zm-10.3-4.42c0-1.72 1.12-3.13 2.97-3.13 1.76 0 2.95 1.35 2.95 3.13 0 1.78-1.19 3.13-2.95 3.13-1.85 0-2.97-1.41-2.97-3.13zm-71.95 0v-4.91h-2.13v1.19a3.71 3.71 0 00-3.08-1.42c-2.75 0-4.9 2.15-4.9 5.14 0 2.99 2.14 5.14 4.9 5.14 1.2.05 2.35-.48 3.1-1.44v1.19h2.12l-.01-4.9zm-7.93 0c0-1.72 1.13-3.13 2.97-3.13 1.77 0 2.95 1.35 2.95 3.13 0 1.78-1.18 3.13-2.95 3.13-1.84 0-2.97-1.41-2.97-3.13z" fill="#0B0C0D"/>
            <path fill="#FF5F00" d="M319.96 50.93h12.88v23.15h-12.88z"/>
            <path d="M320.77 62.51a14.7 14.7 0 015.63-11.57 14.72 14.72 0 100 23.15 14.7 14.7 0 01-5.63-11.58z" fill="#EB001B"/>
            <path d="M350.22 62.51A14.72 14.72 0 01326.4 74.1a14.72 14.72 0 000-23.16 14.72 14.72 0 0123.82 11.58z" fill="#F79E1B"/>
        </g>
        <g stroke="#CDD2DB" stroke-linecap="round" stroke-width="5">
            <path d="M127.57 70.7a14.38 14.38 0 002.83-8.59c0-3.23-1.06-6.2-2.85-8.61M135.8 75.41a23.78 23.78 0 004.05-13.3c0-4.9-1.48-9.46-4.02-13.26M144.02 80.11a33.18 33.18 0 005.27-18c0-6.61-1.93-12.78-5.25-17.96M152.2 84.84a42.58 42.58 0 006.54-22.73c0-8.3-2.37-16.06-6.47-22.63"/>
        </g>
    </g>
</svg>
